<svg fill="none" height="56" viewBox="0 0 344 56" width="344" xmlns="http://www.w3.org/2000/svg"><path clip-rule="evenodd" d="m.151443 46.9852c-.668779-.667 1.049107-1.525 1.811587-.9517 12.01967 10.1088 21.17497 5.3392 27.85357-2.2893 4.9607-9.4456 8.2036-19.8411 13.6401-29.8562 6.392-11.63755 18.4117-14.880383 22.9884-13.640201l10.3973 2.765141c.7644.28662-.2847 2.10003-1.1446 2.00449-6.392-1.24018-16.4072-6.86784-24.6107 6.77237l-11.0643 29.2829c-5.0544 9.2545-12.1133 13.0688-18.3142 12.8795-5.15-.1929-14.59377.7589-21.557157-6.967zm68.774057-39.10891.0955 45.49901 8.0125-.0937v-21.2723h26.4205l-.096 19.8411h7.537v-43.11426h-7.821l.095 18.79196-26.1355-.1911v-19.55625zm50.0775.57324v43.40087l7.441.191v-43.49633zm11.924 42.35357c-.382-.7643 1.049-1.1446 1.718-.6669 5.055 3.7168 9.062 2.0963 12.782-2.9563 4.292-10.3991 8.49-21.8455 16.883-33.0053 5.437-5.24554 11.829-6.96342 19.365-4.76968.858.19108 1.906 1.14468 1.623 1.90898-.287.7643-1.529.4777-2.196.1911-5.245-2.48039-7.917-1.1465-10.969 2.7651-3.816 5.0544-8.966 17.6473-15.833 31.6678-2.29 4.5786-6.677 7.917-13.545 9.2509-4.105-.1911-8.205-.5714-9.828-4.3857zm91.476-38.9196v-3.05365h-35.771l-.093 44.16515h36.244v-2.383h-29.378l.097-18.8893h22.895l.094-2.8607-23.086-.0955.097-16.8812zm22.32-2.19379v43.30529h28.52c14.024 0 23.753-33.3857 0-43.30529zm7.443 3.14729v37.2973h18.218c12.496 0 10.873-37.2973-.573-37.2973zm-22.989-3.52945v43.40085l7.439.1911v-43.49642zm89.093-1.71605c14.118 0 25.467 10.6839 25.467 23.7509 0 13.0687-11.351 23.7527-25.467 23.7527-14.024 0-25.471-10.6821-25.471-23.7527-.001-13.067 11.447-23.7509 25.471-23.7509zm.189 2.5759c9.826 0 17.932 9.3482 17.932 20.7946 0 11.4465-8.106 20.7947-17.932 20.7947-9.921 0-17.936-9.3482-17.936-20.7947 0-11.4464 8.015-20.7946 17.936-20.7946z" fill="#000" fill-rule="evenodd"/></svg>