<svg fill="none" height="36" viewBox="0 0 184 36" width="184" xmlns="http://www.w3.org/2000/svg"><rect fill="#0a0a0a" height="30" rx="8" width="30" y="3"/><path clip-rule="evenodd" d="m16.8978 24.5245c1.1263-.3908 2.0719-1.0251 2.8144-1.8123.7872-.7424 1.4215-1.6881 1.8123-2.8144l2.9755-11.3978-11.3978 2.9755c-1.1263.3908-2.072 1.0251-2.8144 1.8123-.78719.7424-1.4215 1.6881-1.81231 2.8144l-2.97549 11.3978zm1.1022-9.0245c0-.5523-.4477-1-1-1s-1 .4477-1 1v2.1492l-1.3287-1.6609c-.8858-1.1072-2.6713-.4808-2.6713.9371v3.5746c0 .5523.4477 1 1 1s1-.4477 1-1v-2.1492l1.3287 1.6609c.8858 1.1072 2.6713.4808 2.6713-.9371z" fill="#fff" fill-rule="evenodd"/><path d="m43.207 24v-11.339h2.346l5.831 7.854-.816 1.7v-9.554h2.533v11.339h-2.074l-5.933-7.752.646-1.241v8.993zm15.7528.255c-1.4507 0-2.5444-.3853-3.281-1.156-.7254-.782-1.088-1.9267-1.088-3.434 0-1.6207.3683-2.7823 1.105-3.485.748-.714 1.836-1.071 3.264-1.071.9633 0 1.768.1643 2.414.493.6573.3173 1.1503.8103 1.479 1.479.34.6687.51 1.53.51 2.584 0 1.5073-.3797 2.652-1.139 3.434-.7594.7707-1.8474 1.156-3.264 1.156zm0-2.023c.4193 0 .765-.0963 1.037-.289.2833-.204.493-.493.629-.867.1473-.3853.221-.8557.221-1.411 0-.6347-.0737-1.1333-.221-1.496-.136-.374-.3457-.6403-.629-.799-.2834-.17-.629-.255-1.037-.255-.4307 0-.782.085-1.054.255s-.476.442-.612.816c-.1247.3627-.187.8557-.187 1.479 0 .8613.1473 1.5073.442 1.938.306.4193.7763.629 1.411.629zm5.8113 1.768v-7.701c.1587-.136.442-.289.85-.459.408-.1813.8727-.34 1.394-.476.5327-.1473 1.0653-.221 1.598-.221s.952.0397 1.258.119.5383.1813.697.306v1.853c-.1927-.0453-.4363-.0793-.731-.102s-.6007-.034-.918-.034c-.3173-.0113-.6177-.0113-.901 0s-.5213.034-.714.068v6.647zm10.4505.34c-.9973 0-1.7397-.2323-2.227-.697-.4873-.476-.731-1.1447-.731-2.006v-4.301h-1.258v-1.938h1.258v-2.363h2.652v2.363h1.887v1.938h-1.887v3.978c0 .2947.0623.5157.187.663.1247.136.3343.204.629.204.17 0 .357-.034.561-.102s.374-.153.51-.255v2.176c-.238.1247-.4987.2097-.782.255-.272.0567-.5383.085-.799.085zm3.1634-.34v-12.002h2.55v5.1l-1.071-.578c.4534-.3967.986-.7197 1.598-.969.6234-.2607 1.258-.391 1.904-.391.6234 0 1.173.102 1.649.306s.8444.5383 1.105 1.003c.272.4533.408 1.0823.408 1.887v5.644h-2.533v-5.117c0-.5667-.1416-.9747-.425-1.224-.272-.2607-.6743-.391-1.207-.391-.272 0-.544.0397-.816.119-.2606.068-.4646.1587-.612.272l-.034 6.341zm13.5099 0 4.284-11.339h3.009l4.0121 11.339h-2.822l-3.6211-10.693 1.343-.119-3.604 10.812zm2.414-2.448.561-2.023h5.1511l.255 2.023zm13.8321 2.703c-.669 0-1.286-.0737-1.853-.221-.555-.1473-1.037-.391-1.445-.731-.408-.3513-.731-.8273-.969-1.428-.227-.6007-.34-1.3487-.34-2.244 0-1.394.34-2.4933 1.02-3.298.691-.8047 1.723-1.207 3.094-1.207.181 0 .419.017.714.051.295.0227.601.0907.918.204s.601.306.85.578l-.51.782v-4.879h2.516v9.894c0 .4193-.113.7877-.34 1.105-.227.306-.533.561-.918.765-.374.204-.799.357-1.275.459-.476.1133-.963.17-1.462.17zm.102-2.125c.408 0 .737-.051.986-.153.261-.1133.391-.2777.391-.493v-3.961c-.204-.1133-.425-.1983-.663-.255-.227-.068-.448-.102-.663-.102-.476 0-.878.0793-1.207.238s-.578.425-.748.799c-.159.374-.238.8783-.238 1.513 0 .4987.068.9293.204 1.292.136.3513.357.629.663.833.317.1927.742.289 1.275.289zm8.677 1.87-3.587-8.602h2.754l2.601 6.63-.612.017 2.312-6.647h2.669l-3.587 8.602zm10.707.255c-.861 0-1.626-.1757-2.295-.527-.657-.3627-1.173-.8727-1.547-1.53-.363-.6687-.544-1.462-.544-2.38 0-1.496.368-2.652 1.105-3.468.748-.8273 1.813-1.241 3.196-1.241.952 0 1.717.204 2.295.612.589.408 1.02 1.003 1.292 1.785s.402 1.734.391 2.856h-6.545l-.272-1.615h4.726l-.374.799c-.011-.918-.142-1.564-.391-1.938s-.657-.561-1.224-.561c-.317 0-.606.0793-.867.238-.249.1587-.448.425-.595.799-.136.3627-.204.867-.204 1.513 0 .816.193 1.445.578 1.887.397.442 1.026.663 1.887.663.317 0 .629-.034.935-.102.317-.0793.612-.17.884-.272s.504-.1927.697-.272v2.176c-.408.17-.867.306-1.377.408-.499.1133-1.082.17-1.751.17zm5.313-8.126c.215-.1133.498-.2267.85-.34.351-.1247.736-.2323 1.156-.323.419-.0907.838-.1643 1.258-.221.43-.0567.827-.085 1.19-.085.77 0 1.428.102 1.972.306.544.1927.957.51 1.241.952.294.442.442 1.0427.442 1.802v5.78h-2.533v-5.27c0-.2153-.034-.4137-.102-.595-.057-.1813-.148-.3343-.272-.459-.125-.136-.295-.238-.51-.306-.216-.0793-.476-.119-.782-.119-.261 0-.522.034-.782.102-.261.0567-.459.119-.595.187v6.46h-2.533zm13.538 8.211c-.997 0-1.74-.2323-2.227-.697-.487-.476-.731-1.1447-.731-2.006v-4.301h-1.258v-1.938h1.258v-2.363h2.652v2.363h1.887v1.938h-1.887v3.978c0 .2947.062.5157.187.663.125.136.334.204.629.204.17 0 .357-.034.561-.102s.374-.153.51-.255v2.176c-.238.1247-.499.2097-.782.255-.272.0567-.538.085-.799.085zm7.21-.085c-.794 0-1.496-.1247-2.108-.374s-1.088-.629-1.428-1.139c-.34-.5213-.51-1.1957-.51-2.023v-5.321h2.533v5.117c0 .544.119.952.357 1.224.249.2607.64.391 1.173.391.544 0 .935-.1303 1.173-.391.238-.272.357-.68.357-1.224v-5.117h2.38v5.321c0 1.224-.352 2.1193-1.054 2.686-.703.5667-1.661.85-2.873.85zm5.824-.255v-7.701c.158-.136.442-.289.85-.459.408-.1813.872-.34 1.394-.476.532-.1473 1.065-.221 1.598-.221.532 0 .952.0397 1.258.119s.538.1813.697.306v1.853c-.193-.0453-.437-.0793-.731-.102-.295-.0227-.601-.034-.918-.034-.318-.0113-.618-.0113-.901 0-.284.0113-.522.034-.714.068v6.647zm10.525.255c-.861 0-1.626-.1757-2.295-.527-.657-.3627-1.173-.8727-1.547-1.53-.362-.6687-.544-1.462-.544-2.38 0-1.496.369-2.652 1.105-3.468.748-.8273 1.814-1.241 3.196-1.241.952 0 1.717.204 2.295.612.59.408 1.02 1.003 1.292 1.785s.403 1.734.391 2.856h-6.545l-.272-1.615h4.726l-.374.799c-.011-.918-.141-1.564-.391-1.938-.249-.374-.657-.561-1.224-.561-.317 0-.606.0793-.867.238-.249.1587-.447.425-.595.799-.136.3627-.204.867-.204 1.513 0 .816.193 1.445.578 1.887.397.442 1.026.663 1.887.663.318 0 .629-.034.935-.102.318-.0793.612-.17.884-.272s.505-.1927.697-.272v2.176c-.408.17-.867.306-1.377.408-.498.1133-1.082.17-1.751.17zm7.863 0c-.612 0-1.139-.068-1.581-.204-.431-.1247-.839-.2663-1.224-.425v-2.227c.238.1587.504.323.799.493.295.1587.618.289.969.391.363.102.742.153 1.139.153.408 0 .691-.068.85-.204.17-.1473.255-.323.255-.527 0-.1927-.085-.3457-.255-.459-.17-.1247-.391-.2267-.663-.306s-.561-.153-.867-.221c-.272-.0567-.544-.1417-.816-.255-.272-.1247-.516-.289-.731-.493s-.391-.4533-.527-.748c-.125-.306-.187-.6743-.187-1.105 0-.5553.108-1.0143.323-1.377.215-.374.499-.6743.85-.901s.731-.3853 1.139-.476c.408-.102.805-.1473 1.19-.136.703.0227 1.258.102 1.666.238.419.1247.799.289 1.139.493v1.989c-.385-.2153-.771-.4137-1.156-.595-.374-.1927-.805-.289-1.292-.289-.442 0-.759.068-.952.204s-.289.3173-.289.544c0 .2153.062.3853.187.51.136.1247.312.2267.527.306.215.068.453.136.714.204.283.068.572.153.867.255.306.0907.589.2267.85.408.272.17.487.4137.646.731.17.306.255.714.255 1.224-.011.6913-.198 1.2467-.561 1.666-.363.408-.833.7027-1.411.884-.567.17-1.184.255-1.853.255z" fill="#0a0a0a"/></svg>