<svg fill="none" height="36" viewBox="0 0 36 36" width="36" xmlns="http://www.w3.org/2000/svg"><rect fill="#0a0a0a" height="30" rx="8" width="30" y="3"/><path clip-rule="evenodd" d="m16.8978 24.5245c1.1263-.3908 2.0719-1.0251 2.8144-1.8123.7872-.7424 1.4215-1.6881 1.8123-2.8144l2.9755-11.3978-11.3978 2.9755c-1.1263.3908-2.072 1.0251-2.8144 1.8123-.78719.7424-1.4215 1.6881-1.81231 2.8144l-2.97549 11.3978zm1.1022-9.0245c0-.5523-.4477-1-1-1s-1 .4477-1 1v2.1492l-1.3287-1.6609c-.8858-1.1072-2.6713-.4808-2.6713.9371v3.5746c0 .5523.4477 1 1 1s1-.4477 1-1v-2.1492l1.3287 1.6609c.8858 1.1072 2.6713.4808 2.6713-.9371z" fill="#fff" fill-rule="evenodd"/></svg>