<svg fill="none" height="638" viewBox="0 0 3569 638" width="3569" xmlns="http://www.w3.org/2000/svg"><g fill="#0052ff"><path d="m1819.14 572.315v56.417c0 .077-.01.153-.04.224s-.08.136-.13.19-.12.098-.19.127-.15.045-.22.045h-100.21c-.14 0-.27-.053-.36-.147-.1-.095-.15-.222-.15-.355v-628.105033c0-.464684.23-.6970265.69-.6970265l101.69-.0139405c.17 0 .33.0690303.45.191905.12.122875.19.289529.19.4633v240.195795c0 1.096.35 1.231 1.07.404 83.27-96.371 232.9-76.91 307.11 18.764 40.52 52.235 55.25 119.442 46.42 184.712-15.79 116.71-110.67 201.05-230.16 192.435-49.71-3.583-93.06-26.752-125.46-65.102-.47-.549-.7-.465-.7.251zm244.32-110.131c29.72-77.69-8.04-175.079-97.66-187.709-57.36-8.071-112.74 20.395-136.04 73.801-33.75 77.384 2.12 175.944 91.55 192.477 60.85 11.236 119.81-20.144 142.15-78.569z"/><path d="m1069.49 128.738c-43.19-17.76-52.04-79.0564-16.34-109.0286 22.95-19.251858 58.25-20.576209 82.92-3.8894 16.88 11.4173 26.74 31.1292 27.16 51.6636 1.03 50.7714-48.6 79.8374-93.74 61.2544z"/><path d="m0 415.596v-14.735c5.01859-149.708 138.081-247.18 282.616-217.5 88.244 18.122 153.305 83.935 169.657 172.514.006.04.004.081-.007.12-.01.039-.029.075-.054.106-.025.03-.057.054-.092.071-.035.016-.073.024-.112.023h-107.983c-.428 0-.711-.204-.851-.613-16.854-50.158-61.701-83.964-115.232-82.5-58.578 1.617-103.272 36.608-118.355 92.927-19.8518 74.08 13.118 157.487 93.945 174.159 61.924 12.77 120.111-19.516 139.558-80.506.14-.437.437-.655.893-.655l106.673.014c.557 0 .785.269.683.808-9.619 54.006-39.731 102.087-82.556 134.164-54.535 40.86-127.918 52.57-194.275 37.584-103.6622-23.407-171.31562-110.953-174.508-215.981z"/><path d="m814.253 619.517c-92.593 38.336-206.864 16.687-272.524-61.673-40.176-47.97-57.128-111.273-51.231-173.406 6.454-68.267 42.017-129.731 98.615-167.51 113.95-76.046 282.185-38.295 341.585 89.275 54.94 117.993 6.162 262.542-116.445 313.314zm-219.856-230.716c-8.629 69.298 29.261 138.639 102.282 151.784 32.202 5.8 65.367.433 92.955-17.007 76.603-48.415 79.433-171.524 7.793-225.349-27.491-20.646-62.565-28.689-96.538-23.768-59.973 8.699-99.187 55.581-106.492 114.34z"/><path d="m1335.52 243.15c37.2-54.354 100.87-71.263 164.13-63.303 99.5 12.532 141.64 95.952 141.69 186.817.06 87.416.07 174.777.05 262.082 0 .075-.02.149-.05.218-.03.07-.07.133-.12.186s-.12.095-.19.124c-.07.028-.14.043-.22.043h-102.03c-.28 0-.41-.139-.41-.418.02-85.595.01-171.264-.03-257.008-.01-14.712-2.88-28.973-8.62-42.783-18.47-44.429-62.95-62.858-108.89-54.048-48.13 9.243-78.84 47.635-84.16 96.162-.58 5.344-.87 14.628-.87 27.853 0 76.525-.01 153.054-.02 229.587 0 .437-.22.655-.65.655h-101.77c-.16 0-.31-.063-.42-.175-.12-.113-.18-.265-.18-.424v-441.65c0-.13.05-.254.14-.345.1-.092.22-.143.35-.143l101.11.014c.33 0 .5.162.5.488v55.859c0 .076.03.15.07.211.05.062.11.107.18.13.08.023.15.023.23-.001.07-.023.13-.069.18-.131z"/><path d="m2518.3 558.637c-.01-.109-.05-.211-.13-.29-.07-.08-.17-.133-.28-.152-.1-.019-.22-.002-.32.047-.1.05-.18.13-.23.228-22.5 46.7-65.13 71.459-115.69 77.091-78.7 8.755-165.21-19.252-179.25-107.844-2.38-15-1.95-31.143 1.3-48.43 13.28-70.72 83.74-98.545 146.19-108.15 29.14-4.489 58.4-6.12 87.1-13.355 20.83-5.242 45.74-16.074 46.31-41.557.88-39.73-42.27-51.496-73.8-52.444-43.28-1.297-87.52 15.069-95.13 63.513-.06.427-.31.641-.75.641h-100.68c-.47 0-.68-.237-.63-.711 6.33-47.677 30.17-90.836 70.75-117.296 33.17-21.607 72.77-30.264 112.84-31.561 41.86-1.352 84.06 3.848 120.51 23.824 50.27 27.547 72.42 78.193 72.48 133.802.07 67.026.11 134.052.1 201.078 0 .474.23.711.69.711h49.45c.13 0 .25.051.34.143.08.091.13.215.13.345v90.474c0 .372-.19.558-.57.558-20.25.037-40.54.004-60.86-.098-42.4-.195-76.22-27.073-79.87-70.567zm-96.31-117.63c-35.97 3.541-101.28 13.466-99.75 62.509.95 30.223 28.22 44.443 54.79 47.677 53.71 6.538 110.92-20.019 127.03-74.931 2.36-8.057 3.55-15.78 3.58-23.169.06-15.102.08-30.19.05-45.265 0-.743-.21-.813-.65-.209-18.39 25.818-55.55 30.488-85.05 33.388z"/><path d="m2831.76 542.217c29.16 12.602 64.92 13.327 95.75 7.82 28.4-5.088 54.52-21.9 49.1-54.772-3.79-23.03-27.63-34.377-48.41-37.542-28.2-4.312-56.44-8.457-84.71-12.435-60.64-8.545-124.51-34.182-138.64-101.278-19.22-91.408 48.32-148.857 130.63-162.254 101.69-16.547 218.36 18.109 232.57 136.98.04.381-.12.572-.5.572h-98.16c-.41 0-.66-.2-.75-.6-7.11-30.948-31.31-48.109-61.33-53.462-31.36-5.59-106.15-4.057-106 44.373.08 28.703 30.01 40.093 54.41 43.773 33.94 5.121 58.86 8.792 74.76 11.013 36.48 5.089 75.38 14.749 104.37 38.49 27.98 22.909 42.19 53.587 42.64 92.035 1.08 93.653-75.95 135.293-158.69 141.901-102.09 8.141-215.46-26.738-228.92-145.386-.05-.483.17-.725.66-.725l99.57-.014c.39 0 .61.191.69.572 4.71 24.182 18.36 41.162 40.96 50.939z"/><path d="m3568.78 386.695v46.534l-340.03.014c-.42 0-.61.214-.55.641 11.44 82.626 82.44 127.626 162.82 108.039 30.78-7.514 55.68-27.002 67.57-56.696.16-.399.45-.599.88-.599h105.85c.64 0 .88.311.72.934-10.94 42.082-33.18 76.649-66.71 103.703-73.43 59.234-187.69 64.057-267.8 16.604-83.3-49.35-120.07-140.451-106.33-235.01 13.9-95.66 83.59-169.991 178.71-188.197 129.17-24.703 252.17 52.137 263.7 188.546.43 5.148.82 10.311 1.17 15.487zm-237.51-117.379c-49.26 6.733-85.17 41.39-96.9 89.694-.11.446.07.669.53.669h227.55c.42 0 .59-.209.52-.628-10.82-65.409-68.92-98.322-131.7-89.735z"/><path d="m981.329 277.695-.014-90.655c0-.06.012-.12.035-.176.024-.056.057-.106.1-.149s.094-.077.149-.1c.056-.023.116-.035.176-.035h166.455c.06 0 .12.012.17.035.06.023.11.057.15.1s.08.093.1.149.04.116.04.176v441.817c0 .122-.05.24-.14.326s-.2.135-.32.135h-102.11c-.12 0-.23-.049-.32-.135s-.14-.204-.14-.326v-350.228c0-.122-.04-.239-.13-.325s-.2-.135-.33-.135l-63.411-.014c-.122 0-.239-.048-.325-.134-.086-.087-.135-.204-.135-.326z"/></g></svg>