<svg fill="none" height="2704" viewBox="0 0 12391 2704" width="12391" xmlns="http://www.w3.org/2000/svg"><path d="m9781.71 2290.01 520.19-2287.91322c.2-.60583.5-1.145783 1-1.527989s1.1-.5830032 1.7-.56800805h178.3c.4.00281431.8.09533595 1.2.27069905.4.175363.7.429168.9.742758.3.31359.5.67905.5 1.06949.1.39045.1.79605 0 1.18694l-520.18 2287.90933c-.14.61-.48 1.15-.97 1.53s-1.09.58-1.71.57h-178.33c-.4-.01-.8-.1-1.16-.27-.36-.18-.67-.43-.92-.75-.25-.31-.43-.68-.52-1.07s-.09-.79 0-1.18z" fill="#202124"/><path d="m1660.88 1319.06c.05-.43.01-.86-.12-1.26-.12-.41-.33-.79-.61-1.1-.28-.32-.62-.57-1-.74-.38-.18-.79-.26-1.2-.26h-643.73c-1 0-1.96-.39-2.66-1.08-.71-.69-1.11-1.63-1.11-2.61l.08-266.1c0-2.69 1.32-4.03 3.94-4.03h907.74c3.41 0 5.39 1.68 5.95 5.03 44.61 274.91-18.69 591.49-217.81 799.75-247.5 258.82-620.42 334.27-959.385 246.16-396.144-103.04-697.6321-445.78-744.33099-849.81-41.41701-358.245 120.56199-706.014 415.51099-916.871 384.239-274.6601 925.675-256.8863 1268.585 81.492 2.29 2.236 2.29 4.472 0 6.707l-186.97 186.041c-.8.791-1.87 1.241-3 1.256-1.12.016-2.21-.404-3.03-1.172-241.8-228.129-609.351-255.46-884.597-71.096-262.336 175.729-370.909 506.643-287.656 805.703 78.307 281.28 325.048 493.15 619.662 517.21 197.191 16.18 377.361-30.02 530.541-160.14 112.93-95.99 167.93-228.88 185.2-373.08z" fill="#202124"/><path d="m11415.6 2122.08c538.6 0 975.3-436.67 975.3-975.31 0-538.654-436.7-975.315-975.3-975.315-538.7 0-975.3 436.661-975.3 975.315 0 538.64 436.6 975.31 975.3 975.31z" fill="#008dff"/><path d="m9653.1 204.32v1884.56c0 .8-.32 1.56-.89 2.13-.56.57-1.33.88-2.13.88h-944.63c-.8 0-1.56-.31-2.13-.88s-.88-1.33-.88-2.13v-1884.56c0-.801.31-1.568.88-2.134s1.33-.884 2.13-.884h944.63c.8 0 1.57.318 2.13.884.57.566.89 1.333.89 2.134z" fill="#008dff"/><g fill="#202124"><path d="m6544.81 203.734h-275.66c-2.04 0-3.69 1.652-3.69 3.689v1878.517c0 2.04 1.65 3.69 3.69 3.69h275.66c2.04 0 3.69-1.65 3.69-3.69v-1878.517c0-2.037-1.65-3.689-3.69-3.689z"/><path d="m3149.38 1929.92c-278.01 293.6-785.92 255.12-1009.35-86.53-167.51-256.13-130.46-615.55 93.4-825.07 270.38-253.025 717.42-226.28 950.74 63.81 198.03 246.15 183.61 617.14-34.79 847.79zm-468.74-53.91c96.21-.17 188.41-41.35 256.32-114.49s105.95-172.24 105.77-275.5c-.09-51.13-9.56-101.74-27.87-148.95s-45.11-90.08-78.86-126.18c-33.75-36.09-73.79-64.7-117.84-84.19s-91.24-29.48-138.88-29.4c-96.21.17-188.42 41.35-256.32 114.49-67.91 73.13-105.96 172.23-105.78 275.5.09 51.13 9.56 101.74 27.88 148.95 18.31 47.2 45.11 90.08 78.86 126.18 33.75 36.09 73.79 64.7 117.84 84.19s91.24 29.48 138.88 29.4z"/><path d="m4587.65 1890.26c-285.73 356.4-885.18 304.42-1085.14-118.8-127.44-269.63-60.2-607.42 178.33-791.199 289.33-223.014 725.46-165.584 934.39 139.589 158.13 230.82 146.64 553.18-27.58 770.41zm-504.55-14.25c96.22 0 188.49-41.02 256.52-114.04 68.04-73.02 106.26-172.05 106.26-275.32 0-103.26-38.22-202.29-106.26-275.31-68.03-73.02-160.3-114.04-256.52-114.04-96.21 0-188.49 41.02-256.52 114.04s-106.25 172.05-106.25 275.31c0 51.14 9.38 101.77 27.61 149 18.23 47.24 44.95 90.16 78.64 126.32 33.69 36.15 73.68 64.83 117.69 84.4 44.02 19.57 91.19 29.64 138.83 29.64z"/><path d="m5803.67 1987.68c-.45-9.67-3.8-10.81-10.06-3.44-35.5 41.42-79.23 74.09-131.21 98.01-194.93 89.88-420.46 38.32-581.27-93.81-241.46-198.45-309.53-541.44-157.11-814.09 109.16-195.18 309.28-329.072 535.82-328.905 133.81.056 245.32 46.616 334.52 139.678 6.76 7.043 10.15 5.673 10.15-4.108v-93.65c0-.822.32-1.611.9-2.193.59-.582 1.38-.909 2.2-.909h264.35c1.9 0 2.85.951 2.85 2.851 0 385.216-.09 770.746-.26 1156.576-.08 285.3-115.95 552.67-413.49 634.16-316.92 86.78-630.57-45.61-764.63-349.95-.39-.93-.4-1.98-.02-2.92s1.11-1.7 2.04-2.11l239.02-99.43c3.19-1.34 5.45-.45 6.8 2.68 57.17 132.39 174.3 222.26 317.75 224.02 209.18 2.52 335.19-138.92 342.15-341.56 1.45-42.26 1.29-82.56-.5-120.9zm-202.73-866.99c-158.12-59.69-337.03 9.14-419.28 156.28-77.05 138-75.12 311.55 12.83 442.51 70.67 105.3 193.16 165.92 319.59 154.01 376.36-35.38 415.01-628.8 86.86-752.8z"/><path d="m7012.05 1680.24c-.19.07-.36.18-.51.33-.14.14-.26.31-.34.5-.07.18-.11.39-.11.59s.04.41.12.59c61.63 130.37 177.83 196.86 320.11 192.67 112.06-3.25 205.24-51.59 279.52-145.05 7.6-9.61 15.2-19.11 22.8-28.5 1.79-2.18 3.83-2.52 6.12-1.01l212.2 141.52c.39.26.72.6.98.99s.44.83.52 1.29c.09.46.08.94-.02 1.39-.1.46-.29.9-.56 1.28-158.29 232.15-441.67 332.93-711.97 257.89-309.45-85.85-483.33-377.87-452.9-691.85 29.43-303.92 247.16-544.537 557.87-565.246 164.41-10.899 313.82 41.166 431.61 158.626 94.49 94.32 144.88 198.45 187.47 318.34.5 1.57 0 2.66-1.51 3.27zm-45.19-215.05 564.16-234.25c2.91-1.23 3.69-3.27 2.35-6.12-21.63-46.28-53.91-79.45-96.84-99.52-134.73-62.96-275.66-27.08-375.68 75.96-66.96 68.86-99.49 156.06-97.59 261.58.05 2.57 1.26 3.36 3.6 2.35z"/></g></svg>