<svg fill="none" height="839" viewBox="0 0 2016 839" width="2016" xmlns="http://www.w3.org/2000/svg"><g stroke="#939ce2" stroke-width="5.03904"><path d="m433.434 571.377c23.356-.604 40.866 2.369 59.964-14.411 11.657-10.23 17.486-21.836 17.486-34.82 0-29.109 0-58.31 0-87.604-.001-.376.129-.74.369-1.03.239-.29.572-.487.941-.557 12.564-2.536 25.128-5.039 37.692-7.508 13.882-2.721 26.278-8.315 17.611-24.843-40.514-77.265-80.927-154.413-121.239-231.443-.159-.296-.393-.544-.677-.717s-.607-.265-.936-.265c-37.137-.034-74.283-.034-111.438 0-22.037.016-38.767 1.016-50.189 2.998-105.164 18.317-181.884 113.429-172.562 221.818 6.324 73.444 60.494 136.735 131.57 157.924.451.139.845.417 1.126.793s.434.831.436 1.298l-.025 117.082c0 .354.143.694.398.944.255.251.601.391.962.391l185.361-.025c.501 0 .982-.202 1.336-.561.355-.359.554-.846.554-1.354l.05-96.875c0-.806.403-1.218 1.21-1.235z"/><path d="m601.385 571.377c8.247-.101 16.486-.269 24.716-.504 29.554-.831 52.809-22.449 52.734-53.111-.051-27.916-.084-55.757-.101-83.522 0-.756.361-1.201 1.083-1.336 14.042-2.754 28.11-5.568 42.202-8.44 8.592-1.764 15.369-5.845 15.067-15.041-.084-2.974-1.797-7.643-5.14-14.009-39.439-75.35-78.911-150.718-118.417-226.102-.183-.342-.458-.628-.795-.827-.337-.2-.724-.306-1.12-.306l-73.696-.026c-.139.001-.275.038-.395.107s-.22.168-.291.287-.11.254-.113.393c-.004.138.028.275.093.397 39.842 76.04 79.659 152.054 119.451 228.042 8.642 16.503 1.537 24.389-15.294 27.891-12.933 2.705-25.816 5.249-38.649 7.634-.275.048-.524.193-.703.409-.18.217-.279.491-.28.776.067 27.664.193 55.345.378 83.043.227 31.948-25.447 54.346-56.664 54.195-6.87-.051-13.849-.067-20.937-.051-.857.017-1.285.454-1.285 1.311v97.48c0 .361.141.707.391.962.251.255.59.398.944.398l74.402-.025c.772 0 1.159-.386 1.159-1.159v-97.581c0-.84.42-1.268 1.26-1.285z"/><path d="m457.218 340.514c0-12.643-5.023-24.768-13.962-33.707-8.94-8.94-21.065-13.962-33.708-13.962-12.642 0-24.767 5.022-33.707 13.962-8.94 8.939-13.962 21.064-13.962 33.707s5.022 24.768 13.962 33.707c8.94 8.94 21.065 13.962 33.707 13.962 12.643 0 24.768-5.022 33.708-13.962 8.939-8.939 13.962-21.064 13.962-33.707z"/></g><path d="m399.042 0h41.244c6.853.806246 13.698 1.53691 20.534 2.19198 175.56 16.45242 323.078 144.46902 365.86 315.19202 59.586 237.893-96.523 475.232-337.263 516.401-8.046 1.377-22.214 3.115-42.505 5.215h-55.102c-22.155-2.1-41.269-4.804-57.344-8.113-173.62-35.853-309.1952-179.516-331.06465-357.898-1.09179-8.902-2.22557-17.813-3.40135-26.732v-53.212c1.15898-8.818 2.28436-17.62 3.37616-26.405 23.00324-184.932 165.28084-330.2077 347.49184-360.99628 10.717-1.81405 26.774-3.69529 48.174-5.64372zm34.391 571.377c23.356-.605 40.867 2.368 59.965-14.412 11.656-10.229 17.485-21.836 17.485-34.82 0-29.109 0-58.31 0-87.603-.001-.376.13-.741.369-1.03.239-.29.572-.487.941-.558 12.564-2.536 25.128-5.039 37.692-7.508 13.883-2.721 26.279-8.314 17.612-24.842-40.514-77.266-80.927-154.413-121.24-231.443-.159-.297-.392-.545-.676-.718s-.608-.265-.936-.265c-37.138-.034-74.284-.034-111.439 0-22.037.017-38.767 1.016-50.188 2.998-105.165 18.317-181.884 113.429-172.562 221.819 6.324 73.444 60.493 136.734 131.569 157.923.451.14.846.418 1.127.794s.433.83.435 1.297l-.025 117.082c0 .355.143.694.398.945.256.25.602.391.962.391l185.362-.025c.501 0 .981-.202 1.336-.561.354-.359.553-.846.553-1.354l.051-96.876c0-.806.403-1.218 1.209-1.234zm167.951 0c8.247-.101 16.486-.269 24.717-.504 29.554-.832 52.809-22.449 52.733-53.112-.05-27.916-.084-55.757-.101-83.522 0-.756.362-1.201 1.084-1.335 14.042-2.755 28.109-5.568 42.202-8.441 8.591-1.763 15.369-5.845 15.066-15.041-.084-2.973-1.797-7.643-5.139-14.009-39.439-75.35-78.912-150.717-118.418-226.101-.183-.342-.457-.628-.794-.828-.338-.2-.725-.305-1.121-.306l-73.696-.025c-.138.001-.274.038-.394.107s-.221.167-.292.286c-.07.119-.109.255-.113.393-.003.139.029.276.094.398 39.842 76.039 79.659 152.053 119.45 228.042 8.642 16.502 1.537 24.389-15.293 27.891-12.934 2.704-25.817 5.249-38.65 7.634-.274.047-.523.192-.703.409-.179.216-.278.491-.279.775.067 27.664.193 55.345.378 83.043.227 31.948-25.447 54.346-56.664 54.195-6.87-.05-13.849-.067-20.937-.05-.857.017-1.285.453-1.285 1.31v97.48c0 .361.14.707.391.962.25.255.59.399.944.399l74.401-.025c.773 0 1.159-.387 1.159-1.159v-97.581c0-.84.42-1.269 1.26-1.285z" fill="#2638c4"/><path d="m1901.21 669.79c-64.35 16.024-132 4.031-188.92-31.645-.74-.47-1.11-1.142-1.11-2.016v-97.48c0-1.025.39-1.209 1.16-.554 35.46 29.377 76.28 45.393 122.48 48.047 24.56 1.411 60.21-3.326 71.55-29.63 8.89-20.609.48-45.326-16.58-59.158-24.44-19.803-55.18-34.29-82.84-49.156-61.88-33.257-105.79-85.109-99.27-159.687 5.37-61.501 46.96-104.585 105.77-118.316 55.08-12.825 115.57-3.326 166.92 18.518.69.302 1.03.831 1.03 1.587v91.887c0 1.193-.51 1.487-1.54.882-38.09-22.273-95.31-39.682-139.35-28.546-41.6 10.506-41.9 54.724-13.86 79.365 10.35 9.087 21.61 16.931 33.79 23.532 69.19 37.516 145.43 69.136 154.09 159.158 7.59 78.71-39.18 134.769-113.32 153.212z" fill="#2638c4"/><path d="m432.224 572.612-.05 96.875c0 .508-.199.995-.554 1.354-.354.359-.835.561-1.336.561l-185.361.025c-.361 0-.707-.14-.962-.391-.255-.25-.398-.59-.398-.944l.025-117.082c-.002-.467-.155-.922-.436-1.298s-.675-.654-1.126-.793c-71.076-21.189-125.246-84.48-131.57-157.924-9.322-108.389 67.398-203.501 172.562-221.818 11.422-1.982 28.152-2.982 50.189-2.998 37.155-.034 74.301-.034 111.438 0 .329 0 .652.092.936.265s.518.421.677.717c40.312 77.03 80.725 154.178 121.239 231.443 8.667 16.528-3.729 22.122-17.611 24.843-12.564 2.469-25.128 4.972-37.692 7.508-.369.07-.702.267-.941.557-.24.29-.37.654-.369 1.03v87.604c0 12.984-5.829 24.59-17.486 34.82-19.098 16.78-36.608 13.807-59.964 14.411-.807.017-1.21.429-1.21 1.235zm24.994-232.098c0-12.643-5.022-24.768-13.962-33.708-8.94-8.939-21.065-13.962-33.707-13.962-12.643 0-24.768 5.023-33.708 13.962-8.939 8.94-13.962 21.065-13.962 33.708 0 12.642 5.023 24.767 13.962 33.707 8.94 8.94 21.065 13.962 33.708 13.962 12.642 0 24.767-5.022 33.707-13.962s13.962-21.065 13.962-33.707z" fill="#fff"/><path d="m600.124 572.662v97.581c0 .773-.386 1.159-1.159 1.159l-74.401.025c-.354 0-.694-.143-.944-.398-.251-.255-.391-.601-.391-.962v-97.48c0-.857.428-1.294 1.284-1.311 7.089-.016 14.068 0 20.938.051 31.217.151 56.89-22.247 56.664-54.195-.185-27.698-.311-55.379-.378-83.043.001-.285.1-.559.279-.776.18-.216.429-.361.703-.409 12.833-2.385 25.716-4.929 38.65-7.634 16.83-3.502 23.935-11.388 15.293-27.891-39.791-75.988-79.608-152.002-119.45-228.042-.065-.122-.097-.259-.094-.397.003-.139.042-.274.113-.393s.172-.218.292-.287.256-.106.394-.107l73.696.026c.396 0 .783.106 1.12.306.338.199.612.485.795.827 39.506 75.384 78.979 150.752 118.418 226.102 3.342 6.366 5.055 11.035 5.139 14.009.303 9.196-6.475 13.277-15.066 15.041-14.093 2.872-28.16 5.686-42.202 8.44-.723.135-1.084.58-1.084 1.336.017 27.765.051 55.606.101 83.522.076 30.662-23.18 52.28-52.733 53.111-8.231.235-16.47.403-24.717.504-.84.017-1.26.445-1.26 1.285z" fill="#fff"/><path d="m1036.91 512.722v157.369c0 .857-.43 1.285-1.29 1.285h-96.47c-.314 0-.615-.125-.837-.347s-.347-.523-.347-.837v-500.73c0-.755.378-1.133 1.134-1.133 56.723-.37 103.76-.362 141.12.025 111.26 1.083 184.65 71.781 177.5 185.008-6.75 106.777-97.46 157.621-195.74 157.521-7.83-.017-15.66.05-23.48.201-1.06.017-1.59.563-1.59 1.638zm-.48-259.435.91 172.285c0 .2.08.392.22.534s.33.221.53.221l38.45-.201c11.22-.059 22.33-2.213 32.67-6.339 10.35-4.125 19.74-10.142 27.64-17.706 7.89-7.564 14.14-16.527 18.38-26.378 4.25-9.85 6.4-20.396 6.34-31.033l-.05-11.792c-.05-10.637-2.32-21.158-6.67-30.963-4.34-9.805-10.69-18.701-18.66-26.181-7.98-7.479-17.43-13.396-27.82-17.412s-21.51-6.052-32.74-5.993l-38.45.202c-.2 0-.39.08-.53.221-.14.142-.22.334-.22.535z" fill="#2638c4"/><path d="m1575.61 399.924c-.41.302-.37.537.1.705 56.26 20.156 84.83 66.541 81.71 124.59-5.09 93.903-85.37 145.528-174.68 145.931-54.63.235-109 .311-163.12.227-.82 0-1.23-.412-1.23-1.235v-501.309c0-.167.07-.327.19-.445s.29-.184.46-.184c52.83-.101 105.71-.034 158.66.201 75.48.302 145.75 40.766 147.09 124.338.7 43.664-12.47 80.751-49.18 107.181zm-158.48-145.83.4 122.247c0 .092.02.182.06.266.03.085.08.161.15.224.07.064.14.113.23.146.08.033.18.048.27.044l49.58-.176c16.19-.062 31.69-6.256 43.1-17.217 11.41-10.962 17.78-25.795 17.72-41.236l-.02-7.155c-.06-15.44-6.54-30.224-18.03-41.101-11.49-10.876-27.03-16.955-43.22-16.899l-49.59.177c-.17.006-.34.081-.46.208s-.19.296-.19.472zm139.35 290.526c16.66-49.181-18.44-88.083-68.07-88.561-23.5-.236-46.95-.277-70.35-.126-.49 0-.73.243-.73.73v129.151c0 .149.03.296.09.434.05.137.13.262.24.368.1.105.22.188.36.245.13.057.27.087.42.087 18.81.084 37.72.075 56.71-.026 32.38-.201 69.95-8.717 81.33-42.302z" fill="#2638c4"/><path d="m409.548 388.183c26.327 0 47.669-21.342 47.669-47.669s-21.342-47.669-47.669-47.669-47.67 21.342-47.67 47.669 21.343 47.669 47.67 47.669z" fill="#2638c4"/></svg>