<svg fill="none" height="83" viewBox="0 0 976 83" width="976" xmlns="http://www.w3.org/2000/svg"><g fill="#fff"><path d="m206.674 41.3504c.02 5.4498-1.068 10.8501-3.201 15.8926-2.133 5.0424-5.269 9.6283-9.229 13.4958-3.96 3.8674-8.666 6.9407-13.85 9.0444s-10.745 3.1965-16.364 3.2161-11.187-1.0343-16.385-3.1018c-5.199-2.0674-9.927-5.1077-13.914-8.9475-3.986-3.8397-7.154-8.4035-9.322-13.431s-3.294-10.42-3.313-15.8698 1.069-10.8501 3.202-15.8926 5.269-9.6283 9.228-13.4958c3.96-3.86745 8.667-6.94075 13.851-9.04442 5.184-2.10366 10.744-3.1965017 16.363-3.21611077 5.62-.01962993 11.187 1.03435077 16.386 3.10177077s9.927 5.10778 13.913 8.94746c3.987 3.8398 7.155 8.4036 9.323 13.4311 2.168 5.0274 3.293 10.42 3.312 15.8698zm-43.218 28.6422c3.673.0577 7.322-.6222 10.739-2.0008 3.416-1.3785 6.533-3.4289 9.172-6.0339s4.749-5.7136 6.209-9.1485c1.46-3.4348 2.242-7.1285 2.301-10.8703.118-7.5567-2.715-14.8502-7.877-20.2761-5.162-5.4258-12.23-8.5394-19.649-8.656-3.674-.0577-7.323.6222-10.739 2.0007-3.417 1.3786-6.533 3.4289-9.172 6.0339-2.64 2.605-4.749 5.7137-6.21 9.1485-1.46 3.4349-2.241 7.1286-2.3 10.8703-.119 7.5568 2.714 14.8503 7.877 20.2761 5.162 5.4259 12.23 8.5395 19.649 8.6561z"/><path d="m429.576 74.9394c-.472-.2302-.838-.6338-1.018-1.1252-.181-.4915-.162-1.0322.051-1.5077l4.03-9.0092c.442-1.003 1.111-1.1881 2.006-.5552 8.06 5.7136 30.18 12.7884 38.867 3.9583 7.881-8.0062-.484-14.3825-8.167-16.4064-14.472-3.833-36.163-6.4122-35.428-26.7411.448-12.3407 9.296-19.43339 20.974-22.03048 12.06-2.67471 24.114-.889583 36.162 5.35537.274.14329.358.36419.251.66271l-4.102 11.0332c-.119.3104-.316.3761-.591.197-9.314-5.7315-25.362-9.58239-34.497-2.9553-2.436 1.7672-3.63 4.2867-3.582 7.5584.233 18.2513 46.748 6.3763 46.139 36.1443-.215 9.9048-6.072 17.0333-15.153 20.4185-13.397 4.9793-28.711 3.3135-45.942-4.9972z"/><path d="m13.881 31.2545v49.2014c0 .2985-.1493.4477-.4478.4477l-12.967515.018c-.123507 0-.241956-.0491-.329289-.1364-.0873327-.0874-.136396-.2058-.136396-.3293v-77.48286c0-.60897.304487-.90749.91346-.89555l9.92264.03583c.7642 0 1.3434.32836 1.7374.9851l30.1441 50.50888c.0492.08.1181.1464.1998.1925.0817.0462.1734.0704.2659.0704s.1825-.0242.2611-.0704c.0786-.0461.143-.1125.1867-.1925l29.7501-50.7059c.3224-.53733.7941-.806 1.415-.806h10.2809c.597 0 .8955.29852.8955.89555v77.46495c0 .2985-.1492.4477-.4478.4477h-12.9854c-.2985 0-.4478-.1492-.4478-.4477l.0538-50.2045c-.0017-.109-.0388-.2145-.1057-.3005-.067-.086-.1601-.1479-.2654-.1763-.1053-.0283-.2169-.0216-.318.0192s-.1862.1134-.2423.2069l-23.8753 40.0668c-.4526.7584-1.0935 1.387-1.8606 1.8246-.7671.4377-1.6343.6695-2.5175.6731-.8831.0036-1.7522-.2211-2.5229-.6525s-1.4167-1.0547-1.8754-1.8094l-23.6783-39.1175c-.6687-1.1224-1.003-1.0329-1.003.2687z"/><path d="m295.531 53.7864v-51.13577c0-.15676.062-.3071.173-.41794.111-.11085.261-.17312.418-.17312l13.612.03582c.157 0 .307.06228.418.17312.111.11085.173.26119.173.41794v77.60825c0 .0776-.015.1544-.045.2261-.029.0718-.073.1369-.128.1918s-.12.0984-.192.1281c-.071.0297-.148.045-.226.045l-11.337.0538c-.089.0014-.177-.0172-.258-.0544-.08-.0372-.152-.0921-.208-.1606l-42.539-51.8522c-.076-.0978-.181-.1691-.3-.2038-.12-.0346-.247-.0308-.364.0108s-.217.119-.288.2211c-.07.1022-.107.2239-.104.348v51.0821c0 .0776-.016.1545-.045.2262-.03.0717-.074.1368-.128.1917-.055.0549-.121.0984-.192.1281-.072.0298-.149.045-.226.045l-13.613-.0358c-.156 0-.307-.0623-.418-.1731s-.173-.2612-.173-.4179v-77.59033c0-.15676.062-.3071.173-.41795.111-.11084.262-.17312.418-.17312l11.374-.01791c.088-.00145.176.01712.257.05432.081.03721.152.09211.208.16061l42.503 51.85228c.077.0978.182.1691.301.2037s.246.0309.363-.0107.218-.119.288-.2212c.071-.1021.107-.2239.105-.348z"/><path d="m379.712 15.206v65.1422c0 .152-.06.2978-.167.4053-.108.1075-.254.1679-.406.1679l-13.648-.0359c-.152 0-.298-.0603-.405-.1678-.108-.1075-.168-.2533-.168-.4053l.018-65.1064c0-.152-.06-.2978-.168-.4052-.107-.1075-.253-.1679-.405-.1679h-24.753c-.152 0-.298-.0604-.405-.1679-.108-.1075-.168-.2533-.168-.4053l-.144-11.39133c0-.15201.061-.2978.168-.40528.108-.10749.253-.16788.406-.16788h65.625c.152 0 .298.06039.406.16788.107.10748.167.25327.167.40528l-.053 11.39133c0 .152-.061.2978-.168.4053-.108.1075-.253.1679-.405.1679h-24.753c-.152 0-.298.0604-.406.1679-.107.1074-.168.2532-.168.4052z"/><path d="m539.586 14.7224-.018 19.5409c0 .1425.056.2792.157.38.101.1007.238.1573.38.1573l36.968-.0179c.143 0 .28.0566.38.1574.101.1008.158.2374.158.38l-.036 11.0152c0 .1425-.057.2792-.157.3799-.101.1008-.238.1574-.38.1574h-36.933c-.142 0-.279.0566-.38.1574s-.157.2374-.157.38l.018 20.8841c0 .1425.056.2792.157.38s.238.1574.38.1574h43.237c.143 0 .279.0566.38.1573.101.1008.157.2375.157.38v10.9973c0 .1425-.056.2792-.157.38-.101.1007-.237.1574-.38.1574h-58.031c-.143 0-.28-.0567-.38-.1574-.101-.1008-.158-.2375-.158-.38v-77.73356c0-.1425.057-.27918.158-.37995.1-.10076.237-.15738.38-.15738h56.706c.142 0 .279.05662.38.15738.1.10077.157.23745.157.37995v10.99736c0 .1425-.057.2792-.157.3799-.101.1008-.238.1574-.38.1574l-41.912.0179c-.142 0-.279.0566-.38.1574s-.157.2374-.157.3799z"/><path d="m667.971 55.5599 17.535 25.2545c.006.0102.01.0219.01.0338s-.002.0238-.007.0345c-.006.0106-.014.0198-.023.0267-.01.0068-.022.0111-.033.0124l-15.081-.0179c-.172-.0004-.34-.0414-.489-.1194-.15-.0781-.278-.1908-.371-.3284l-15.225-22.0663c-.165-.2374-.386-.4314-.645-.5655s-.547-.2043-.841-.2046h-19.219c-.237 0-.465.0962-.633.2675s-.262.4036-.262.6459l.054 21.9051c0 .2985-.156.4478-.466.4478l-13.881.0537c-.061 0-.122-.012-.178-.0354-.057-.0234-.108-.0577-.151-.101-.044-.0432-.078-.0945-.101-.151-.024-.0565-.036-.1171-.036-.1783v-77.46488c0-.52538.263-.79405.788-.80599 16.968-.27463 28.921-.25672 35.858.05373 19.451.85973 33.87 15.17064 28.514 35.39204-2.077 7.8331-6.985 13.3497-14.722 16.5498-.693.2865-.824.7403-.395 1.3612zm-35.338-40.1743.143 29.4814c0 .0957.019.1903.057.2784.037.0881.091.1679.16.2347.068.0668.149.1191.238.1541.089.0349.184.0517.28.0493l19.415-.1075c4.403-.0263 8.616-1.5555 11.716-4.252 3.099-2.6964 4.831-6.3398 4.816-10.1305v-2.2926c-.007-1.8817-.446-3.7431-1.29-5.4776s-2.078-3.3081-3.63-4.6307-3.393-2.3682-5.416-3.0771c-2.023-.7088-4.189-1.0669-6.375-1.0538l-19.415.1075c-.187.0046-.365.0822-.495.216-.131.1339-.204.3135-.204.5004z"/><path d="m768.309 55.6135 17.499 25.1828c.006.0103.009.0219.01.0338 0 .012-.003.0238-.008.0345s-.013.0198-.023.0267c-.01.0068-.021.0111-.033.0124l-15.081.0179c-.37 0-.663-.1552-.878-.4656l-15.224-22.0664c-.358-.5134-.854-.7701-1.487-.7701h-19.2c-.238 0-.465.0962-.633.2675s-.263.4037-.263.6459l.054 21.9051c0 .2986-.155.4538-.466.4657l-13.899.0359c-.061 0-.121-.0121-.178-.0355-.056-.0234-.108-.0577-.151-.1009-.043-.0433-.077-.0946-.101-.1511-.023-.0565-.035-.1171-.035-.1782l.018-77.48286c0-.53733.268-.80599.806-.80599 15.702-.22687 27.648-.20896 35.839.05373 15.404.50151 28.121 9.45702 29.464 25.61272 1.003 11.9645-4.245 20.8423-15.744 26.6336-.525.2746-.621.6507-.286 1.1284zm-35.374-40.3714.143 29.8039c0 .0697.014.1388.041.203s.067.1223.117.1707c.05.0485.11.0864.175.1114s.134.0367.204.0343l19.738-.1075c4.36-.0262 8.533-1.5459 11.602-4.2256s4.784-6.3003 4.769-10.0673v-2.4001c-.008-1.8699-.442-3.7196-1.278-5.4432-.837-1.7236-2.058-3.2873-3.595-4.6016-1.538-1.3143-3.36-2.3534-5.364-3.0577-2.003-.7044-4.149-1.0602-6.313-1.0471l-19.72.1074c-.138 0-.27.0547-.367.1522-.098.0974-.152.2295-.152.3672z"/><path d="m871.512 62.9927h-38.706c-.129-.0006-.255.0363-.363.1063s-.194.17-.246.2877l-7.308 17.1229c-.052.1178-.137.2177-.245.2877s-.235.107-.364.1063l-13.701.0179c-.11-.0024-.216-.0317-.311-.0853-.095-.0537-.176-.1299-.234-.2221-.059-.0922-.094-.1973-.102-.3062-.008-.1088.011-.218.056-.3177l34.962-77.53658c.052-.11776.137-.21775.246-.28773.108-.06998.234-.10693.363-.10631l13.487.05373c.128-.00061.255.03633.363.10631s.193.16997.246.28773l34.998 77.44705c.044.0997.063.2089.055.3177-.008.1089-.043.214-.102.3062-.058.0921-.138.1684-.233.222-.095.0537-.202.083-.311.0854l-13.917.0538c-.129.0006-.255-.0364-.363-.1064-.109-.0699-.194-.1699-.246-.2877l-7.415-17.1587c-.053-.1177-.138-.2177-.246-.2877s-.235-.1069-.363-.1063zm-33.745-12.3944c-.035.0875-.048.1823-.038.2762.01.0938.043.1837.096.2616.053.078.125.1416.209.1853.083.0436.176.066.271.065l27.851-.0359c.095-.0007.189-.025.272-.0709.084-.0459.154-.1117.206-.1917.051-.08.082-.1715.089-.2664.008-.0948-.009-.19-.047-.2769l-13.989-32.598c-.043-.104-.117-.1928-.211-.2553-.094-.0624-.204-.0958-.317-.0958s-.223.0334-.317.0958c-.094.0625-.168.1513-.211.2553z"/><path d="m949.281 15.4031v64.7302c0 .2042-.081.4001-.225.5446-.145.1444-.341.2256-.545.2256h-13.254c-.205 0-.4-.0812-.545-.2256-.144-.1445-.225-.3404-.225-.5446v-64.7661c0-.1011-.02-.2013-.059-.2947s-.095-.1783-.167-.2499c-.071-.0715-.156-.1282-.25-.1669-.093-.0387-.193-.0586-.295-.0586l-24.358.0895c-.205 0-.401-.0811-.545-.2256-.145-.1444-.226-.3403-.226-.5445l-.018-11.05111c0-.20427.082-.40016.226-.5446.144-.14443.34-.22558.545-.22558h65.124c.101 0 .201.01993.295.05863.093.03871.178.09544.249.16695.072.07152.129.15642.167.24986.039.09345.059.1936.059.29474l-.018 10.99731c0 .2043-.081.4002-.225.5446-.145.1444-.341.2256-.545.2256h-24.395c-.204 0-.4.0811-.544.2256-.145.1444-.226.3403-.226.5446z"/></g></svg>