<svg fill="none" height="83" viewBox="0 0 357 83" width="357" xmlns="http://www.w3.org/2000/svg"><g fill="#000"><path d="m330.523 81.9579v-65.6214h-9.645v-15.59773h35.534v15.59773h-9.645v65.6214z"/><path d="m293.194 82.6958c-6.492 0-11.46-1.9535-14.906-5.8607-3.415-3.9379-5.122-9.614-5.122-17.0283v-38.5791c0-6.9528 1.692-12.22899 5.076-15.82848 3.415-3.59948 8.399-5.39922 14.952-5.39922s11.521 1.79974 14.905 5.39922c3.415 3.59949 5.123 8.87568 5.123 15.82848v38.5791c0 7.4143-1.723 13.0904-5.169 17.0283-3.415 3.9072-8.368 5.8607-14.859 5.8607zm.138-14.9517c2.461 0 3.692-2.3843 3.692-7.1528v-39.6405c0-3.9994-1.2-5.9991-3.599-5.9991-2.708 0-4.061 2.0459-4.061 6.1376v39.5943c0 2.5227.307 4.3378.923 5.4454.615 1.0767 1.63 1.6151 3.045 1.6151z"/><path d="m224.807 81.9579v-81.21913h22.012c5.907 0 10.199 1.44595 12.875 4.33784 2.708 2.86113 4.061 7.59889 4.061 14.21339v3.5533c0 3.8148-.692 6.9067-2.076 9.2756-1.354 2.3689-3.431 3.9225-6.23 4.6609 3.661.9229 6.107 3.0918 7.337 6.5067 1.262 3.3841 1.892 7.522 1.892 12.4136 0 5.2608-.492 9.8601-1.477 13.798-.984 3.9379-2.768 6.999-5.353 9.1833-2.584 2.1843-6.26 3.2765-11.029 3.2765zm15.875-50.6235h3.322c1.508 0 2.477-.5846 2.908-1.7536.43-1.1691.646-2.5689.646-4.1994v-8.1681c0-2.615-1.154-3.9225-3.461-3.9225h-3.415zm1.615 36.3178c4.215 0 6.322-1.9997 6.322-5.9991v-10.1524c0-2.3073-.354-4.1225-1.061-5.4454-.677-1.3536-1.969-2.0304-3.877-2.0304h-2.999v23.5351c.676.0615 1.215.0922 1.615.0922z"/><path d="m182.078 81.9579v-81.21913h32.488v15.69003h-15.967v15.8285h15.321v15.2748h-15.321v18.5973h17.029v15.8285z"/><path d="m156.147 81.9579v-81.21913h15.691v81.21913z"/><path d="m115.542 81.9579v-81.21913h16.244v67.37493h16.705v13.8442z"/><path d="m74.197 81.9579v-81.21913h16.2438v67.37493h16.7052v13.8442z"/><path d="m48.266 81.9579v-81.21913h15.69v81.21913z"/><path d="m0 81.9579v-81.21913h22.0122c5.9069 0 10.1986 1.44595 12.8751 4.33784 2.7073 2.86113 4.061 7.59889 4.061 14.21339v3.5533c0 3.8148-.6923 6.9067-2.0767 9.2756-1.3536 2.3689-3.4302 3.9225-6.2298 4.6609 3.661.9229 6.1068 3.0918 7.3374 6.5067 1.2613 3.3841 1.892 7.522 1.892 12.4136 0 5.2608-.4922 9.8601-1.4767 13.798s-2.7688 6.999-5.3531 9.1833c-2.5842 2.1843-6.2606 3.2765-11.0292 3.2765zm15.8746-50.6235h3.3226c1.5075 0 2.4766-.5846 2.9073-1.7536.4307-1.1691.6461-2.5689.6461-4.1994v-8.1681c0-2.615-1.1537-3.9225-3.4611-3.9225h-3.4149zm1.6152 36.3178c4.2148 0 6.3222-1.9997 6.3222-5.9991v-10.1524c0-2.3073-.3538-4.1225-1.0614-5.4454-.6768-1.3536-1.969-2.0304-3.8764-2.0304h-2.9996v23.5351c.6769.0615 1.2153.0922 1.6152.0922z"/></g></svg>