<svg fill="none" height="508" viewBox="0 0 312 508" width="312" xmlns="http://www.w3.org/2000/svg"><g fill="#fff"><path d="m280.891 45.32c-32.54-29.54-70.42-45.16-117.24-45.32-4.11.27-10.94.41-17.65 1.24-46.1703 5.63-83.5503 27.16-112.0003 63.64-22.75 29.28-33.900034 62.77-34.00003441 100.12-.09999999 40 11.06003441 77.32 39.06003441 107.29 6.79 7.27 54.13 55.46 80.1203 81.37 18 18 46.43 12.77 56.53-10.05 2.641-6.062 3.392-12.779 2.156-19.275-1.236-6.495-4.403-12.467-9.086-17.135-25.09-25.48-50.75-50.43-75.3303-76.4-21.47-22.7-29.13-50.44-24.3-81.19 8.46-53.88 61.4203-90.61 115.1303-80.23 19.563 3.7217 37.571 13.1958 51.72 27.21 17.59 17.08 45.29 11.79 55.24-10.61 5.31-12.04 3.36-28.22-10.35-40.66z"/><path d="m270.351 232.49c-26-27.88-52.74-52.42-80-78.64-8.67-8.95-31.23-11.15-44.61 2.24s-11.59 34-4.46 42.38c0 0 47.64 48.05 74.24 74.8 18.87 19 27.9 41.92 28.29 70.33-.36 3.81-.51 9.46-1.48 15-4.049 23.246-16.361 44.245-34.669 59.13s-41.379 22.652-64.961 21.87c-26-.68-48.5304-10.81-67.2604-29.2-3.1594-3.127-6.9063-5.599-11.0249-7.273s-8.5277-2.517-12.9733-2.479c-4.4456.037-8.8399.953-12.93 2.695-4.0901 1.743-7.7951 4.277-10.9018 7.457-13.29 13.2-13.61 34.29.17 47.57 8.2592 8.101 17.2622 15.406 26.89 21.82 35.4 23 74.3004 31.6 116.0904 25.1 49.4-7.68 87.94-32.86 115.06-74.67 20.39-31.42 28.74-66.21 25.31-103.7-3.3-35.92-16.22-68.11-40.78-94.43z"/></g></svg>