<svg fill="none" height="29" viewBox="0 0 376 29" width="376" xmlns="http://www.w3.org/2000/svg"><g fill="#fff"><path d="m24.0465 21.5222 7.7763-16.82325c2.7017-5.8268 5.1113-5.70997 7.2288.35048l7.6011 21.81767c.0198.0605.0262.1245.0188.1877-.0075.0632-.0287.1241-.062.1783-.0334.0542-.0781.1005-.1312.1356-.0531.0352-.1132.0583-.1761.0679l-2.6943.3286c-.2726.0312-.5471-.03-.7781-.1734s-.4047-.3604-.4924-.6152l-6.703-19.18901c-.4966-1.43114-1.0369-1.45305-1.621-.06571-2.4534 5.89982-5.1113 11.93832-7.9735 18.11562-.8616 1.8693-2.1102 2.5337-3.7458 1.9934-.3598-.1242-.6912-.3224-.9737-.5823-.2826-.2599-.5103-.5761-.6692-.9292l-8.6307-19.12325c-.4235-.92002-.7959-.90542-1.1172.04381l-6.37439 18.70704c-.36509 1.0807-1.12447 1.6283-2.27815 1.6429h-1.11716c-1.007645 0-1.343525-.4746-1.007645-1.4238l7.557305-21.48905c2.0883-5.95823 4.43214-6.06045 7.03154-.30667l7.7764 17.12992c.5111 1.1391 1.0296 1.1464 1.5553.0219z"/><path d="m82.6211 6.34196-13.9974 20.59094c-.1808.261-.4251.4709-.7092.6091s-.5982.2-.9118.1795l-2.6067-.1753c-.8616-.0584-1.0515-.4381-.5696-1.139l16.9109-24.70915c.3091-.45057.7237-.818712 1.2077-1.072371s1.0227-.385137 1.5691-.382977 1.084.137892 1.566.395369c.4819.257477.8936.628889 1.1992 1.081889l16.8447 25.08154c.047.072.074.1553.078.2412s-.015.1712-.055.2472c-.041.076-.101.1398-.174.1849s-.157.0697-.243.0714l-26.9871-.0219c-.1531.0034-.3031-.0386-.4318-.121-.1287-.0823-.2305-.2014-.2931-.3429-.0626-.1414-.0833-.2991-.0596-.454.0236-.1548.0907-.3001.193-.4183l.8105-.8762c.3309-.3722.7362-.6701 1.1893-.874s.9437-.3092 1.4394-.3089h15.8594c1.0514 0 1.2851-.4308.7009-1.2924l-10.9307-16.47273c-.5257-.80319-1.0587-.8105-1.5991-.02191z"/><path d="m172.761 7.72225-.022 18.81665c0 .8616-.431 1.2705-1.292 1.2266l-1.402-.0876c-.331-.0168-.643-.1604-.872-.401-.228-.2406-.355-.5597-.355-.8914v-24.07385c-.002-.45263.129-.89587.378-1.27421.248-.378342.603-.674955 1.019-.852693.416-.1777382.876-.2287015 1.321-.1465009.445.0822009.856.2939099 1.181.6086059l21.511 20.612848c.078.072.175.12.279.1381.105.0181.212.0055.309-.0362.098-.0418.181-.1109.24-.1989.059-.0881.091-.1914.092-.2973l-.022-18.46613c-.014-1.06606.504-1.694007 1.556-1.883852l.854-.153336c.181-.035611.368-.030646.547.014535.179.045182.345.129457.488.246763.142.117306.257.264727.335.43166.079.16692.12.34921.119.53374v23.83292c0 1.694-.847 2.5264-2.541 2.4972-.905-.0146-1.883-.5476-2.935-1.5991-6.455-6.4839-13.048-12.8292-19.78-19.03566-.672-.62795-1.008-.48191-1.008.43811z"/><path d="m364.432 24.1071c.169-.0035.331-.0588.467-.1585.135-.0998.236-.2394.291-.4005.054-.1611.059-.3362.014-.5022-.045-.1661-.139-.3154-.268-.4284l-6.134-5.2572c-1.095-.9492-.92-1.4166.526-1.402h2.256c1.037.0146 1.943.3651 2.717 1.0515l10.821 9.5726c.657.5841.548.8835-.329.8981-6.966.1314-13.888.1314-20.766 0-19.824-.3724-20.35-24.77483-2.76-26.943451 12.092-1.467652 27.272.657161 23.702 17.480351-.035.1663-.126.3156-.258.4232-.131.1075-.295.1669-.465.1683l-3.658.0219c-.057.0041-.114-.0066-.166-.0312-.052-.0245-.097-.0621-.131-.1096-.035-.0474-.058-.1033-.067-.1628-.009-.0594-.005-.1206.013-.1783 4.929-14.10701-8.105-14.4794-17.261-13.97558-13.297.76669-13.472 18.37848-.592 19.56138 4.264.3943 8.28.5184 12.048.3724z"/><path d="m143.693 15.4115-13.691.0438c-1.081 0-1.249-.3942-.504-1.1828l1.161-1.2048c.614-.6572 1.38-.9785 2.3-.9639l15.268.0219c.438 0 .657.2191.657.6572l.176 14.0632c0 .3797-.19.5768-.57.5914-10.996.3943-33.778 2.7601-31.741-15.3775 1.621-14.28218 22.716-11.741175 32.289-11.412596.686.014604.818.292068.394.832396l-1.665 2.081c-.232.29292-.529.52831-.867.68788-.338.15956-.709.239-1.082.23214-9.989-.24096-26.243-2.56291-24.403 11.17168 1.336 10.0545 13.801 8.7621 22.3 8.4554.73-.0292 1.088-.4016 1.073-1.1171l-.022-6.5278c0-.701-.358-1.0515-1.073-1.0515z"/><path d="m223.121 5.1159v6.6154c0 .1801.072.3528.199.4802.128.1273.3.1988.481.1988l21.291-.0438c.123-.0003.243.0326.349.0952.105.0627.192.1527.25.2605.059.1078.087.2294.082.3519-.006.1225-.044.2413-.111.3439l-1.227 1.9276c-.062.0945-.146.172-.246.2256-.099.0535-.21.0814-.323.0811l-20.044.0219c-.18 0-.352.0716-.48.1989-.127.1274-.199.3001-.199.4802l-.022 7.0973c0 .0892.018.1775.052.2599.034.0823.084.1572.147.2203.063.063.138.113.221.1472.082.0341.17.0517.26.0517l22.956.0219c.133-.0009.262.0369.373.1088.111.0718.199.1745.253.2955.053.121.07.255.049.3855-.022.1305-.081.2519-.171.3492l-1.906 2.0372c-.061.0669-.136.1208-.218.1584-.083.0377-.173.0583-.264.0607l-25.388.0438c-.18 0-.353-.0716-.48-.1989-.127-.1274-.199-.3001-.199-.4802v-25.67293c0-.1801.072-.352821.199-.48017s.3-.198894.48-.198894h26.966c.13-.001326.257.034711.367.103825.111.069115.199.168404.254.286062.055.117657.076.248737.059.377657-.017.12893-.071.25028-.155.34962l-2.125 2.4972c-.062.07359-.139.13313-.225.17467-.087.04155-.182.06414-.278.06629l-20.547.02191c-.181 0-.353.07154-.481.19889-.127.12735-.199.30007-.199.48017z"/><path d="m282.244 5.1816-.044 21.8395c0 .1065-.022.2119-.064.3094-.043.0976-.105.1853-.183.2574-.079.0721-.171.1271-.272.1616-.101.0344-.207.0474-.314.0383l-2.803-.2848c-.192-.0164-.371-.1044-.501-.2465-.129-.142-.201-.3277-.2-.5201l.022-21.5548c0-.20333-.081-.39834-.225-.54212s-.339-.22456-.542-.22456l-12.377.0219c-.131-.00048-.26-.03461-.374-.09912s-.21-.15724-.278-.26933c-.068-.11208-.106-.23978-.111-.37087s.024-.26118.084-.37784l1.205-2.343865c.064-.124919.162-.2298.281-.303196.12-.073396.258-.112487.398-.113005h30.142c.14-.001116.279.036454.399.108602.121.072147.219.176096.285.300472.066.124372.096.264392.087.404732-.008.14034-.056.2756-.136.39099l-1.577 2.32195c-.069.10633-.163.19398-.274.25514s-.235.09391-.361.09534l-11.501-.0219c-.203 0-.398.08078-.542.22456s-.224.33879-.224.54212z"/><path d="m318.561.579188-2.322.004053c-.545.00095-.985.443049-.984.987459l.044 25.1034c.001.5444.443.9849.987.984l2.322-.0041c.544-.0009.985-.443.984-.9874l-.044-25.1034c-.001-.5444-.443-.984962-.987-.984012z"/></g></svg>