<svg fill="none" height="78" viewBox="0 0 206 78" width="206" xmlns="http://www.w3.org/2000/svg"><path d="m.644737 59.8947v-16.5789h14.565763v16.4605c0 3.7895 4.9737 3.7895 4.9737 0v-58.26315h14.5658v58.38155c0 11.4869-5.6842 17.2895-17.0526 17.2895-11.36845 0-17.052663-5.8026-17.052663-17.2895zm40.355663 16.1053v-74.48685h24.9869v13.61845h-10.4211v16.8158h10.4211v13.6184h-10.4211v16.8158h10.4211v13.6184zm30.586 0v-74.48685h24.9868v13.61845h-10.4211v16.8158h10.4211v13.6184h-10.4211v16.8158h10.4211v13.6184zm29.0466-74.48685h14.566l2.96 60.86845h1.303l3.079-60.86845h14.566l-5.093 74.48685h-26.407zm41.377 74.48685v-74.48685h24.987v13.61845h-10.421v16.8158h10.421v13.6184h-10.421v16.8158h10.421v13.6184zm29.638-54.1184v-3.3158c.356-11.84212 5.329-18.236863 17.053-18.236863 11.369 0 17.053 5.802633 17.053 17.289463v10.4211h-14.566v-10.3027c0-3.7894-4.974-3.7894-4.974 0v4.7369c0 2.3684.711 4.2631 2.013 5.8026l10.185 9.7105c5.21 3.9079 7.579 9 7.579 17.6448v3.3158c-.119 11.8421-5.329 18.2368-17.171 18.2368-11.487 0-17.172-5.8026-17.172-17.2895v-10.421h14.566v10.3026c0 3.7895 4.974 3.7895 4.974 0v-4.7368c0-2.3684-.711-4.3816-2.132-5.9211l-10.184-9.7105c-4.855-3.9079-7.224-9.1184-7.224-17.5263z" fill="#000"/></svg>