<svg fill="none" height="473" viewBox="0 0 3705 473" width="3705" xmlns="http://www.w3.org/2000/svg"><g fill="#000"><path d="m3049.59 100.837c-9.53 12.333-11.25 26.56-7.28 41.401 5.28 19.683 34.79 28.191 51.71 32.892 32.37 8.994 64.88 17.408 97.54 25.244 39.4 9.456 75.54 27.823 98.56 61.364 15.73 22.946 19.71 47.593 18.45 74.925-3.4 73.433-60.1 117.412-127.66 130.096-66.64 12.508-153.67 6.105-206.39-42.383-31.49-28.969-46.72-66.171-45.68-111.606.02-.538.29-.807.83-.807h94.64c.56 0 .85.28.86.842.26 8.069.73 13.788 1.4 17.156 12.04 60.329 77.86 71.416 128.52 63.031 30.88-5.122 62.51-25.016 56.68-61.329-3.37-21.051-23.56-33.734-41.82-40.786-15.13-5.848-30.61-10.631-46.42-14.35-21.95-5.135-43.77-10.783-65.45-16.947-33.23-9.437-66.4-23.875-89.19-50.452-19.77-23.051-26.06-49.716-24.91-79.626 2.56-65.8901 55.39-109.6413 115.87-123.39476 40.47-9.20987 82.72-7.64856 122.82 2.29811 66.47 16.50755 112.06 65.24095 110.83 136.55165-.01.526-.28.789-.8.789h-94.65c-.56 0-.86-.28-.91-.842-3.1-39.909-24.84-60.5567-63.92-65.8195-28.14-3.7892-64.56-2.9121-83.63 21.7525z"/><path d="m99.5543 267.878v193.425c0 .172-.0683.337-.1901.459-.1217.121-.2868.19-.4589.19h-98.256232c-.172146 0-.337237-.069-.458962-.19-.1217258-.122-.190106-.287-.190106-.459v-450.4244c0-.1722.0683802-.3373.190106-.459.121725-.1217.286816-.1901.458962-.1901h98.256232c.1721 0 .3372.0684.4589.1901.1218.1217.1901.2868.1901.459v171.9354c0 .172.0684.337.1901.459.1218.121.2866.19.4586.19h180.707c.172 0 .337-.069.459-.19.122-.122.19-.287.19-.459l.018-171.9354c0-.1722.068-.3373.19-.459.121-.1217.286-.1901.459-.1901h98.238c.172 0 .337.0684.459.1901s.19.2868.19.459v450.4244c0 .172-.068.337-.19.459-.122.121-.287.19-.459.19h-98.256c-.172 0-.337-.069-.459-.19-.122-.122-.19-.287-.19-.459v-193.425c0-.172-.068-.337-.19-.459s-.287-.19-.459-.19h-180.707c-.172 0-.3368.068-.4586.19-.1217.122-.1901.287-.1901.459z"/><path d="m639.147 187.129c.06.106.147.194.251.256.105.061.224.093.346.093.121 0 .241-.032.345-.093.105-.062.192-.15.251-.256l103.73-176.2504c.257-.4328.637-.6491 1.14-.6491h109.15c.912 0 1.135.3859.667 1.1578l-166.55 276.5417c-.245.409-.368.854-.368 1.333v171.813c0 .584-.293.877-.877.877h-98.221c-.117 0-.228-.048-.31-.134-.083-.085-.129-.201-.129-.322-.047-49.494-.064-99.046-.053-148.656 0-7.813-.111-15.619-.333-23.42-.07-2.456-.748-4.748-2.035-6.876-54.37-90.415-108.694-180.859-162.971-271.3321-.397-.6549-.21-.9824.562-.9824h109.904c.491 0 .866.2105 1.123.6315z"/><path d="m996.859 301.068v160.007c0 .584-.292.877-.877.877h-98.256c-.293 0-.439-.152-.439-.456v-450.7929c0-.1303.052-.2552.144-.3473.092-.0922.217-.1439.347-.1439 66.756.0117 133.552.0526 200.392.1228 32.94.0351 62.8 4.526 91.87 20.8055 56.4 31.5767 75.2 95.4318 63.96 156.2698-13.91 75.31-75.79 112.904-148.38 112.746-35.95-.082-71.9-.076-107.866.018-.597 0-.895.298-.895.894zm81.841-78.626c32.31-.087 67.52-7.245 78.69-42.505 3.95-12.444 4.44-26.694 1.46-42.752-7.83-42.1019-48.37-49.1014-83.93-49.2067-25.68-.0818-51.41-.1286-77.201-.1403-.228 0-.447.0905-.608.2517s-.252.3799-.252.6079v133.3234c0 .118.046.232.127.317.082.085.194.135.312.14 27.112.046 54.242.035 81.402-.036z"/><path d="m1398.58 268.246v109.361c0 .153.06.301.17.409.11.109.26.17.41.17h241.81c.15 0 .3.061.41.169.11.109.17.256.17.41v82.608c0 .153-.06.301-.17.409-.11.109-.26.17-.41.17h-341.33c-.15 0-.3-.061-.41-.17-.1-.108-.17-.256-.17-.409v-450.5646c0-.076.02-.1513.05-.2215.03-.0703.07-.1341.12-.1879.06-.0537.12-.0964.19-.1254.07-.0291.15-.0441.22-.0441h336.07c.07 0 .15.015.22.0441.07.029.13.0717.19.1254.05.0538.09.1176.12.1879.03.0702.05.1455.05.2215v83.0467c0 .1536-.06.3008-.17.4094s-.26.1695-.41.1695h-236.55c-.15 0-.3.061-.41.1696s-.17.2558-.17.4093v94.8881c0 .154.06.301.17.409.11.109.26.17.41.17h217.25c.15 0 .3.061.41.169.11.109.17.256.17.41v76.029c0 .154-.06.301-.17.41-.11.108-.26.169-.41.169h-217.25c-.15 0-.3.061-.41.17-.11.108-.17.256-.17.409z"/><path d="m1980.67 216.689c3.21 1.193 6.41 2.363 9.59 3.509 54.42 19.437 75.49 71.065 70.61 125.553-7.38 82.959-84.61 115.535-157.5 115.851-73.09.304-146.18.421-219.28.351-.6 0-.89-.298-.89-.895v-450.3539c0-.1256.05-.2461.14-.3349.08-.0888.2-.1387.33-.1387 69.83-.0117 139.7-.0059 209.62.0175 54.24.0175 120.53 9.6484 140.65 69.2933 6.86 20.3144 7.91 46.7507 4.02 67.2057-6.09 31.963-28.37 55.154-57.33 69.013-.72.351-.71.66.04.929zm-96.61-23.577c26.73-.017 54.05-11.666 58.68-41.102 4.33-27.63-5.33-52.7508-34.58-60.1889-10.34-2.6313-20.86-3.9587-31.56-3.9821-30.78-.0585-61.62-.0351-92.53.0701-.58 0-.86.2866-.86.8596v103.4493c0 .223.09.437.24.595.16.158.38.247.6.247 33.34.058 66.68.076 100.01.052zm47.52 76.118c-11.61-5.392-23.06-8.093-34.35-8.105-37.9-.047-75.75-.053-113.55-.018-.13 0-.25.05-.33.139-.09.089-.14.209-.14.335v121.448c0 .165.03.33.09.483.07.153.16.292.28.41.11.117.25.21.41.273.15.064.31.097.48.097 33.59.046 67.26.035 101.01-.035 36.4-.088 72.35-8.824 76.12-52.067 2.24-25.788-4.76-51.224-30.02-62.96z"/><path d="m2202.91 94.9954v94.9226c0 .149.06.292.17.397.1.106.25.165.39.165h217.29c.15 0 .29.059.39.164.11.106.17.248.17.397v76.065c0 .149-.06.292-.17.397-.1.105-.24.164-.39.164h-217.29c-.14 0-.29.059-.39.165-.11.105-.17.248-.17.397v109.395c0 .149.06.292.17.397.1.106.25.165.39.165h241.85c.15 0 .29.059.39.164.11.106.17.248.17.397v82.643c0 .149-.06.292-.17.397-.1.106-.24.165-.39.165h-341.4c-.15 0-.29-.059-.4-.165-.1-.105-.16-.248-.16-.397v-450.5991c0-.1489.06-.2917.16-.397.11-.1053.25-.1644.4-.1644h336.57c.15 0 .29.0591.4.1644s.16.2481.16.397v83.0818c0 .1488-.05.2917-.16.3969-.11.1053-.25.1644-.4.1644h-237.02c-.14 0-.29.0592-.39.1644-.11.1053-.17.2481-.17.397z"/><path d="m2623.32 361.924-35.1 99.624c-.04.118-.12.219-.22.292-.1.072-.22.111-.34.112h-99.07c-.09 0-.19-.023-.27-.067-.09-.045-.16-.11-.22-.189-.05-.079-.09-.171-.1-.267s0-.194.03-.284l170.36-450.5296c.04-.1111.12-.2073.21-.276.1-.0688.21-.107.33-.1099h101.17c.12-.0007.24.0359.34.1049s.18.1671.22.281l168.5 450.5296c.03.09.05.188.03.284-.01.096-.04.188-.1.267-.05.079-.13.144-.21.189-.09.044-.18.067-.28.067h-102.31c-.12-.001-.24-.04-.34-.112-.11-.073-.18-.174-.22-.292l-33.82-99.624c-.04-.117-.12-.219-.22-.292-.1-.072-.22-.111-.34-.112h-167.47c-.12.001-.24.04-.34.112-.1.073-.18.175-.22.292zm26.61-75.872c-.03.104-.04.214-.03.323.02.109.06.212.12.302.07.089.15.162.25.212s.2.076.31.075h114.1c.11.001.22-.025.32-.075.09-.05.18-.123.24-.212.07-.09.11-.193.12-.302.02-.109.01-.219-.03-.323l-56.1-163.339c-.05-.131-.13-.245-.25-.325-.11-.081-.25-.125-.39-.127s-.27.038-.39.116c-.11.078-.2.189-.25.318z"/><path d="m3469.74 94.434h-133.82c-.17 0-.33-.0665-.45-.1849-.11-.1185-.18-.2791-.18-.4466v-82.9415c0-.0829.02-.165.05-.2417.03-.0766.08-.1462.13-.2048.06-.0587.13-.1052.21-.1369.08-.0318.16-.0481.24-.0481h368.45c.08 0 .16.0163.24.0481.08.0317.15.0782.21.1369.05.0586.1.1282.13.2048.03.0767.05.1588.05.2417v82.9415c0 .1675-.07.3281-.18.4466-.12.1184-.28.1849-.45.1849h-133.82c-.08 0-.16.0164-.24.0481-.07.0318-.14.0783-.2.1369s-.11.1283-.14.2049-.05.1587-.05.2417v366.2544c0 .168-.06.328-.18.447-.12.118-.28.185-.45.185h-98.29c-.08 0-.17-.017-.24-.048-.08-.032-.15-.079-.21-.137-.06-.059-.1-.128-.13-.205-.04-.077-.05-.159-.05-.242v-366.2544c0-.1675-.07-.3282-.19-.4466s-.28-.185-.44-.185z"/></g></svg>