<svg fill="none" height="67" viewBox="0 0 326 67" width="326" xmlns="http://www.w3.org/2000/svg"><g fill="#000"><g fill-opacity=".957"><path d="m15.1625 50.7835-.0307-34.9972c-.0002-.0417.0078-.083.0236-.1216s.039-.0737.0684-.1033l15.1317-15.1113c.0443-.044657.101-.075108.1627-.087474s.1256-.006087.1838.018036c.0581.024124.1077.065003.1425.117426s.0532.114018.0529.176942l-.0307 65.17887c.0003.0629-.0181.1245-.0529.1769s-.0844.0933-.1425.1175c-.0581.0241-.1221.0304-.1838.018s-.1183-.0428-.1627-.0875l-15.0703-15.0704c-.0294-.0296-.0527-.0647-.0685-.1033-.0157-.0386-.0238-.0799-.0235-.1216z"/><path d="m66.8453 31.7459-9.6822 10.6434c-.0532.0588-.0824.1354-.0818.2147l.0613 23.6995c0 .0841-.0334.1647-.0928.2241-.0595.0595-.1401.0929-.2241.0929l-15.1931-.0205c-.0841 0-.1647-.0334-.2241-.0928-.0595-.0595-.0929-.1401-.0929-.2241v-65.96615c0-.08406.0334-.164678.0929-.2241175.0594-.0594393.14-.0928325.2241-.0928325h15.1931c.084 0 .1646.0333932.2241.0928325.0594.0594395.0928.1400575.0928.2241175l-.0716 28.31065c0 .0416.0082.0828.0242.1213.0159.0384.0392.0734.0687.1028.0294.0294.0643.0528.1028.0687.0384.0159.0797.0241.1213.0241h9.6822c.0841 0 .1647-.0334.2242-.0928.0594-.0594.0928-.1401.0928-.2241l.0409-28.31065c0-.08406.0334-.164678.0928-.2241175.0595-.0594393.1401-.0928325.2241-.0928325l15.142.0102244c.0416 0 .0828.0081985.1213.0241266.0384.0159281.0734.0392745.1028.068706.0294.029431.0528.064371.0687.102825s.0241.079668.0241.12129l.0307 65.966128c0 .084-.0334.1647-.0928.2241-.0595.0594-.1401.0928-.2242.0928h-15.1726c-.084 0-.1646-.0334-.2241-.0928-.0594-.0594-.0928-.1401-.0928-.2241l-.0307-34.3327c.0005-.0642-.0186-.1271-.0547-.1802-.0361-.0532-.0875-.0941-.1474-.1174-.0598-.0232-.1254-.0278-.1879-.013s-.119.0483-.1621.0959z"/><path d="m93.5406 66.2216.1022-65.506014c0-.456678.1602-.524839.4806-.204483l14.8756 14.876097c.23.2295.358.5384.358.8588v34.1282c0 .3544-.126.6578-.378.91l-15.0806 15.0806c-.2385.2385-.3578.1908-.3578-.1432z"/></g><path d="m220.187 4.33545h-3.108c-2.857 0-5.174 2.31622-5.174 5.17341v2.33114c0 2.8572 2.317 5.1734 5.174 5.1734h3.108c2.857 0 5.173-2.3162 5.173-5.1734v-2.33114c0-2.85719-2.316-5.17341-5.173-5.17341z"/><path d="m117.22 6.44139c0-.40896.122-.44986.368-.12269l8.956 12.0645c.233.3118.358.6884.358 1.0735l.01 28.055c0 .334-.099.6373-.296.91l-9.11 12.2178c-.205.2795-.307.2454-.307-.1022z" fill-opacity=".957"/><path d="m9.84586 8.00602-.07157 53.45178c.00076.0695-.02068.1375-.06119.1941-.04052.0565-.098.0987-.16411.1204-.06611.0216-.1374.0216-.20352 0s-.12363-.0637-.16418-.1203l-9.1199264-12.2894c-.0406002-.0565-.06209054-.1246-.06134483-.1942l.01022413-28.8014c-.00074572-.0696.0207447-.1377.0613448-.1943l9.1812723-12.36094c.04055-.05652.09806-.09865.16418-.12027s.13741-.0216.20352.00006.12359.06382.16411.12037c.04051.05655.06195.12454.06119.1941z" fill-opacity=".957"/><path d="m164.087 39.4138v21.3991c0 .0443-.009.0882-.026.1292-.017.0409-.041.0781-.073.1094-.031.0313-.068.0562-.109.0731-.041.017-.085.0257-.129.0257h-10.685c-.089 0-.175-.0355-.238-.0988s-.099-.1491-.099-.2386l.02-52.16349c0-.08949.036-.1753.099-.23858.064-.06327.149-.09882.239-.09882l10.664.01023c.089 0 .175.03554.238.09882.063.06327.099.14909.099.23857v20.79587c0 .0895.036.1753.099.2386s.149.0988.238.0988l12.76.0102c.09 0 .175-.0355.239-.0988.063-.0633.099-.1491.099-.2386l.02-20.81629c0-.08949.036-.1753.099-.23858.063-.06327.149-.09882.238-.09882l10.633.01023c.09 0 .176.03554.239.09882.063.06327.099.14909.099.23857v52.15327c0 .0443-.009.0882-.026.1292-.017.0409-.042.0781-.073.1094s-.068.0562-.109.0731c-.041.017-.085.0257-.13.0257h-10.643c-.044 0-.088-.0087-.129-.0257-.041-.0169-.078-.0418-.109-.0731-.032-.0313-.057-.0685-.074-.1094-.017-.041-.025-.0849-.025-.1292v-21.3888c0-.0895-.036-.1754-.099-.2386-.063-.0633-.149-.0988-.239-.0988l-12.77-.0103c-.089 0-.175.0356-.238.0988-.063.0633-.099.1491-.099.2386z"/><path d="m299.199 45.1906c.3 5.1189 2.996 7.8828 8.087 8.2918 4.519.3612 8.302-1.1826 11.349-4.6315.096-.1091.194-.1125.297-.0103l5.654 6.1447c.056.059.088.1366.09.2179s-.027.1603-.08.2218c-3.388 3.8647-7.876 6.0595-13.465 6.5843-9.171.8588-17.77-1.8608-21.318-10.8376-2.689-6.8399-2.229-16.6857 2.086-22.7384 3.66-5.1325 9.127-7.5284 16.4-7.1876 13.117.6134 18.239 10.7558 17.657 22.5749-.014.3612-.205.5419-.573.5419l-25.407.0102c-.545 0-.804.2726-.777.8179zm.46-7.0853h14.989c.056 0 .112-.0111.164-.0327s.1-.0532.139-.0931c.04-.0399.072-.0872.093-.1393.022-.0521.033-.1079.033-.1643v-.7464c0-1.0191-.194-2.0281-.573-2.9696-.378-.9415-.932-1.797-1.631-2.5176s-1.528-1.2922-2.441-1.6822-1.892-.5907-2.88-.5907h-.797c-.988 0-1.967.2007-2.88.5907s-1.742.9616-2.441 1.6822-1.253 1.5761-1.631 2.5176c-.379.9415-.573 1.9505-.573 2.9696v.7464c0 .0564.011.1122.032.1643.022.0521.054.0994.094.1393.039.0399.087.0715.139.0931s.108.0327.164.0327z"/><path d="m213.102 52.1839v-21.1026c0-.095-.038-.186-.105-.2531s-.158-.1048-.253-.1048l-11.758-.0102c-.095 0-.186-.0377-.253-.1048s-.105-.1582-.105-.2531l.021-7.9032c0-.0949.037-.1859.104-.2531.068-.0671.159-.1048.253-.1048h22.79c.095 0 .186.0377.253.1048.067.0672.105.1582.105.2531v29.742c0 .0949.038.1859.105.253s.158.1048.253.1048l10.878-.0102c.095 0 .186.0377.253.1048s.105.1581.105.2531v7.893c0 .047-.009.0935-.027.1369s-.045.0829-.078.1161-.072.0596-.116.0776c-.043.018-.09.0272-.137.0272l-34.404.0103c-.095 0-.186-.0377-.253-.1049-.067-.0671-.105-.1581-.105-.253l.021-7.9032c0-.095.037-.186.104-.2531.068-.0671.159-.1048.253-.1048h11.738c.095 0 .186-.0377.253-.1048s.105-.1581.105-.253z"/><path d="m262.208 51.5908 8.629-29.241c.022-.0729.066-.1371.127-.183.061-.046.134-.0714.211-.0726h10.582c.057-.0002.114.0135.165.04.051.0266.096.065.129.1122s.054.1017.062.1589c.007.0571.001.1153-.019.1694l-13.721 38.3405c-.025.0692-.071.1289-.131.1709-.061.0421-.133.0646-.206.0643h-12.811c-.074.0003-.146-.0222-.206-.0643-.06-.042-.106-.1017-.131-.1709l-13.721-38.3507c-.02-.0541-.026-.1123-.019-.1694.008-.0572.029-.1117.062-.1589s.077-.0857.128-.1122c.052-.0265.108-.0402.166-.04l11.042.0204c.076.0012.15.0266.211.0726.06.046.105.1101.127.183l8.629 29.2308c.019.0779.063.1471.126.1966s.141.0763.221.0763c.081 0 .158-.0268.221-.0763s.108-.1187.127-.1966z"/></g></svg>