<svg width="1200" height="600" viewBox="0 0 1200 600" fill="none" xmlns="http://www.w3.org/2000/svg">
  <!-- Background -->
  <rect width="1200" height="600" rx="12" fill="#F5F7FA"/>
  
  <!-- Dashboard Cards -->
  <!-- Card 1: Analytics -->
  <g transform="translate(100, 100)">
    <rect width="280" height="200" rx="8" fill="white" stroke="#E2E8F0" stroke-width="1"/>
    <text x="20" y="30" font-family="sans-serif" font-size="16" font-weight="bold" fill="#1A202C">Analytics Overview</text>
    
    <!-- Chart -->
    <circle cx="140" cy="110" r="60" fill="none" stroke="#E2E8F0" stroke-width="8"/>
    <path d="M140 50 A60 60 0 0 1 193 140" stroke="#3B82F6" stroke-width="8" stroke-linecap="round"/>
    <text x="120" y="115" font-family="sans-serif" font-size="24" font-weight="bold" fill="#1A202C">78%</text>
    <text x="120" y="135" font-family="sans-serif" font-size="12" fill="#64748B">Completion</text>
  </g>
  
  <!-- Card 2: Revenue -->
  <g transform="translate(420, 100)">
    <rect width="280" height="200" rx="8" fill="white" stroke="#E2E8F0" stroke-width="1"/>
    <text x="20" y="30" font-family="sans-serif" font-size="16" font-weight="bold" fill="#1A202C">Revenue</text>
    
    <!-- Chart -->
    <line x1="40" y1="160" x2="240" y2="160" stroke="#E2E8F0" stroke-width="1"/>
    <path d="M40 120 L80 140 L120 90 L160 110 L200 70 L240 100" stroke="#10B981" stroke-width="2" fill="none"/>
    <path d="M40 160 L40 120 L80 140 L120 90 L160 110 L200 70 L240 100 L240 160 Z" fill="rgba(16, 185, 129, 0.1)"/>
    
    <text x="40" y="180" font-family="sans-serif" font-size="10" fill="#64748B">Jan</text>
    <text x="80" y="180" font-family="sans-serif" font-size="10" fill="#64748B">Feb</text>
    <text x="120" y="180" font-family="sans-serif" font-size="10" fill="#64748B">Mar</text>
    <text x="160" y="180" font-family="sans-serif" font-size="10" fill="#64748B">Apr</text>
    <text x="200" y="180" font-family="sans-serif" font-size="10" fill="#64748B">May</text>
    <text x="240" y="180" font-family="sans-serif" font-size="10" fill="#64748B">Jun</text>
  </g>
  
  <!-- Card 3: Tasks -->
  <g transform="translate(740, 100)">
    <rect width="280" height="200" rx="8" fill="white" stroke="#E2E8F0" stroke-width="1"/>
    <text x="20" y="30" font-family="sans-serif" font-size="16" font-weight="bold" fill="#1A202C">Tasks</text>
    
    <!-- Task list -->
    <g transform="translate(20, 50)">
      <rect width="240" height="30" rx="4" fill="#F8FAFC"/>
      <text x="10" y="20" font-family="sans-serif" font-size="12" fill="#1A202C">Design Homepage</text>
      <circle cx="220" cy="15" r="8" fill="#10B981"/>
      <path d="M215 15 L218 18 L225 11" stroke="white" stroke-width="1.5"/>
    </g>
    
    <g transform="translate(20, 90)">
      <rect width="240" height="30" rx="4" fill="#F8FAFC"/>
      <text x="10" y="20" font-family="sans-serif" font-size="12" fill="#1A202C">User Research</text>
      <circle cx="220" cy="15" r="8" fill="#E2E8F0"/>
    </g>
    
    <g transform="translate(20, 130)">
      <rect width="240" height="30" rx="4" fill="#F8FAFC"/>
      <text x="10" y="20" font-family="sans-serif" font-size="12" fill="#1A202C">Prototype Testing</text>
      <circle cx="220" cy="15" r="8" fill="#E2E8F0"/>
    </g>
  </g>
  
  <!-- Card 4: Users -->
  <g transform="translate(100, 340)">
    <rect width="280" height="160" rx="8" fill="white" stroke="#E2E8F0" stroke-width="1"/>
    <text x="20" y="30" font-family="sans-serif" font-size="16" font-weight="bold" fill="#1A202C">Active Users</text>
    
    <!-- User stats -->
    <text x="20" y="80" font-family="sans-serif" font-size="36" font-weight="bold" fill="#1A202C">12,456</text>
    <text x="20" y="100" font-family="sans-serif" font-size="12" fill="#10B981">↑ 12% from last month</text>
    
    <!-- Mini chart -->
    <path d="M20 130 L40 125 L60 128 L80 120 L100 122 L120 115 L140 118 L160 110 L180 105 L200 100 L220 95 L240 90" stroke="#3B82F6" stroke-width="2" fill="none"/>
  </g>
  
  <!-- Card 5: Upload -->
  <g transform="translate(420, 340)">
    <rect width="280" height="160" rx="8" fill="white" stroke="#E2E8F0" stroke-width="1"/>
    <text x="20" y="30" font-family="sans-serif" font-size="16" font-weight="bold" fill="#1A202C">Upload Files</text>
    
    <!-- Upload area -->
    <rect x="40" y="50" width="200" height="80" rx="4" stroke="#E2E8F0" stroke-width="1" stroke-dasharray="4 2" fill="none"/>
    <circle cx="140" cy="80" r="15" fill="#3B82F6"/>
    <path d="M140 70 L140 90 M130 80 L150 80" stroke="white" stroke-width="2"/>
    <text x="140" y="110" font-family="sans-serif" font-size="12" fill="#64748B" text-anchor="middle">Drop files here or click to upload</text>
  </g>
  
  <!-- Card 6: Calendar -->
  <g transform="translate(740, 340)">
    <rect width="280" height="160" rx="8" fill="white" stroke="#E2E8F0" stroke-width="1"/>
    <text x="20" y="30" font-family="sans-serif" font-size="16" font-weight="bold" fill="#1A202C">Upcoming Meetings</text>
    
    <!-- Calendar events -->
    <g transform="translate(20, 50)">
      <rect width="240" height="40" rx="4" fill="#F0F9FF"/>
      <text x="10" y="20" font-family="sans-serif" font-size="12" font-weight="bold" fill="#1A202C">Design Review</text>
      <text x="10" y="35" font-family="sans-serif" font-size="10" fill="#64748B">Today, 2:00 PM</text>
      <circle cx="220" cy="20" r="10" fill="#3B82F6"/>
      <text x="220" y="24" font-family="sans-serif" font-size="10" fill="white" text-anchor="middle">3</text>
    </g>
    
    <g transform="translate(20, 100)">
      <rect width="240" height="40" rx="4" fill="#F8FAFC"/>
      <text x="10" y="20" font-family="sans-serif" font-size="12" font-weight="bold" fill="#1A202C">Client Presentation</text>
      <text x="10" y="35" font-family="sans-serif" font-size="10" fill="#64748B">Tomorrow, 10:00 AM</text>
      <circle cx="220" cy="20" r="10" fill="#E2E8F0"/>
      <text x="220" y="24" font-family="sans-serif" font-size="10" fill="#64748B" text-anchor="middle">2</text>
    </g>
  </g>
</svg>