<svg fill="none" height="139" viewBox="0 0 656 139" width="656" xmlns="http://www.w3.org/2000/svg"><g fill="#fff"><path d="m48.9284 80.579-3.9317.9929c-1.0061.2648-1.9857.1721-2.9388-.278l-8.7372-4.0906c-1.6415-.7678-2.9918-.4236-4.0508 1.0326l-1.8269 2.4623c-.7413 1.0325-1.7474 1.5885-3.0183 1.668l-14.69427 1.0325c-1.53562.106-2.30343-.6221-2.30343-2.1842v-61.438c0-1.5357.76781-2.3564 2.30343-2.4623 11.72897-.7414 23.39167-.7149 34.98827.0794 22.6372 1.5489 23.5109 28.7531 14.2574 43.6063-.4765.7413-1.1384 1.337-1.9857 1.7871-1.3503.6884-2.171 1.0988-2.4623 1.2312-.4652.1989-.8683.5194-1.1671.9277-.2987.4084-.4821.8897-.5308 1.3933-.0488.5036.0389 1.0111.2538 1.4692s.5491.8499.9676 1.1343c6.4866 4.3686 9.7697 8.1018 9.8491 11.1995.0265.9266.5031 1.4297 1.4297 1.5091l2.0652.2383c1.4032.1589 2.2107.9267 2.4225 2.3034 6.2749 41.422-28.078 36.934-55.6397 37.053-1.3238 0-1.9857-.661-1.9857-1.985l.0794-29.8654c0-2.727 1.3503-4.2362 4.0509-4.5274l13.3043-1.39c2.7535-.2913 4.1303.9531 4.1303 3.7331v9.8492c0 3.2035 1.5753 4.5005 4.726 3.8915l2.7403-.556c2.9388-.5555 4.6862-2.2897 5.2422-5.2021.609-3.2036.609-6.4337 0-9.6903-.0831-.4176-.0453-.8514.1093-1.2518.1545-.4004.4195-.7511.7645-1.0119l2.1048-1.5886c1.5356-1.1914 1.3635-1.5488-.5163-1.0723zm-20.1748-40.9851v16.4417c0 .4529.1799.8873.5002 1.2075.3202.3203.7546.5002 1.2075.5002h3.6934c.8971 0 1.7853-.1818 2.6141-.5351.8287-.3532 1.5818-.871 2.2161-1.5238.6343-.6527 1.1374-1.4276 1.4807-2.2805.3433-.8528.52-1.7669.52-2.69v-5.7983c0-.9231-.1767-1.8372-.52-2.69-.3433-.8529-.8464-1.6278-1.4807-2.2806-.6343-.6527-1.3874-1.1705-2.2161-1.5237-.8288-.3533-1.717-.5351-2.6141-.5351h-3.6934c-.2243 0-.4463.0441-.6535.13-.2072.0858-.3955.2116-.554.3701-.1586.1586-.2844.3469-.3702.5541-.0859.2072-.13.4292-.13.6535z"/><path d="m99.3256 40.7482.0397 15.3694c0 .193.038.384.1118.5623.0739.1783.1821.3403.3186.4767.1364.1365.2983.2447.4763.3186.179.0738.37.1118.563.1118l24.067.0397c.389 0 .763.1548 1.039.4304.275.2756.43.6494.43 1.0391l.079 15.3297c.002.3699-.137.7267-.387.9991s-.594.4403-.963.4703l-47.7762 4.0112c-.2027.0164-.4067-.0093-.5989-.0758-.1923-.0664-.3687-.172-.518-.3101-.1493-.1382-.2684-.3058-.3495-.4923-.0812-.1865-.1228-.3879-.1221-.5913l-.0397-59.9685c0-.3898.1548-.7635.4303-1.0391.2756-.2756.6494-.4304 1.0391-.4304h47.578c.389 0 .763.1548 1.039.4304.275.2756.43.6493.43 1.0391l.278 19.3805c.006.1997-.03.3984-.104.584-.073.1855-.184.3541-.326.4953-.141.1413-.31.2522-.495.3261-.186.0739-.384.1092-.584.1038l-24.186-.0795c-.39 0-.763.1549-1.0391.4304-.2755.2756-.4303.6494-.4303 1.0391z"/><path d="m159.85 76.3322c1.377.3442 2.701.2912 3.972-.1589.333-.1204.691-.1592 1.043-.1132.351.046.687.1754.979.3775.291.2022.53.4711.696.7843.167.3133.256.6619.26 1.0166v19.2217c0 .5582.226 1.0936.628 1.4883.403.3948.948.6165 1.517.6165h15.727c.463 0 .908.1799 1.235.5.328.32.512.755.512 1.208l-.04 18.07c0 1.271-.635 1.906-1.906 1.906h-39.436c-1.324 0-1.986-.662-1.986-1.986 0-12.364-.013-24.649-.04-36.8545 0-1.0061.318-2.1976.954-3.5743.608-1.2709.238-2.0917-1.112-2.4623l-2.939-.8737c-1.086-.2913-1.629-1.0061-1.629-2.1446v-54.5674c0-.474.189-.9286.524-1.2637.335-.3352.79-.5235 1.264-.5235h19.857c1.271.0265 1.906.6752 1.906 1.946v54.5675c0 .8472-.384 1.4561-1.152 1.8268-.291.1589-.595.3177-.913.4766-.424.2118-.397.3839.079.5163z"/><path d="m205.442 72.4766-16.243-.1191c-.179 0-.351-.0711-.478-.1978-.126-.1266-.197-.2983-.197-.4774l.039-54.0114c0-.179.071-.3508.198-.4774s.298-.1977.477-.1977l21.565-.0397c.179 0 .351.0711.478.1977.126.1266.197.2983.197.4774v53.9717c-.001.1661.059.3268.169.4514.11.1245.262.2042.427.2238l3.932.5957c.165.0195.317.0992.427.2237.11.1246.17.2853.169.4514l-.199 25.3774c0 .1791.071.3508.198.4774.126.1267.298.1978.477.1978l18.388-.1192c.179 0 .351.0712.477.1978.127.1266.198.2983.198.4769l-.079 20.414c0 .179-.072.35-.198.477-.127.127-.299.198-.478.198h-41.183c-.179 0-.351-.071-.478-.198-.126-.127-.197-.298-.197-.477l.039-44.7584c-.001-.1661.059-.3268.169-.4513.11-.1246.262-.2043.427-.2238l11.358-1.3106c.179-.0105.347-.0918.466-.2258.119-.1341.18-.31.17-.489-.011-.1791-.092-.3466-.226-.4658s-.31-.1802-.489-.1697z"/><path d="m236.737 69.8588-5.48-51.3109c-.023-.1954-.004-.3934.056-.5808s.159-.3601.29-.5065.292-.2632.472-.3428.375-.12.572-.1187h20.373c.362-.0002.71.1408.969.3929.26.2522.411.5956.421.9573l1.033 48.2926c.016.3319-.088.6586-.292.9209-.204.2622-.495.4428-.82.5088l-15.966 3.0183c-.188.0338-.382.0282-.568-.0165-.187-.0446-.362-.1273-.515-.243-.153-.1156-.28-.2616-.374-.4288s-.152-.3521-.171-.5428z"/><path d="m275.419 42.691-1.708 22.1606c-.132 1.8533-1.125 2.7667-2.979 2.7403l-7.386-.0398c-1.827 0-2.648-.9134-2.463-2.7402l4.528-47.0615c.053-.503.331-.7545.834-.7545l21.406.0397c.37 0 .569.1853.595.556l4.091 46.148c.132 1.2973.755 2.2902 1.867 2.9785.556.3707 1.217.6487 1.985.834 1.059.2648 1.602.94 1.629 2.0255l.953 26.5291c0 .2383.119.3707.357.3972l1.271.0794c.159 0 .251-.0794.278-.2383l1.668-25.5363c.106-1.5356-.477-2.7403-1.747-3.614l-1.271-.834c-.414-.2792-.751-.6547-.98-1.092-.229-.4372-.343-.9222-.331-1.41l1.033-44.0828c.053-1.8269 1.006-2.7403 2.859-2.7403l17.594-.0795c.337-.003.672.0671.981.2055.308.1384.585.3421.81.5974.225.2554.395.5567.497.8838.102.3272.134.6728.094 1.0139l-5.123 43.924c-.185 1.5886.477 2.6741 1.986 3.2566l.993.3971c.454.171.84.4887 1.098.9046.258.4158.374.9071.332 1.3989l-4.806 46.1481c-.371 3.707-2.422 5.56-6.156 5.56h-19.658c-1.642 0-2.529-.821-2.661-2.462l-3.932-49.4844c-.106-1.3238-.807-1.9063-2.105-1.7475-.503.053-.992.0133-1.469-.1191-1.403-.4236-2.039-1.3635-1.906-2.8197.662-7.5457.225-14.8929-1.311-22.0414-.847-3.8656-1.43-3.8258-1.747.1191z"/><path d="m363.425 63.6236c.556-.0794.795-.3839.715-.9134-.026-.1324-.264-.1854-.715-.1589l-31.374 1.6283c-1.562.0794-2.343-.6619-2.343-2.224v-43.0503c0-1.2708.622-1.9063 1.867-1.9063h47.736c.636 0 .953.3045.953.9135l-.039 20.5322c0 .6355-.318.9532-.954.9532l-24.821-.1589c-.98 0-1.469.4898-1.469 1.4695v15.1311c0 1.059.516 1.615 1.548 1.668 7.308.3442 14.88.1721 22.717-.5163.9-.0794 1.509.0794 1.827.4766.318.3971.41.9002.278 1.5091-.185 1.0061-.728 1.2841-1.628.834-1.748-.8472-3.548-.9531-5.402-.3177-2.197.7413-2.144 1.1914.159 1.3503 3.945.2383 7.731 1.1649 11.359 2.78.926.3971 1.39 1.112 1.39 2.1446v13.6617c.026 1.3238-.636 1.9857-1.986 1.9857h-24.822c-.263 0-.515.1046-.702.2908-.186.1862-.29.4387-.29.7021v16.0445c0 .7678.383 1.1517 1.151 1.1517l25.775-.0794c.556 0 .834.278.834.8337l.079 19.818c0 .284-.113.557-.314.758s-.474.314-.758.314l-47.578.04c-1.376 0-2.065-.702-2.065-2.105l.04-49.5238c0-1.2709.609-1.9857 1.827-2.1446z"/><path d="m424.864 41.3009.079 16.1637c.001.391-.145.7679-.411 1.0552-.265.2872-.629.4636-1.019.4937l-20.73 1.7077c-.21.0162-.421-.0105-.621-.0785-.199-.068-.382-.176-.538-.3172s-.282-.3128-.369-.5043c-.088-.1914-.136-.3987-.14-.6091l.039-17.9112c0-.4108-.163-.8047-.453-1.0952-.291-.2905-.685-.4536-1.096-.4536l-12.549.0397c-.411 0-.805-.1632-1.096-.4537-.29-.2905-.453-.6844-.453-1.0952l.04-19.6983c0-.4108.163-.8047.453-1.0952.291-.2904.685-.4536 1.095-.4536l53.098-.0397c.411 0 .805.1631 1.096.4536.29.2905.453.6844.453 1.0952l.08 19.7777c0 .4108-.163.8048-.454 1.0952-.29.2905-.684.4537-1.095.4537l-13.86-.0794c-.411 0-.805.1631-1.096.4536-.29.2905-.453.6844-.453 1.0952z"/><path d="m463.744 57.4282c-4.078-.8208-7.97-.7017-11.676.3574-.436.1224-.895.1424-1.34.0583-.445-.084-.864-.2697-1.226-.5427-.361-.273-.655-.6258-.857-1.0309-.203-.4051-.309-.8515-.31-1.3044l.039-36.8152c0-.7678.371-1.1517 1.112-1.1517h20.255c.979 0 1.469.4898 1.469 1.4695l-.04 37.2122c0 1.0061.503 1.5886 1.509 1.7475 15.012 2.4623 25.894-1.5092 39.794-1.7077 1.297-.0265 1.946.6089 1.946 1.9062v62.5503c0 .768-.384 1.151-1.152 1.151l-20.611-.119c-.556 0-.834-.291-.834-.873l.079-37.9275c0-.9267-.476-1.3901-1.43-1.3901l-12.986.0795c-.927 0-1.39.4633-1.39 1.39v37.4111c0 .847-.424 1.271-1.271 1.271l-20.532.278c-.337 0-.661-.134-.899-.373-.238-.238-.372-.561-.372-.898l-.04-59.0554c-.001-.5844.22-1.1474.618-1.5751s.944-.688 1.527-.7283l8.578-.556c.11.0158.218-.0129.3-.08.082-.067.131-.1667.136-.2773s-.033-.223-.108-.3124c-.074-.0894-.178-.1485-.288-.1643z"/><path d="m486.5 53.7712v-34.9486c0-.4845.192-.9492.535-1.2918s.807-.535 1.292-.535l19.222-.0397c.239 0 .477.0472.699.139.221.0918.423.2264.592.396.17.1697.305.3711.396.5927.092.2216.139.4592.139.6991v33.638c.001.4646-.175.9121-.492 1.2514-.317.3394-.752.5452-1.215.5755l-19.222 1.3503c-.25.0163-.5-.0189-.736-.1034-.235-.0844-.451-.2164-.634-.3877-.182-.1713-.327-.3782-.426-.608-.1-.2298-.151-.4775-.15-.7278z"/><path d="m535.071 52.9007c-3.839-.556-6.844-.6222-9.015-.1985-2.463.503-3.694-.5031-3.694-3.0183l.04-28.8326c0-2.5682 1.271-3.8523 3.812-3.8523h44.798c.662 0 .993.331.993.9929v20.4925c0 .5825-.291.8738-.874.8738l-22.716-.0795c-1.43-.0264-2.185.6752-2.264 2.1049l-.596 10.4051c-.079 1.0591.411 1.4562 1.47 1.1915.397-.1324.82-.2516 1.27-.3575.265-.0572.539-.0586.804-.004.265.0545.516.1638.736.3207.221.157.406.3583.544.591.139.2326.227.4916.26.7603l.357 3.2963c.132 1.1914.808 1.7872 2.025 1.7872l22.717-.1192c.768 0 1.152.3972 1.152 1.1915v19.9365c0 .2739-.105.5365-.291.7302-.186.1936-.439.3024-.702.3024h-23.908c-.274 0-.537.1088-.73.3024-.194.1937-.303.4563-.303.7302v15.9254c0 .7943.397 1.1914 1.192 1.1914l23.828-.0397c.609 0 .914.2912.914.8737l.04 19.778c0 .284-.118.557-.326.758-.209.201-.492.314-.786.314h-46.546c-1.35 0-2.025-.675-2.025-2.025v-61.7561c0-1.3503.675-2.1181 2.025-2.3034l5.838-.7943c.195.0052.38-.0671.515-.2012.134-.134.206-.3188.201-.5137-.005-.1948-.088-.3838-.229-.5253-.142-.1415-.331-.224-.526-.2293z"/><path d="m631.497 48.2118c4.448-.1588 8.83-.1588 13.145 0 1.297.053 1.946.7281 1.946 2.0255.027 11.067-4.183 19.738-12.629 26.0128-1.297.9796-1.668 2.2372-1.112 3.7729l14.655 40.509c.158.423.013.635-.437.635l-21.565.119c-.821 0-1.35-.384-1.589-1.152l-10.524-34.4319c-1.774-5.8248-2.661-5.6924-2.661.3972v34.0347c0 .295-.117.578-.326.787-.208.208-.491.325-.786.325h-19.817c-.274 0-.537-.113-.73-.314-.194-.201-.303-.474-.303-.758v-66.561c0-1.3238.649-2.0122 1.946-2.0652l17.832-1.0723c1.43-.0794 2.144.609 2.144 2.0652l.04 6.2748c-.005.7294.186 1.446.554 2.0757.367.6297.899 1.1496 1.539 1.506.639.3564 1.364.5362 2.1.5209.735-.0152 1.454-.225 2.082-.6077 4.104-2.5417 6.513-6.3013 7.228-11.2789.212-1.4032-.344-2.3828-1.668-2.9388-.609-.2383-1.258-.3574-1.946-.3574-.551.0145-1.092-.1625-1.533-.5019-.44-.3394-.754-.8208-.89-1.3647-1.323-5.4276-4.779-7.837-10.365-7.228-1.165.1324-1.747.781-1.747 1.946l.079 4.448c.011.7595-.272 1.4939-.79 2.0492s-1.232.8884-1.99.9294l-15.528.7942c-2.489.1324-3.733-1.0458-3.733-3.5345v-24.3846c0-2.9918 1.495-4.4083 4.487-4.2494 22.161 1.2311 54.25-6.116 52.423 28.2368-.079 1.2709-.741 1.999-1.986 2.1843-2.515.3972-5.03.7413-7.545 1.0326-1.006.1059-1.006.1456 0 .1191z"/><path d="m429.709 62.1912v57.4668c0 .421-.168.825-.466 1.123s-.702.465-1.123.465l-20.373.04c-.422 0-.826-.167-1.124-.465s-.465-.702-.465-1.123l.04-55.0048c.006-.3822.151-.7492.406-1.0337s.605-.4674.984-.5151l20.334-2.502c.221-.0279.446-.0089.659.0558.214.0647.411.1737.58.3198.168.1461.304.3261.399.5282.094.2022.145.422.149.645z"/><path d="m263.027 97.4989 2.066-23.1137c.158-1.8798 1.164-2.9521 3.018-3.2168l7.982-1.2312c.357-.0581.722-.0315 1.067.0777.346.1092.661.2981.923.5519.261.2538.462.5657.585.9112.123.3454.166.7152.126 1.0804l-5.083 47.2996c-.08.874-.556 1.311-1.43 1.311l-24.782.238c-.261.001-.512-.097-.703-.274-.192-.177-.309-.419-.329-.679l-4.726-45.4333c-.212-2.1711.767-3.2831 2.938-3.336l13.622-.278c2.198-.053 3.204 1.0061 3.019 3.1771-.583 7.0162-.331 14.6678.754 22.9549.371 2.9123.689 2.8993.953-.0398z"/><path d="m106.395 99.6037 23.789-.0397c.582 0 .874.278.874.834l.039 19.738c0 .284-.108.557-.302.758s-.456.314-.73.314l-47.8163.159c-.9002 0-1.3503-.463-1.3503-1.39l.0397-36.6959c-.0008-.5487.2087-1.0769.5855-1.4758s.8921-.6382 1.44-.6687l46.4264-2.8595c.873-.0529 1.376.3442 1.509 1.1915.079.6354-.053 1.1384-.397 1.5091-.212.2118-.53.331-.954.3574-7.863.1589-15.581.1721-23.153.0398-.28-.0053-.558.0452-.818.1486s-.496.2576-.696.4536-.358.4298-.467.6878c-.108.258-.164.535-.164.8148v13.9794c0 .5688.226 1.1143.629 1.5165.402.4022.947.6281 1.516.6281z"/></g></svg>