<svg fill="none" height="52" viewBox="0 0 356 52" width="356" xmlns="http://www.w3.org/2000/svg" xmlns:xlink="http://www.w3.org/1999/xlink"><clipPath id="a"><path d="m0 0h355.247v51.4338h-355.247z"/></clipPath><g clip-path="url(#a)" fill="#000"><path d="m22.261-.00048828h.5372l22.2249 51.20688828c.0035.0076.005.016.0044.0244s-.0033.0165-.0079.0235c-.0046.0071-.0108.0129-.0182.0169s-.0157.006-.0241.006h-11.0823c-.0708 0-.1194-.0333-.1457-.1l-3.7316-9.4705c-.0153-.0402-.0444-.0604-.0874-.0604h-16.2277c-.0694 0-.1173.032-.1437.0958l-3.93147 9.433c-.01238.0302-.03344.056-.0605.0742-.02707.0181-.05892.0278-.09152.0279h-9.4163437c-.0063372-.0002-.0125287-.002-.0180529-.0051-.0055241-.0031-.010219-.0075-.0136892-.0128-.0034701-.0053-.0056137-.0114-.0062503-.0177s.0002526-.0127.0025926-.0186zm-5.2184 33.38198828c-.0041.0102-.0056.0212-.0044.0321.0011.0109.005.0214.0112.0305.0061.009.0145.0164.0242.0215s.0205.0077.0315.0076h9.5725c.011.0001.0218-.0025.0316-.0076.0097-.0051.018-.0125.0242-.0215.0062-.0091.01-.0196.0112-.0305s-.0004-.0219-.0045-.0321l-4.654-11.8089c-.0051-.0121-.0137-.0224-.0246-.0297s-.0237-.0111-.0369-.0111c-.0131 0-.0259.0038-.0368.0111-.011.0073-.0195.0176-.0246.0297z"/><path d="m332.335-.00048828h.529l22.222 51.19648828c.024.0541.006.0812-.052.0812h-11.072c-.07 0-.119-.0333-.145-.1l-3.713-9.4226c-.028-.0722-.081-.1083-.158-.1083h-16.178c-.068 0-.115.0313-.142.0937l-3.923 9.4143c-.015.0364-.04.0675-.073.0894-.032.0218-.071.0335-.11.0335h-9.352c-.065 0-.085-.0299-.06-.0896zm-5.225 33.38198828c-.004.0102-.006.0212-.004.0321.001.0109.005.0214.011.0305.006.009.014.0164.024.0215s.021.0077.031.0076h9.573c.011.0001.022-.0025.032-.0076.009-.0051.018-.0125.024-.0215.006-.0091.01-.0196.011-.0305s0-.0219-.005-.0321l-4.652-11.8068c-.005-.0121-.013-.0225-.024-.0297-.011-.0073-.024-.0112-.037-.0112s-.026.0039-.037.0112c-.011.0072-.019.0176-.024.0297z"/><path d="m154.488 15.6044c4.253-9.42471 13.563-15.5405469 23.931-15.165725 11.217.403974 21.41 9.047775 23.768 20.002925 2.211 10.2722-2.191 20.6485-10.966 26.3667-10.585 6.8946-25.009 4.8747-33.078-4.956-5.966-7.2695-7.63-17.4313-3.655-26.2479zm18.348 14.5368v-19.4241c0-.0833-.04-.1131-.121-.0895-.318.0916-.629.2047-.933.3394-9.516 4.1917-12.169 16.261-6.259 24.3363 2.786 3.8086 7.19 6.0576 11.911 6.1554 10.965.2228 17.693-10.8823 14.485-20.8317-1.468-4.5499-4.952-8.4585-9.542-10.0182-.062-.0222-.093 0-.093.0667v19.5302c0 .0105-.004.0206-.011.028s-.017.0116-.027.0116h-9.308c-.068 0-.102-.0347-.102-.1041z"/><path d="m106.268 32.5235 11.313 17.6708c.062.0971.036.1457-.079.1457h-11.049c-.034.0001-.067-.0082-.097-.0242s-.055-.0392-.074-.0674l-10.3199-15.5592c-.032-.0472-.0764-.0708-.1333-.0708h-6.2845c-.0666 0-.1.0333-.1.0999l.0021 15.5135c0 .0721-.0368.1082-.1103.1082h-9.5413c-.0171 0-.0336-.0065-.0457-.0183-.0121-.0117-.0189-.0276-.0189-.0441v-49.18494c0-.02706.0108-.05302.0299-.07215.0191-.01914.0451-.029886.0722-.029886 4.9268-.004165 9.8633-.002777 14.8096.004165 7.9151.010411 15.8191 2.786171 18.4971 10.988511 2.328 7.1279-.06 16.4443-6.828 20.3591-.077.0458-.092.1062-.043.1811zm-2.439-15.7196c-.537-3.9731-2.917-6.3824-7.0028-6.4302-2.4196-.0264-4.8476-.0278-7.284-.0042-.0652 0-.0979.0326-.0979.0979v14.6701c0 .0624.0313.0944.0937.0957 2.4419.0306 4.8831.0334 7.3236.0084 4.6044-.0479 7.5674-4.0023 6.9674-8.4377z"/><path d="m265.556 34.6183h-6.243c-.032-.0001-.063.0079-.092.0232-.028.0152-.052.0373-.07.0643l-10.327 15.5592c-.033.05-.079.075-.139.075h-11.136c-.011.0001-.021-.0026-.03-.0079-.009-.0052-.017-.0128-.022-.022s-.008-.0196-.007-.0301c0-.0105.003-.0207.009-.0296l11.382-17.7686c.025-.0388.018-.0701-.021-.0937-5.612-3.2568-8.061-9.7912-7.678-16.1465.358-5.9326 3.636-11.06344 9.171-13.37484 3.039-1.26884 6.334-1.901178 9.887-1.897013 5.029.006941 10.049.015965 15.059.02707.025 0 .048.009873.065.027443.017.01758.027.04141.027.06626v49.14538c0 .0694-.035.1041-.106.1041h-9.521c-.025 0-.05-.0103-.067-.0287-.018-.0183-.029-.0432-.029-.0692v-15.5134c0-.0736-.037-.1104-.112-.1104zm-10.166-9.9869c1.506.6289 2.572.5997 4.544.6122 1.87.0125 3.747.0118 5.632-.0021.068 0 .102-.034.102-.102v-14.6743c0-.0694-.034-.1041-.104-.1041-2.312-.0083-4.625-.0042-6.938.0125-1.033.0083-1.792.0764-2.278.2041-2.553.6788-4.159 2.3843-4.796 4.8914-.184.726-.292 1.2779-.322 1.6555-.255 3.0818 1.201 6.2699 4.16 7.5068z"/></g></svg>