<svg fill="none" height="906" viewBox="0 0 3455 906" width="3455" xmlns="http://www.w3.org/2000/svg"><g fill="#000"><path d="m1965.26 286.756c.04 1.634.8 2.105 2.29 1.414 9.53-4.429 18.63-8.444 27.31-12.045 23.07-9.58 46.17-15.171 70.64-17.448 31.11-2.89 63.26-4.24 93.28 3.973 46.45 12.721 85.2 37.748 116.28 75.083 38.8 46.594 62.49 107.81 67.61 167.565 3.29 38.664 3.28 73.873-.04 105.628-2.52 24.08-8.37 50.908-17.55 80.484-39.01 125.572-150.5 206.528-280.77 212.417-34.66 1.56-68.82 1.518-102.48-.125-7.74-.388-16.5-1.246-26.28-2.576-44.97-6.14-89.9-13.348-134.14-23.635-.47-.115-.7-.408-.69-.879 3.62-232.283 7.68-465.163.42-697.163-.78-25.332-8.04-73.418-33.62-86.767-10.41-5.4337-26.67-8.1977-38.87-11.1344-4.59-1.0993-9.78-2.073-10.7-7.2083-1.08-6.1875-3.04-23.0383 4.36-24.5302 74.61-14.9715 149.35-29.3357 224.21-43.09271 12.15-2.23001 24.44-4.33963 36.87-6.32885.24-.035475.48.004778.69.114914s.38.284424.49.497556c2.89 5.66927 1.96 12.48499 1.95 18.65679-.35 75.3809-.89 150.7622-1.62 226.1422-.14 14.187-.02 27.839.36 40.957zm93.44 50.647c-5.78-2.701-11.81-5.779-16.77-6.392-25.96-3.224-51.16-.387-75.62 8.512-.49.178-.74.534-.75 1.068-1.91 109.093-2.03 218.18-.38 327.263.9 59.064 1.54 117.186 3.61 170.785.29 7.035 1.15 13.505 9.55 14.416 20.21 2.183 39.1 3.502 58.25-2.984 34.2-11.605 58.43-43.218 73.81-74.595 25.52-52.044 38.49-113.511 40.86-168.869 1.25-28.959 1.03-57.892-.64-86.798-.66-11.517-1.8-21.923-3.41-31.22-9.74-56.175-32.48-124.976-88.51-151.186z"/><path d="m320.825 482.245c-.932 67.288.476 134.524 4.224 201.707 2.089 37.549 4.633 77.532 18.406 112.317 5.747 14.543 16.583 29.462 30.953 37.251 4.627 2.513 11.7 4.785 21.216 6.816 17.479 3.753 35.382 5.543 52.657 10.003 3.267.848 4.397 2.482 5.088 5.575 2.199 9.564 2.827 22.112-.848 31.629-.096.243-.249.459-.446.631-.196.172-.431.295-.684.358-2.052.513-4.115.775-6.188.786-131.257.994-262.519 1.078-393.7865.251-15.0448-.094-30.0843-.283-45.11864-.566-4.11454-.078-4.75841-1.507-5.22954-5.213-1.204001-9.58-1.31393-18.354-.329791-26.321.942261-7.585 13.332971-9.689 19.379171-10.757 14.5213-2.576 27.0743-5.198 37.659-7.868 51.6983-12.988 58.3893-80.375 61.7653-124.818 4.491-59.002 5.245-118.537 5.606-177.695.613-100.649 1.445-201.722-2.449-302.309-.88-22.74-2.513-44.464-4.9-65.173-2.717-23.509-7.915-47.631-19.6621-68.722-19.8503-35.6333-60.3047-37.0152-95.95357-41.1612-.20999-.0258-.40408-.1251-.54782-.2803s-.22784-.3564-.2374-.5677l-1.39768743-39.2609c-.00758587-.2832.08718273-.5593.26649143-.7762.17931-.2169.430796-.3597.707171-.4016 6.407375-.9109 14.715015-1.3872 24.922815-1.4291 224.9331-.7538 449.8511-.2513 674.7841.3455.555 0 .917.267 1.084.8009 1.026 3.1618 1.612 6.4021 1.759 9.721 3.533 79.1026 3.722 158.6766 4.601 237.8426 0 .523-.246.874-.738 1.052-11.809 4.041-22.771 7.245-32.885 9.611-2.533.586-5.036.492-7.506-.283-1.697-.523-3.141-1.738-4.335-3.643-6.941-11.04-11.197-25.473-15.94-37.675-25.472-65.408-65.314-125.587-137.491-144.1186-5.445-1.4029-14.616-2.5546-27.514-3.455-12.553-.8794-29.964-1.3453-52.233-1.3977-33.503-.0733-67.026-.089-100.571-.0471-.148-.0008-.291.0534-.401.152-.11.0987-.18.2348-.195.382-1.152 10.5428-1.943 21.1694-2.372 31.8794-4.146 102.948-5.905 206.162-5.276 309.643 0 .238.094.465.262.633s.395.262.633.262c32.225.157 64.539-1.041 96.943-3.596 61.137-4.806 78.192-66.948 89.75-116.008.115-.513.435-.801.958-.864 12.893-1.555 26.101-1.099 39.151-1.57.106-.005.211.013.31.05.099.038.189.095.266.168.076.074.137.162.178.259s.063.202.063.308v297.22c0 .524-.262.775-.786.754l-38.852-1.35c-.597-.021-.969-.325-1.115-.911-2.482-9.423-4.23-16.395-5.245-20.918-7.853-35.068-28.849-84.38-68.958-92.719-9.852-2.041-22.683-3.528-38.492-4.46-24.676-1.455-49.374-2.408-74.093-2.858-.534-.011-.806.251-.816.785z"/><path d="m1493.83 378.235c10.87-19.96 22.6-40.486 37.8-59.724 22.04-27.88 49.53-48.521 82.48-61.922 30.48-12.406 65.71-12.783 97.35-5.418 9.46 2.199 20.94 5.873 27.91 12.925 3.86 3.926 1.14 8.543-.27 12.657-18.44 53.479-38.33 106.282-59.69 158.41-.35.853-1.03 1.531-1.88 1.888-.85.356-1.81.36-2.66.012-20.09-8.134-39.83-18.327-59.68-23.587-33.03-8.774-65.2-6.528-96.5 6.737-8.43 3.559-15.76 8.653-22 15.28-5.12 5.434-4.19 36.387-4.41 44.6-1.95 73.853-1.64 147.695.94 221.526.9 26.09 2.42 50.432 4.55 73.025 2.66 28.205 10.71 63.697 44.34 69.476 18.47 3.183 37.06 5.366 55.76 6.549.39.031.61.235.68.612 2.02 11.355.89 25.489-.11 37.031-.06.545-.36.822-.91.833-121.96.455-244.02 1.68-365.93-.33-3.36-.047-5.01-.424-5.73-4.036-1.97-9.721-.47-22.253.06-32.1.02-.287.13-.56.32-.776s.45-.363.73-.417c12.67-2.367 25.33-4.947 37.99-7.743 7.02-1.539 13.45-4.863 19.32-9.972 21.42-18.625 23-49.955 24.53-76.402 1.33-22.886 2.2-45.788 2.6-68.706 1.26-69.748 1.32-139.502.19-209.261-.34-21.221-1.31-42.417-2.89-63.587-1.6-21.467-4.74-46.594-19.06-63.178-9.16-10.585-19.59-12.454-35.42-15.752-8.42-1.758-16.7-3.381-24.82-4.868-1.15-.206-2.19-.787-2.96-1.651-.78-.864-1.25-1.963-1.33-3.123-.48-6.805-.47-13.286.03-19.442.31-3.863 2.58-6.261 6.78-7.193 81.32-17.887 163.28-33.576 245.09-49.029 6.61-1.256 13.35-3.015 20.15-2.544.47.032.7.283.69.754l-4.61 128.289c-.03.858.16.911.57.157z"/><path d="m1201.6 719.428c-37.83 95.388-115.91 159.948-215.633 180.411-9.434 1.937-19.809 3.251-31.127 3.942-26.707 1.633-53.415 1.612-80.123-.063-51.856-3.251-101.23-21.845-142.831-52.5-92.389-68.125-121.913-188.216-115.977-297.22 1.382-25.378 4.858-50.018 10.428-73.92 14.244-61.043 46.061-115.412 92.247-157.594 67.419-61.576 160.938-82.746 250.375-72.836 88.451 9.799 163.311 50.897 209.481 127.849 31.67 52.782 47.13 117.782 48.31 179.249.69 36.351-1.08 67.89-5.3 94.619-3.15 19.944-9.76 42.632-19.85 68.063zm-280.948-423.06c-55.735-3.659-81.458 47.867-93.771 93.127-8.574 31.524-13.893 64.157-15.955 97.901-3.235 53.269-3.11 107.198-.047 160.451 3.549 61.907 30.168 219.453 122.839 209.402 13.506-1.476 25.258-6.25 35.256-14.322 15.768-12.752 27.619-28.483 35.556-47.192 16.33-38.507 23.08-79.731 26.27-121.222 5.01-65.456 5.28-132.592-2.27-197.859-4.97-42.81-14.97-86.814-36.25-124.677-7.172-12.741-16.93-24.954-29.273-36.638-12.26-11.59-26.378-17.913-42.355-18.971z"/><path d="m2579.83 553.135c.38 58.875 9.68 117.123 40.53 167.989 3.43 5.643 8.06 11.747 13.89 18.311 29.85 33.576 62.6 57.211 107.78 65.063 25.74 4.492 53.41 4.994 78.86 1.932 22.97-2.764 44.74-9.826 65.29-21.185 11.05-6.109 21.51-13.113 32.87-18.704 6.86-3.376 16.5 12.909 18.72 17.919 2.29 5.166-1.17 10.349-4.81 15.123-17.04 22.363-42.01 43.061-63.92 57.792-28.2 18.955-63.76 32.649-97.6 40.753-31.55 7.538-64.18 7.569-97.68 6.203-18.79-.754-36.41-3.073-52.85-6.957-94.61-22.347-168.36-87.882-204.29-177.773-8.78-21.945-14.79-41.685-18.05-59.221-4.22-22.756-5.12-45.606-5.97-68.676-1.22-33.638.84-68.596 8.42-101.45 24.11-104.386 90.37-192.127 194.92-226.378 57.36-18.798 123.14-22.19 181.36-5.81 57.15 16.081 104.4 56.818 131.81 109.145 25.22 48.118 36.45 103.397 38.85 157.342.39 8.752.15 17.384-.71 25.896-.01.177-.1.341-.23.46-.14.119-.31.185-.49.184l-365.9 1.225c-.53 0-.8.272-.8.817zm25.84-179.423c-12.1 32.655-19.9 66.325-23.42 101.011-1.03 10.124-1.48 17.945-1.37 23.462.01.565.3.843.87.832 59.33-.733 118.63-2.209 177.91-4.428.1-.004.19-.027.28-.068s.17-.099.24-.17c.06-.072.11-.156.15-.247.03-.091.04-.188.04-.285-1.76-44.773-5.92-192.912-72.98-197.356-41.74-2.764-69 42.904-81.72 77.249z"/><path d="m3253.93 487.695c34.66 16.066 66.39 28.189 98.37 44.915 28.91 15.154 57.3 34.581 76.07 61.906 17.88 26.08 26.69 55.766 26.43 89.06-.17 20.902.17 41.38-4.24 59.943-15.34 64.309-58.26 112.019-118.4 137.586-30.1 12.799-61.46 21.719-93.15 22.457-28.77.681-57.55.853-86.33.518-36.75-.439-73.9-9.014-111.93-17.934-20.31-4.764-38.16-10.48-53.55-17.149-.59-.251-.9-.702-.92-1.351l-4.4-183.929c-.01-.524.21-.906.67-1.147 10.2-5.37 21.11-7.721 32.72-7.051.22.014.44.093.62.226.19.133.33.316.41.528 24.34 60.509 55.61 134.178 123.17 157.703 20.04 6.989 42.28 7.695 63.79 5.936 33.8-2.764 64.61-28.503 74.61-60.556 9.71-31.126 4.68-67.497-21.87-89.656-11.91-9.935-24.82-18.363-38.76-25.284-33.97-16.882-71.56-30.309-104.26-44.443-62.46-26.98-109.33-71.235-117.31-142.564-6.02-53.882 4.71-103.303 39.65-145.925 54.73-66.759 138.37-87.363 221.37-83.83 43.02 1.822 85.26 8.533 126.72 20.133 12.29 3.445 24.25 7.695 35.87 12.752.22.099.41.259.55.463.14.203.21.44.22.683l4.06 164.158c.01.193-.05.383-.16.543-.11.161-.27.284-.45.352-7.84 3.078-19.71 8.716-28.13 7.805-4.44-.471-8.81-10.318-11.38-17.196-23.16-61.844-54.35-125.446-127.39-136.361-31.44-4.711-58.08 3.424-78.46 28.849-15.38 19.159-18.83 39.873-17.95 63.98.95 26.697 16.45 45.856 38.28 61.67 16.67 12.061 35.16 22.798 55.46 32.21z"/></g></svg>