<svg fill="none" height="81" viewBox="0 0 114 81" width="114" xmlns="http://www.w3.org/2000/svg"><g fill="#fff"><path d="m54.9285 48.1133c-9.8016.1714-18.203-6.975-21.2329-15.9022-.6624-1.9551-.8948-4.0003-.8977-6.2749-.0077-8.136-.0087-16.27307-.0029-24.41105 0-.04761.0099-.09464.0289-.13813.019-.0435.0467-.08252.0815-.11461l1.2782-1.1736384c.069-.063597.1603-.09886268.2556-.09877142h9.6971c.1026 0 .1917.03486042.2672.10458182l1.2724 1.188158c.0794.0736.1192.16462.1192.27308 0 8.12249.0164 16.24308.0493 24.36168.0059 1.3073.3409 2.5564 1.0052 3.7475 1.7459 3.1374 4.404 5.3656 8.1167 5.5602.0871.0039.1307.0494.1307.1366v12.573c0 .1104-.0562.1665-.1685.1685zm-19.7979-23.4088c0 4.6219.8657 8.6512 3.6372 12.39 3.0648 4.128 8.4071 8.0411 13.6624 8.5204.1665.0155.2498-.06.2498-.2265v-7.8378c0-.0464-.0162-.0913-.046-.1269-.0297-.0356-.071-.0596-.1167-.0678-.7379-.1356-1.4477-.397-2.1294-.7843-4.6713-2.6494-7.005-6.7039-7.0011-12.1634.0038-7.3362.0029-14.65307-.0029-21.95054 0-.03467-.0138-.06792-.0383-.09243-.0245-.02452-.0578-.03829-.0925-.03829l-7.9917-.00291c-.0347 0-.0679.01378-.0925.03829-.0245.02452-.0383.05777-.0383.09244z"/><path d="m65.2064 17.8833c-1.8534-2.8092-4.5842-4.927-8.0586-5.0374-.0891-.0019-.1336-.0474-.1336-.1365v-12.558483c0-.0813416.0397-.123949.1191-.1278224 10.2693-.5054766 19.6816 8.1283054 21.7587 17.8398054.2557 1.2027.3845 2.8605.3864 4.9735.0019 7.9056.0019 15.8092 0 23.7109 0 .0467-.0098.0931-.0288.1361s-.0468.0817-.0816.1137l-1.3886 1.2696c-.0504.0467-.1158.0727-.183.0726h-9.2119c-.1162 0-.2179-.0397-.305-.1191l-1.3305-1.2172c-.0736-.0678-.1104-.1511-.1104-.2499 0-7.6325-.001-15.2631-.0029-22.8917 0-2.4431-.2121-3.9363-1.4293-5.7781zm11.3209.4009c-1.3479-7.129-7.1406-12.77348-13.8164-15.16724-1.1174-.40089-2.1691-.62652-3.1548-.67687-.1182-.00581-.1772.05035-.1772.16849v7.86392c0 .0949.0464.153.1394.1743 4.7585 1.1591 8.4914 5.6939 9.299 10.281.1414.7998.2131 2.7317.215 5.7955.0058 6.3214.0058 12.636 0 18.9438 0 .0562.0271.0842.0814.0842h7.617c.1007 0 .151-.0503.151-.151.0407-7.1793.0349-14.3548-.0174-21.5264-.0194-2.7656-.1317-4.6955-.337-5.7897z"/><path d="m16.6226 59.5156 2.1352.0029c.0262 0 .0514.0104.0699.029.0185.0185.0289.0436.0289.0698v20.0332c0 .0262-.0104.0513-.0289.0698s-.0437.0289-.0699.0289h-3.457c-.0158.0003-.0314-.0033-.0456-.0104-.0141-.0071-.0264-.0174-.0357-.0302l-12.7444-17.9474c-.01205-.0175-.02943-.0306-.04955-.0375-.02012-.0068-.04191-.007-.06214-.0005s-.03781.0194-.05014.0367-.01874.0382-.01829.0594v17.8428c0 .0262-.0104.0513-.02893.0698-.01852.0185-.04364.029-.06984.029l-2.0974397-.0175c-.0261958 0-.051319-.0104-.0698422-.0289-.0185233-.0185-.0289281-.0437-.0289281-.0698v-20.0303c0-.0262.0104048-.0513.0289281-.0698.0185232-.0186.0436464-.029.0698422-.029l3.6777797.0029c.01608.0001.0319.0041.04608.0117.01417.0076.02628.0186.03526.0319l12.48591 17.8573c.012.0175.0294.0307.0495.0375s.0419.007.0621.0005c.0203-.0065.0379-.0194.0502-.0367s.0187-.0382.0183-.0594v-17.7469c0-.0262.0104-.0513.0289-.0698.0185-.0186.0436-.029.0698-.029z"/><path d="m27.2783 61.8135v17.8602c0 .0504-.0262.0755-.0785.0755h-2.1788c-.0215 0-.0422-.0085-.0575-.0238-.0152-.0152-.0238-.0359-.0238-.0575l.0029-20.0419c0-.0285.0116-.0558.0323-.076.0207-.0201.0488-.0315.0781-.0315 4.2743-.0038 8.5621-.0038 12.8635 0 2.6175.0029 4.5348 2.8847 4.7352 5.3366.2324 2.8963-1.4467 6.1587-4.6568 6.4085-.0149.0008-.0295.0053-.0423.0132-.0127.0078-.0234.0187-.0309.0317s-.0116.0276-.012.0426.0029.0299.0097.0432l4.192 8.2707c.0046.0085.0068.018.0066.0276-.0003.0096-.003.019-.008.0272s-.0121.015-.0205.0196c-.0084.0047-.0179.0071-.0275.0069l-2.356.0058c-.0192.0001-.0383-.0053-.0551-.0155-.0169-.0102-.031-.0249-.0407-.0426l-5.3453-10.4262c-.0085-.0169-.0127-.0357-.0121-.0547.0007-.0189.0061-.0373.0157-.0534.0097-.016.0232-.0292.0394-.0383.0161-.009.0343-.0136.0529-.0133 1.1445-.0058 3.2972.2527 4.2442-.2934 2.324-1.3393 2.0916-5.386-.0378-6.7717-.3815-.2479-.917-.3738-1.6064-.3776-3.182-.0175-6.3621-.0155-9.5402.0058-.0949 0-.1423.0474-.1423.1423z"/><path d="m57.2932 75.6647 7.9336-16.0968c.0076-.015.0193-.0276.0337-.0363.0143-.0087.0309-.0132.0477-.0131l2.4751-.0029c.0152.0004.0301.0045.0433.0122.0131.0076.0242.0185.032.0315.0078.0131.0122.0279.0128.0431.0005.0153-.0028.0304-.0097.044l-10.5714 21.0557c-.0076.0152-.0194.028-.0339.0369-.0146.0088-.0314.0134-.0484.0131s-.0336-.0055-.0479-.0148c-.0142-.0094-.0255-.0226-.0325-.0381l-10.4785-21.0528c-.007-.0138-.0103-.0292-.0096-.0447.0007-.0154.0053-.0305.0135-.0436s.0196-.0239.0332-.0314c.0135-.0074.0288-.0112.0443-.0111l2.478.0029c.0163.0004.0322.0052.046.0139s.025.021.0324.0355l7.8436 16.0968c.0073.0154.0188.0284.0332.0375s.0311.014.0481.014c.0171 0 .0337-.0049.0481-.014s.026-.0221.0333-.0375z"/><path d="m75.4555 77.6721 12.9159.0029c.0262 0 .0513.0104.0698.029.0185.0185.0289.0436.0289.0698l.0029 1.8767c0 .0262-.0104.0513-.0289.0698s-.0436.0289-.0698.0289h-15.2399c-.0262 0-.0513-.0104-.0698-.0289s-.029-.0436-.029-.0698l.003-20.0332c0-.0262.0104-.0513.0289-.0698.0185-.0186.0436-.029.0698-.029l2.1236-.0029c.0262 0 .0513.0104.0698.029.0186.0185.029.0436.029.0698l-.0029 17.959c0 .0262.0104.0513.0289.0698s.0437.0289.0698.0289z"/><path d="m94.3527 59.7041c0-.0267.0052-.0531.0154-.0778.0103-.0246.0252-.0471.0441-.0659.0189-.0189.0413-.0339.066-.0441s.0511-.0155.0778-.0155l7.998-.0291c1.378-.0047 2.744.2524 4.019.7567 1.275.5044 2.435 1.246 3.413 2.1826s1.755 2.0499 2.286 3.2762c.532 1.2263.808 2.5416.812 3.8708v.0349c.009 2.6841-1.088 5.2619-3.05 7.1665-1.961 1.9046-4.627 2.9799-7.411 2.9895l-7.9973.0291c-.0539 0-.1056-.0214-.1438-.0596-.0381-.0381-.0595-.0898-.0595-.1438zm2.3995 2.144v15.5942c0 .0252.005.0501.0146.0734.0097.0233.0238.0444.0416.0622s.0389.0319.0622.0416c.0232.0096.0482.0146.0734.0146h5.31c2.289 0 4.483-.8377 6.101-2.3289 1.618-1.4911 2.527-3.5135 2.527-5.6222v-.0756c0-2.1087-.909-4.1311-2.527-5.6222-1.618-1.4912-3.812-2.3289-6.101-2.3289h-5.31c-.0252 0-.0502.005-.0734.0146-.0233.0097-.0444.0238-.0622.0416s-.0319.0389-.0416.0622c-.0096.0233-.0146.0482-.0146.0734z"/></g></svg>