<svg fill="none" height="90" viewBox="0 0 94 90" width="94" xmlns="http://www.w3.org/2000/svg"><path d="m72.2061 11.9317 13.2711-1.8262c.0147-.0017.0297.0002.0435.0055.0138.0054.026.014.0354.0251s.0158.0243.0184.0384c.0027.0141.0016.0285-.0031.042l-4.5403 13.6007c-.0147.0436-.0133.0908.0041.133.0173.0421.0494.0761.0901.0957 3.3519 1.6076 6.7028 3.2208 10.0525 4.8396.1771.0875.3442.1345.5011.1413.0314.001.062.0101.0887.0265.0268.0163.0489.0393.0642.0668.0152.0274.0231.0583.0228.0897-.0002.0314-.0086.0622-.0244.0894l-7.2274 12.5177c-.0493.0852-.0426.1648.0202.2388l8.8384 10.2442c.0717.083.0818.1738.0303.2725l-14.0817 25.8493c-.002.0043-.005.0079-.0089.0107-.0038.0027-.0084.0045-.0133.0052-.0049.0006-.01.0001-.0149-.0015-.0049-.0015-.0094-.0042-.0133-.0076l-8.3609-7.7622c-.0648-.0598-.1487-.0944-.2364-.0975-.0878-.0031-.1734.0255-.2411.0806l-23.7205 18.9011c-.0117.0085-.0262.0128-.0413.0122s-.0301-.0061-.0428-.0156l-23.623-18.8237c-.0958-.0766-.2158-.1164-.3381-.1121s-.2386.0525-.3278.1357l-8.2095 7.6344c-.056.0515-.102.0437-.1379-.0236l-14.0479519-25.7854c-.0515687-.0964-.0414804-.1861.0302674-.2691l8.8417945-10.2543c.02744-.0313.04448-.0702.0487-.1112.00423-.041-.00458-.0821-.02516-.1175l-7.22074-12.4976c-.05157-.0874-.03139-.1524.06054-.195l10.60075-5.0616c.0492-.0235.088-.0642.1091-.1144.021-.0503.0229-.1065.0052-.158l-4.55035-13.6276c-.00318-.0085-.00405-.0176-.00251-.0265.00154-.0088.00544-.0171.01127-.024.00584-.0069.01341-.0121.02192-.015.00851-.003.01766-.0036.02649-.0018l13.33838 1.8296c.1188.0157.1928-.0337.2219-.148l2.213-8.31041c.0381-.14125.1166-.16928.2354-.08408l8.8116 6.41358c.1143.08296.2287.08296.343 0l13.2408-9.679221c.1063-.0781303.2347-.120269.3666-.120269s.2604.0421387.3666.120269l13.2879 9.709491c.0852.06278.1704.0639.2556.00336l8.8519-6.45393c.1211-.08745.2007-.0583.2388.08744l2.2096 8.31037c.0336.1189.1121.1704.2354.1547zm-24.8303-10.44935c-.015-.01124-.0328-.01808-.0515-.01977-.0187-.00168-.0374.00187-.0542.01025-.0167.00838-.0308.02126-.0407.0372-.0098.01594-.0151.0343-.0151.05304l-.0033 8.47523c.0002.0168.0046.0333.0128.048.0083.0147.02.0271.0343.0361l12.5816 8.2599c.0152.0105.033.0166.0515.0176.0184.0011.0368-.003.0531-.0116.0163-.0087.0299-.0217.0393-.0376.0095-.0158.0144-.034.0142-.0525l.1076-7.4561c.0002-.0165-.0038-.0329-.0114-.0475-.0076-.0147-.0187-.0272-.0323-.0366zm-1.1536 8.22297c.0143-.00972.026-.02274.0342-.03796s.0126-.0322.0129-.04948l-.0034-8.00436c.0002-.01999-.0052-.03962-.0156-.05671-.0104-.01708-.0253-.03094-.0431-.04002s-.0378-.01302-.0577-.01138-.039.0088-.0551.02067l-12.5715 9.17472c-.0137.0101-.0248.0233-.0324.0385s-.0115.032-.0114.049l.0673 7.029c-.0003.0197.0048.0392.0147.0562.01.017.0244.031.0418.0403.0173.0094.0369.0138.0566.0128s.0388-.0074.0551-.0185zm-14.0581 9.12098-7.7319-13.27114c-.1906-.32511-.3117-.30044-.3632.07399-.0426.31166-.1278.70403-.2556 1.17711-.4821 1.81163-.9574 3.62554-1.426 5.44164-.0269.1031-.0135.2018.0403.2959l2.8217 4.9338c.0379.0654.0894.1218.151.1653.0615.0435.1316.0732.2055.087l6.4876 1.1973c.0128.0025.0261.0013.0382-.0036s.0226-.0131.0301-.0238c.0074-.0107.0117-.0234.0121-.0364.0004-.0131-.003-.026-.0098-.0371zm38.9961-6.4002c.0143-.0256.0179-.0558.0101-.084l-1.8397-6.80376c-.0053-.02172-.0171-.04134-.0338-.05627-.0166-.01492-.0374-.02447-.0596-.02738s-.0447.00095-.0646.01108c-.02.01013-.0364.02605-.0472.04567l-7.7117 13.22736c-.0108.0185-.016.0397-.0151.0611.001.0214.0082.042.0206.0594s.0296.0309.0495.0387c.02.0079.0417.0098.0627.0056l6.5683-1.204c.016-.0028.0313-.009.0446-.0183.0134-.0093.0246-.0214.0327-.0355zm-45.2617-6.19158 6.5616 11.24648c.1637.2758.241.2533.2321-.0673l-.1413-6.3295c-.0022-.092-.0255-.1821-.0681-.2632-.0426-.0812-.1033-.1511-.1774-.2043l-6.2253-4.54697c-.3251-.23767-.3856-.18274-.1816.16479zm35.0712 11.41458 6.6322-11.39103c.2063-.3565.1435-.41255-.1883-.16816l-6.1782 4.50999c-.1233.0897-.1883.2108-.195.3632l-.333 6.6087c-.0202.3856.0673.4114.2623.0773zm-27.245 1.3958c-.0162.0112-.0288.027-.0361.0453s-.0092.0383-.0052.0576c.0039.0194.0134.0371.0273.0511s.0316.0235.0509.0276l7.7555 1.3721c.0133.0028.0271.0028.0404 0l4.6748-1.0156c.0226-.0046.0429-.0168.0576-.0346.0146-.0177.0228-.0399.0231-.063v-8.5189c-.0002-.0179-.0052-.0355-.0145-.0508-.0092-.0154-.0224-.028-.0382-.0366-.0157-.0085-.0335-.0127-.0514-.0122-.018.0006-.0354.006-.0506.0155zm26.0141.0269-12.4168-7.8026c-.0089-.0048-.0188-.0074-.0289-.0074-.01 0-.0198.0025-.0284.0073-.0085.0048-.0155.0116-.0202.0199s-.007.0177-.0066.0273l.0034 8.0447c.0002.0574.0199.113.056.1576.0361.0447.0863.0757.1424.0879 1.2219.2579 2.4428.5303 3.6625.8173.5583.13 1.1166.1468 1.6748.0504 2.3184-.4013 4.6289-.815 6.9315-1.241.148-.0291.1581-.083.0303-.1614zm-47.5284-7.2712 11.4483 5.1994c.2309.1054.2825.0471.1547-.1748l-2.1794-3.7836c-.0249-.0438-.0601-.0811-.1028-.1092-.0426-.028-.0914-.0459-.1427-.0522l-9.1243-1.2646c-.4439-.0628-.4619-.0011-.0538.185zm57.5574 5.2398 11.7711-5.3374c.0161-.0067.0291-.0192.0365-.0349.0075-.0158.0088-.0338.0038-.0504-.005-.0167-.016-.031-.0309-.0401-.0149-.009-.0326-.0123-.0497-.0091l-9.4237 1.3217c-.0376.0054-.0733.0191-.1043.0401-.0309.021-.0562.0488-.0739.081l-2.2332 3.9181c-.0807.1413-.0459.1783.1043.111zm-47.4309.4843c-4.2174-1.9977-8.4628-3.9517-12.73632-5.862-.15022-.0673-.19955-.0236-.14798.1312l3.8778 11.5928c.0403.1166.1143.148.2219.0942l10.1501-5.1221c.3856-.1951.3643-.3274-.0639-.3969-.3789-.0605-.8128-.2063-1.3016-.4372zm61.7278-5.7275c.0075-.0202.0089-.0421.0038-.0631-.005-.0209-.0163-.0398-.0322-.0543s-.0359-.0239-.0572-.0269c-.0213-.0031-.0431.0003-.0624.0098l-14.1926 6.4438c-.0187.0084-.0347.0219-.046.039-.0113.017-.0175.037-.0178.0575-.0004.0205.0051.0406.0158.0581s.0262.0315.0446.0405l10.3048 5.2028c.0137.0072.0288.0112.0443.012.0154.0008.0309-.0018.0452-.0076.0144-.0057.0274-.0145.038-.0257.0107-.0112.0188-.0246.0238-.0392zm-53.007 11.2667 7.8126-1.796c.5336-.1233.528-.2152-.0168-.2758-2.4753-.2757-5.223-.871-7.3418-1.2242-1.5381-.2578-2.9966-.5459-4.3755-.8643-.5471-.1278-.6177.0022-.2119.3901l3.9114 3.7096c.0287.0278.0641.0479.1029.0585.0387.0105.0797.0113.1191.0021zm23.4884-1.8229 7.6882 1.7758c.2466.056.4619-.0034.6457-.1783l3.7701-3.575c.3005-.2848.2467-.3902-.1614-.3162l-11.9393 2.1457c-.017.0025-.0325.0107-.0437.0235-.0113.0127-.0176.0291-.018.0465-.0004.0173.0052.0346.0158.0488s.0257.0245.0426.0292zm-34.5735 4.2612 9.5884-2.0886c.0271-.0059.052-.019.0721-.0381.02-.019.0345-.0432.0418-.0699s.0071-.0549-.0005-.0815c-.0077-.0266-.0224-.0506-.0427-.0694l-4.4125-4.2006c-.0087-.0084-.0189-.0149-.0302-.0191-.0112-.0042-.0232-.006-.0352-.0054s-.0237.0037-.0344.0091c-.0108.0054-.0203.0129-.028.0221l-5.1558 6.4775c-.0471.0583-.0347.0796.037.0639zm44.0408-2.0785c1.9002.4709 3.8811.8475 5.8116 1.2848.9551.2152 2.3508.3766 3.4472.7802.3386.1233.3958.0437.1716-.2388l-4.9372-6.1916c-.0785-.0986-.1625-.1042-.2522-.0168l-4.3183 4.093c-.0219.0212-.0377.048-.0458.0774s-.0083.0604-.0004.0899.0235.0563.0452.0777c.0217.0215.0487.0367.0783.0442zm-45.7156 2.5628 4.779-5.9899c.2646-.3318.2086-.4002-.1681-.2051-6.1748 3.2286-12.4247 6.3059-18.74973 9.2319-.23543.1076-.22422.1816.03363.222l14.6702 2.3071c.1435.0224.204-.037.1816-.1782l-.8206-5.1087c-.018-.1054.0067-.1984.074-.2791zm57.0159.2825-.8307 4.9573c-.0314.1794.0437.2556.2253.2287l14.5626-2.2433c.1435-.0224.1502-.0661.0201-.1311l-19.0086-9.3631c-.0606-.0292-.0695-.0168-.0269.037l4.9876 6.2521c.0627.0785.0863.166.0706.2624zm-32.4345.8811.1009.0841c.0148.0122.032.0209.0506.0254.0186.0046.0379.005.0566.0011.0187-.0038.0363-.0118.0515-.0234s.0277-.0264.0364-.0435l3.0672-6.1008c.0289-.0586.0406-.1242.0337-.1892-.0068-.0651-.0319-.1268-.0723-.1782-.0405-.0513-.0946-.0902-.1563-.1121-.0616-.0218-.1281-.0258-.1919-.0115l-13.6713 3.1614c-.1569.0359-.1581.0774-.0033.1244l10.6545 3.2388c.0157.0045.0303.0123.0437.0235zm18.5715-3.2623c.1457-.0448.1435-.084-.0068-.1177-4.5156-1.0134-9.0581-2.0638-13.6275-3.1513-.3386-.0807-.4922.0437-.4608.3733.0022.0178.0079.035.0168.0505l3.0033 5.9932c.0271.0545.0724.0977.1279.1217.0555.0241.1175.0274.1748.0094zm-14.529 10.1064 1.9137 1.6479c.0115.0098.0248.0172.0391.0218s.0294.0063.0444.005c.015-.0012.0296-.0054.043-.0123.0133-.0069.0252-.0164.0349-.0279.4776-.5785.676-1.1132.676-1.9103-.0045-1.7668-.0045-3.5347 0-5.3037 0-.4978-.1132-.9675-.3396-1.4092-.8005-1.574-1.6021-3.1603-2.4047-4.7589-.0164-.0344-.0437-.0625-.0777-.0796-.0341-.0172-.0729-.0225-.1103-.0152s-.0713.0269-.0963.0556c-.0251.0288-.0398.065-.0419.1031-.0068.1144-.0673.2859-.1817.5146-.7286 1.4529-1.4641 2.9035-2.2062 4.3519-.2287.444-.3442.9148-.3464 1.4126-.0112 1.9349-.009 3.8721.0067 5.8115.0023.287.2298.6816.6827 1.1839.0561.0627.1166.0661.1817.0101l1.8833-1.6009c.1009-.0852.2007-.0852.2993 0zm-25.967 2.7443 8.6837-12.1982c.1906-.2691.1312-.3442-.1783-.2253-.213.0807-.4865.158-.8206.232-2.9685.6547-6.0133 1.3274-9.1344 2.0179-.1905.0426-.2713.1603-.2421.3532l1.5437 9.7834c.0202.1346.0695.1469.148.037zm53.3097-10.1231c-2.6345-.5852-5.121-1.1065-7.4596-1.5639-1.0067-.1973-1.9405-.4518-2.8015-.7634-.2623-.0942-.3128-.0281-.1513.1984l8.7442 12.3058c.0583.0808.0942.0729.1077-.0235l1.5975-10.0963c.0021-.0124-.0006-.0251-.0074-.0357-.0069-.0106-.0174-.0182-.0296-.0214zm-33.1576 7.5133c-.0986-.1525-.213-.2903-.343-.4137-3.1009-2.908-6.2152-5.8665-9.3429-8.8754-.1144-.1121-.1816-.0885-.2018.0706l-1.157 8.9024c-.0201.1636.0527.2466.2187.2488 3.4573.0225 6.9472.0752 10.4695.1581.139.0045.2781.0191.4171.0437.0695.0112.084-.0123.0437-.0706-.0202-.0291-.055-.0504-.1043-.0639zm21.1039-9.316-9.4639 9.0436c-.1996.1883-.1626.2825.111.2825l10.4359-.0706c.1233-.0023.1771-.0639.1614-.185l-1.1435-9.0335c-.0014-.011-.0058-.0214-.0127-.0301-.0069-.0086-.0161-.0152-.0265-.019-.0104-.0039-.0216-.0048-.0325-.0026-.0109.0021-.021.0072-.0292.0147zm-19.4929 3.269-9.2824-2.8318c-.2377-.0717-.2668-.0224-.0874.148l9.4236 8.936c.0086.0077.0193.0128.0307.0146.0114.0019.0231.0004.0337-.0042.0107-.0046.0197-.0121.0262-.0217s.01-.0209.0103-.0325l-.0236-6.0301c0-.092-.0437-.1514-.1311-.1783zm17.0647-2.6939-8.9225 2.7074c-.121.0381-.1816.1199-.1816.2455l-.0403 6.1378c-.0008.0085.0011.017.0054.0244.0044.0073.011.0131.0188.0164.0079.0034.0166.0042.0249.0023.0084-.0019.0159-.0064.0215-.0129l9.2353-8.8451c.3318-.3184.278-.4103-.1615-.2758zm-38.6731 13.0458 5.9898 10.3182c.1502.2578.2421.2388.2758-.0572.547-4.6882 1.0952-9.4169 1.6446-14.1859.343-2.9842.7354-5.7857 1.1771-8.4045.1076-.6458-.0281-.7018-.407-.1682l-8.6669 12.205c-.0672.0941-.0717.1917-.0134.2926zm42.4769-12.7027c-.0137-.0196-.0336-.0341-.0565-.0411-.0229-.0071-.0474-.0063-.0698.0022s-.0413.0242-.0538.0446c-.0124.0205-.0177.0445-.015.0682l2.778 22.984c.0027.0222.0122.0429.0271.0595.015.0165.0348.028.0566.0328s.0446.0027.0651-.006c.0206-.0087.0379-.0236.0496-.0426l6.1109-10.483c.0105-.0182.0154-.039.0142-.0599s-.0084-.041-.0209-.0578zm26.6532 4.4461c.0104-.0182.0155-.0391.0146-.06-.0009-.021-.0077-.0413-.0197-.0586s-.0286-.0308-.0479-.0389c-.0194-.0082-.0407-.0108-.0614-.0073l-14.6298 2.2668c-.0205.0027-.0398.0111-.0558.0243-.016.0131-.0279.0304-.0346.05-.0066.0196-.0077.0406-.003.0608.0047.0201.0149.0385.0295.0532l8.3373 8.64c.0119.0122.0264.0215.0424.0273.016.0057.0331.0077.05.0057.0169-.0019.0332-.0078.0475-.017s.0263-.0216.035-.0362zm-72.231 2.3576c.0132-.0139.0222-.0311.0263-.0498.004-.0186.0028-.038-.0034-.0561-.0063-.018-.0173-.034-.032-.0462-.0148-.0121-.0325-.0201-.0514-.0228l-14.5323-2.2937c-.01947-.0033-.03947-.0009-.05766.0067-.01819.0077-.03383.0204-.04511.0366-.01127.0162-.01771.0353-.01857.055s.0039.0393.01372.0564l6.26896 10.8664c.00799.0145.01931.0269.03303.0362.01372.0092.02944.0151.04588.017.01643.002.03309 0 .04861-.0057s.02946-.0151.04064-.0273zm-7.3721 18.5681 7.5268-17.0783c.1816-.4147.1177-.4573-.1917-.1278-3.1916 3.3834-6.6288 6.8273-9.59175 10.2073-2.20848 2.5224-4.39791 5.0672-6.56828 7.6344-.12107.1435-.08745.2085.10089.1951l8.31714-.5482c.087-.005.1709-.034.2427-.0839.0718-.0498.1286-.1185.1642-.1986zm2.7074-3.7399.0841.0471c.0246.0134.0437.009.0572-.0135 2.0986-3.1075 4.2544-6.1781 6.4673-9.2117.0668-.0928.0945-.2086.0774-.3229-.185-1.1199-.4574-2.6064-.4608-3.5986-.0044-.7264-.1535-.7578-.4473-.0941l-5.8048 13.113c-.0157.0336-.0067.0605.0269.0807zm66.8532-.1581c-1.9574-4.3553-4.0526-8.7308-5.7847-13.1769-.1816-.4664-.3094-.4529-.3833.0404l-.5617 3.7701c-.0135.0897.0067.1726.0605.2489l6.5381 9.2487c.0157.0202.0358.0269.0605.0202.0336-.009.0583-.0213.074-.037.0224-.0224.0213-.0606-.0034-.1144zm-4.89-13.298 7.631 17.3069c.0448.0987.12.1514.2253.1581l8.5997.5751c.0124.0009.0249-.0019.0357-.0081.0109-.0061.0197-.0152.0255-.0263.0057-.0111.008-.0236.0067-.036s-.0062-.0242-.0141-.0338c-2.1816-2.5448-4.3677-5.0773-6.5582-7.5975-3.0437-3.501-6.5279-6.9449-9.7835-10.4359-.0785-.0852-.1356-.065-.1715.0605-.0021.0065-.003.0132-.0024.0195.0006.0064.0026.0124.0058.0175zm-43.3245 1.2612c.001.0177.0064.0349.0158.0501.0094.0153.0225.0281.038.0374l7.4966 4.4528c.0986.0583.1928.0505.2825-.0235l3.6591-3.0538c.1256-.1054.1278-.2141.0067-.3262l-1.1973-1.1065c-.0807-.074-.176-.1121-.2858-.1144l-10.0963-.0773c-.0291 0-.0314.0078-.0067.0235.0538.0337.0829.0796.0874.1379zm29.5119.0707c.021-.0117.0375-.03.0469-.0521s.0112-.0467.005-.0699-.0199-.0436-.0391-.0581-.0426-.0221-.0666-.0217l-9.9046.037c-.0276.0002-.0541.011-.074.0302l-1.4293 1.3453c-.0111.0106-.0197.0234-.0254.0375-.0057.0142-.0084.0295-.0077.0447.0006.0153.0045.0303.0114.0439.0068.0137.0165.0257.0284.0353l3.7399 3.1311c.0171.0145.0383.0232.0606.025s.0446-.0034.0638-.0149zm2.0213-.1009-8.7376 5.2129c-.017.0101-.0313.0242-.0418.041s-.0168.0358-.0185.0556c-.0016.0197.0015.0395.009.0578.0076.0183.0194.0346.0345.0474l10.4158 8.6602c.1053.0896.1502.0661.1345-.0707l-1.722-13.9706c-.0067-.0493-.0313-.0605-.0739-.0336zm-33.5948.1311-1.6917 13.7991c-.0224.1816.037.213.1783.0942l10.3081-8.5727c.0205-.0172.0366-.0389.047-.0635s.0148-.0513.0128-.0779-.0103-.0524-.0242-.0752-.033-.0419-.0558-.0558l-8.6063-5.1323c-.0987-.0583-.1547-.0302-.1682.0841zm15.6287 1.1502c.8542.4126 1.6995.3913 2.5358-.0639.0116-.0069.0215-.0164.0288-.0278.0073-.0113.0119-.0241.0132-.0374.0013-.0132-.0006-.0264-.0056-.0384-.0049-.0121-.0128-.0227-.0229-.0309l-1.2949-1.0628c-.0515-.0403-.0986-.037-.1412.0101-.3229.361-.6973.6592-1.1233.8946-.0319.0181-.0583.0445-.0763.0765-.018.0319-.027.0682-.026.1048.0011.0367.0121.0724.0319.1032.0198.0309.0476.0558.0805.072zm2.6468.9215c-1.1569.5-2.2634.4451-3.3195-.1648-.1031-.0583-.1681-.0291-.195.0875l-1.7926 7.7521c-.0314.1278.0179.1917.148.1917l7.5402-.0034c.0127 0 .0252-.003.0366-.0087.0113-.0058.0213-.0142.029-.0245.0078-.0104.0132-.0224.0158-.0353s.0024-.0262-.0007-.0391l-1.8161-7.8295c-.0246-.0964-.0841-.13-.1782-.1008-.157.0493-.3128.1076-.4675.1748zm-7.8497 3.3901.4944 7.7757c.0449.7332.1491.7421.3128.0269l2.3778-10.4393c.0538-.2444-.0146-.2859-.2052-.1244l-2.8082 2.3575c-.0584.0491-.1043.1112-.1341.1813s-.0426.1463-.0375.2223zm12.0638 8.0515c.0034.0146.0106.028.0209.0388.0104.0108.0234.0187.0378.0228.0144.0042.0297.0044.0442.0006.0145-.0037.0277-.0113.0383-.0219.1076-.1098.1659-.2645.1749-.4641.1099-2.5829.2679-5.1513.4742-7.705.009-.0987-.0247-.1794-.1009-.2422l-2.973-2.5055c-.1368-.1166-.1861-.0875-.148.0874zm-25.4862 1.5067-6.4237-11.0212c-.0515-.0874-.1076-.0896-.1681-.0067l-8.677 12.1915c-.0628.0875-.0549.1682.0235.2422l5.6333 5.2364c.083.0785.1716.0841.2657.0169l9.3295-6.5818c.0118-.0079.0201-.0202.0232-.0345.0031-.0144.0008-.0296-.0064-.0428zm46.284-11.0144c-.0115-.0155-.0267-.0278-.0442-.036s-.0367-.0119-.056-.0109c-.0192.001-.038.0067-.0545.0166-.0166.01-.0304.0238-.0403.0404l-6.3833 10.9538c-.0147.0254-.0193.0553-.0131.0839s.0229.0538.0467.0708l9.3429 6.6019c.0221.0156.0488.0231.0758.0212.0269-.0018.0524-.0128.0722-.0312l5.7241-5.324c.0206-.0197.0334-.0463.0359-.0748.0024-.0284-.0055-.0568-.0224-.0799zm-19.1095 2.0885-.8038 10.668c-.009.1121.0302.204.1177.2758l13.5771 11.2229c.1458.1188.2063.0852.1816-.1009l-1.658-12.4572c-.0237-.1731-.1113-.3313-.2455-.4439l-11.0682-9.2051c-.0606-.0515-.0942-.0381-.1009.0404zm-26.6666 21.4234c4.2308-3.4797 8.4572-6.9752 12.6791-10.4864.0964-.0807.1402-.1838.1312-.3094l-.8408-10.6646c-.0001-.0066-.0021-.013-.0058-.0184-.0037-.0055-.0089-.0097-.015-.0122s-.0128-.0032-.0193-.0019c-.0064.0012-.0124.0044-.0171.009l-11.1691 9.2958c-.0829.0672-.1312.1547-.1446.2623l-1.6581 12.4337c-.0538.4103.0595.463.3397.158.1772-.195.4171-.417.7198-.6659zm17.1656-8.8115c-.0121.0155-.0195.0342-.0214.0537-.0019.0196.0017.0393.0105.0569.0088.0175.0224.0323.0392.0425s.0361.0154.0558.0151l6.1714-.0236c.0156-.0002.031-.004.045-.011.0139-.007.0261-.017.0357-.0293l1.3251-1.7153c.0097-.0121.0165-.0263.02-.0414s.0035-.0308.0002-.046l-1.389-6.0907c-.0038-.0197-.0133-.0379-.0272-.0524-.0139-.0144-.0316-.0246-.0512-.0292-.0195-.0046-.04-.0035-.0589.0032s-.0354.0188-.0477.0347zm4.4999-7.6008c.0127-.0158.0206-.0349.0229-.055.0023-.0202-.0011-.0406-.0099-.0589-.0088-.0182-.0225-.0337-.0397-.0445-.0172-.0107-.0371-.0165-.0574-.0165h-6.279c-.0243.0002-.0479.0086-.0668.0239s-.0321.0365-.0375.0602l-1.3957 5.9461c-.0036.0157-.0037.032-.0002.0477s.0105.0305.0204.0431l1.3789 1.8498c.0098.0134.0225.0244.0373.0321.0147.0077.031.0118.0476.0122.0166.0003.0331-.0032.0481-.0103.0151-.0071.0282-.0176.0385-.0307zm-30.8504 11.418c2.0717 1.7444 4.0986 3.4551 6.0806 5.1322.3094.2624.5729.5482.7904.8576.0177.0245.0422.043.0705.0534s.0591.0121.0884.0048c.0292-.0072.0557-.023.0759-.0454.0202-.0223.0333-.0502.0376-.08l1.6076-12.094c.0019-.0153-.0006-.0308-.0073-.0447-.0066-.0139-.0171-.0256-.0302-.0338-.0131-.0081-.0282-.0123-.0436-.0121s-.0305.0048-.0433.0132l-8.6199 6.1008c-.0116.0083-.0211.0191-.028.0317-.0068.0125-.0107.0264-.0113.0407-.0006.0142.002.0285.0076.0416s.0142.0247.025.034zm48.4533-6.2084c-.0165-.012-.0361-.0189-.0564-.0199-.0204-.0009-.0406.0041-.0581.0144-.0175.0104-.0316.0257-.0406.044-.0089.0183-.0123.0388-.0097.059l1.5941 11.9998c.0022.0189.0094.0367.021.0518.0115.015.0269.0266.0446.0335.0176.0069.0368.0089.0555.0057.0186-.0032.0361-.0114.0505-.0237l6.9449-5.9595c.0122-.0103.0219-.0232.0283-.0378.0064-.0145.0094-.0304.0088-.0463-.0007-.0159-.0049-.0315-.0125-.0455s-.0183-.026-.0313-.0352zm-65.35998 1.4428 11.78118 21.6219c.3476.6367.4541.5986.3195-.1144-.5347-2.8082-.9215-6.649-1.1905-8.6534-.5359-4.0202-1.074-8.0403-1.6144-12.0604-.065-.4843-.0941-.9551-.0874-1.4125.0001-.0173-.0035-.0343-.0103-.0501-.0069-.0158-.017-.03-.0296-.0417-.0127-.0117-.0276-.0206-.0439-.0263-.0163-.0056-.0336-.0078-.0507-.0064l-8.99989.6088c-.09417.0045-.11883.0493-.07399.1345zm79.81158 20.243c3.6793-6.7399 7.3889-13.4662 11.0783-20.2026.0095-.0172.0144-.0365.0143-.0562s-.0052-.0391-.0149-.0564c-.0097-.0174-.0236-.0322-.0406-.0431-.0169-.0109-.0363-.0175-.0564-.0192l-8.9359-.5987c-.0875-.0067-.1368.0337-.148.1211l-2.9361 22.3786c-.0044.0448.0146.0605.0572.0471.1906-.0606.3072-.1424.3498-.2456.1883-.4529.3991-.8946.6323-1.325zm-8.4248-6.834c-.3901.8789-.8318 1.7881-1.3251 2.7275-.0587.1128-.0787.2417-.0568.3669.0218.1253.0844.2398.1779.3259l7.2039 6.6927c.0192.0181.0431.0306.0689.0362.0258.0055.0527.0038.0776-.0049.025-.0086.0471-.024.064-.0443.0168-.0203.0278-.0449.0317-.071l3.084-23.5624c.0134-.0987-.0157-.1133-.0875-.0438-1.6412 1.5493-3.2925 3.0886-4.9539 4.6177-.444.4069-.6558.8273-.8913 1.3553-1.1322 2.5336-2.2634 5.0683-3.3934 7.6042zm-55.7043-8.482c-.0054-.0127-.0135-.0241-.0235-.0336l-5.334-4.9304c-.0153-.014-.0345-.0229-.055-.0256s-.0413.001-.0597.0105c-.0183.0096-.0333.0245-.0429.0429-.0095.0183-.0133.0391-.0106.0596l3.0605 23.4515c.0015.0191.0085.0375.02.0529.0116.0153.0273.027.0454.0338.018.0067.0376.0081.0564.0041.0188-.0041.036-.0134.0497-.0269l7.4865-6.9248c.016-.0145.0269-.0338.0311-.055.0043-.0212.0016-.0432-.0076-.0627zm25.4828 5.8116c-1.2107-2.0044-.8307-4.9203 1.2007-6.2622.0242-.0161.0449-.037.0607-.0615.0158-.0244.0264-.0518.0311-.0806.0047-.0287.0035-.0581-.0036-.0863s-.02-.0546-.0378-.0777l-3.0403-4.0257c-.0073-.01-.0165-.0184-.0272-.0248-.0106-.0063-.0225-.0104-.0348-.0119-.0122-.0016-.0247-.0006-.0366.0028s-.023.0092-.0326.0171l-7.6478 6.3194c-.0785.0628-.0976.1413-.0572.2354l2.7679 6.3833c.0448.0987.1199.1435.2253.1346 2.5829-.2388 4.3755-1.305 6.5616-2.2399.1076-.0471.1311-.1211.0706-.222zm8.6568-.5751c-.0717.1884-.1502.3789-.2354.5718-.0426.0986-.0135.1692.0874.2118 1.0785.4597 2.1513.9328 3.2186 1.4193 1.1367.5179 2.2432.6558 3.4338.8946.0315.0059.064.0011.0922-.0136.0281-.0146.0501-.0383.0625-.0671l2.7847-6.4035c.065-.1525.0348-.2814-.0908-.3868l-7.5268-6.2185c-.0147-.0125-.0319-.0219-.0504-.0276-.0185-.0056-.038-.0074-.0573-.0052-.0192.0022-.0378.0084-.0546.0181-.0167.0097-.0313.0227-.0428.0383l-3.0874 4.066c-.0182.0235-.0265.0532-.0234.0832.0031.0299.0175.0579.0402.0783 1.8408 1.5291 2.3239 3.4427 1.4495 5.7409zm-1.0964-7.9404c.0121-.0156.0195-.0342.0214-.0537.0019-.0196-.0017-.0393-.0105-.0569s-.0224-.0323-.0392-.0425-.0361-.0154-.0558-.0151l-6.3799.0874c-.0194.0003-.0383.006-.0546.0165-.0163.0104-.0294.0252-.0377.0427-.0084.0174-.0118.0369-.0097.0561.002.0193.0094.0376.0213.0529l3.1546 4.1872c.0097.0132.0224.0239.037.0313s.0307.0113.0471.0113.0325-.0039.0471-.0113c.0147-.0074.0273-.0181.037-.0313zm-6.39 8.1893 2.4786-1.1166c.1189-.0516.1772-.1435.1749-.2758l-.0134-1.3251c-.0021-.0701-.0256-.1381-.0673-.195l-1.769-2.361c-.0381-.0515-.0807-.056-.1278-.0134-1.4933 1.3486-2.1995 3.38-.9114 5.2196.0605.0875.139.1099.2354.0673zm3.7297-1.0762 2.4114 1.0762c.1301.0583.2254.0247.2859-.1009.9686-1.9529.6592-3.6434-.9282-5.0717-.0875-.0785-.1659-.0706-.2354.0236l-1.6177 2.1827c-.0538.074-.0807.1558-.0807.2455l-.0068 1.3755c0 .1278.0572.2175.1715.2691zm22.9806 6.4707c.0091.0168.0227.0307.0392.0403.0164.0096.0353.0145.0543.0142.0191-.0004.0377-.0059.0539-.0161.0161-.0102.0291-.0247.0376-.0417l4.1132-9.0638c.0102-.0219.0125-.0466.0065-.0699-.006-.0234-.0198-.044-.0393-.0582-.0194-.0143-.0432-.0214-.0673-.0201-.024.0013-.0469.0109-.0647.0271l-6.084 5.2499c-.0184.0151-.0311.036-.036.0592-.0048.0233-.0017.0475.0091.0686zm-51.4633-8.8888 4.0156 8.8653c.0099.0223.026.0413.0464.0548.0204.0134.0442.0208.0686.0211.0244.0004.0484-.0063.0692-.0191.0207-.0129.0374-.0314.0479-.0535l1.9237-3.7634c.0164-.0304.0216-.0657.0149-.0999-.0067-.0343-.025-.0655-.0519-.0884l-5.9124-5.0817c-.3251-.2803-.3991-.2254-.222.1648zm39.4568 7.4057c-.0098.0235-.0278.0427-.0507.0538-.023.0112-.0492.0136-.0737.0067l-1.2781-.3565c-.0193-.0059-.0399-.006-.0594-.0004-.0194.0057-.0367.0168-.0499.0322-.0132.0153-.0216.0341-.0243.0541-.0027.0201.0005.0405.0092.0587l1.3184 2.8419c.0095.0212.0117.0449.0062.0674-.0055.0226-.0183.0426-.0365.057l-10.8631 8.5728c-.0123.0095-.0223.0218-.0293.0357-.007.014-.0108.0294-.011.045l.0034 2.7544c.0004.0197.0064.0389.0172.0553.0109.0164.0262.0294.0441.0375.018.0081.0378.0109.0573.0082s.0378-.0109.0529-.0236l19.54-16.7554c.0114-.0097.0205-.0219.0268-.0355.0063-.0137.0095-.0285.0095-.0435s-.0032-.0298-.0095-.0435c-.0063-.0136-.0154-.0257-.0268-.0355l-5.3676-4.4495c-.0126-.0101-.0273-.0172-.043-.0207-.0158-.0035-.0321-.0032-.0478.0007-.0156.0039-.0301.0114-.0424.0219-.0123.0104-.0219.0236-.0282.0385zm-21.7396-.1346c.0083-.0179.0114-.0378.0088-.0574s-.0108-.0381-.0235-.0533c-.0126-.0151-.0294-.0264-.0482-.0324-.0189-.006-.039-.0065-.0582-.0015l-1.2511.3363c-.0245.0069-.0507.0045-.0737-.0066-.0229-.0112-.0409-.0303-.0507-.0539l-3.0437-7.0223c-.0063-.0149-.0159-.028-.0282-.0385s-.0268-.018-.0424-.0219c-.0157-.0039-.032-.0041-.0478-.0007-.0157.0035-.0304.0106-.043.0207l-5.371 4.4562c-.0114.0098-.0205.022-.0268.0356-.0062.0136-.0094.0285-.0094.0435s.0032.0298.0094.0434c.0063.0137.0154.0258.0268.0356l19.6006 16.8058c.015.0127.0334.0209.0528.0236.0195.0027.0394-.0001.0573-.0082.018-.0081.0333-.0211.0441-.0375.0109-.0164.0169-.0356.0173-.0553l-.0336-2.7948c-.0003-.0156-.004-.0309-.011-.0449s-.017-.0262-.0294-.0358l-10.8697-8.5828c-.0182-.0144-.0311-.0345-.0365-.057-.0055-.0226-.0033-.0463.0062-.0674zm10.742-3.8004c-.0157-.0065-.0328-.0092-.0497-.0077-.017.0016-.0333.0072-.0476.0165-.0142.0093-.026.0219-.0343.0368-.0082.0149-.0127.0316-.013.0486l.0067 1.6547c.0003.017.0048.0337.0131.0486.0082.0149.02.0275.0343.0368.0142.0093.0306.015.0475.0165.017.0015.034-.0011.0497-.0077l1.4496-.602c.0109-.0039.0211-.0096.0302-.0169l.3498-.306c.0134-.0115.0237-.0263.0298-.0429.0062-.0166.008-.0345.0053-.052s-.0098-.034-.0207-.048c-.0108-.014-.025-.025-.0413-.032zm-1.0426.1783c.0002-.0321-.0075-.0638-.0225-.0922s-.0368-.0526-.0634-.0706-.0573-.0291-.0892-.0324c-.032-.0033-.0642.0014-.0939.0136l-1.759.7365c-.0356.0145-.0661.0393-.0877.0711s-.0333.0693-.0337.1077c-.0004.0385.0107.0762.0317.1084s.051.0575.0864.0727l1.7286.7432c.0294.0127.0614.018.0933.0154s.0626-.013.0895-.0303c.0269-.0172.0492-.0409.0648-.0688s.0242-.0592.0248-.0911zm7.2645 2.5459-3.1883-1.4159c-.0897-.0403-.1682-.0246-.2354.0471-.722.7825-1.6211 1.2421-2.6973 1.3789-.0675.0082-.1297.0407-.1749.0915s-.0703.1163-.0706.1843l-.0034 1.1872c.0003.0313.0075.0621.0212.0902.0136.0281.0332.0527.0574.0721.0243.0194.0524.033.0825.0398.03.0069.0612.0067.0912-.0003l6.0873-1.3789c.3072-.0695.3173-.1682.0303-.296zm-10.6714-1.4293c-.9887.5246-1.9103.9921-2.8721 1.3049-.5561.1816-.5493.3397.0202.4742l6.1411 1.4529c.0695.0157.1043-.0123.1043-.0841l-.0135-1.5639c0-.0515-.0269-.0796-.0807-.0841-1.1883-.1143-2.1883-.5986-3-1.4528-.0874-.0897-.1872-.1054-.2993-.0471zm3.2085 23.1487c.0153.0119.0336.0193.0529.0213.0192.0021.0387-.0013.0561-.0097.0175-.0083.0323-.0214.0427-.0377s.0161-.0352.0164-.0546v-4.6546c-.0003-.0148-.0037-.0294-.0101-.0427s-.0155-.0252-.0268-.0347l-20.3035-17.4044c-.0119-.0105-.026-.0181-.0413-.0223s-.0313-.0049-.0468-.0019c-.0156.0029-.0303.0093-.043.0187-.0127.0095-.0231.0217-.0304.0357l-2.1289 4.1939c-.0112.0219-.0144.0471-.0088.0711.0055.0241.0194.0453.0391.0601zm1.1367-4.8329c-.0113.0096-.0204.0214-.0268.0347-.0064.0134-.0098.0279-.0101.0427l.0033 4.6513c.0003.0193.006.0382.0165.0545.0104.0163.0252.0294.0426.0378.0175.0084.037.0117.0562.0097.0193-.0021.0376-.0095.0529-.0213l22.3987-17.835c.0198-.0147.0336-.036.0392-.06.0055-.024.0024-.0492-.0089-.0711l-2.1255-4.2006c-.0073-.0141-.0177-.0263-.0304-.0357-.0127-.0095-.0274-.0159-.043-.0188-.0155-.0029-.0315-.0023-.0468.0019s-.0294.0118-.0413.0223zm.0438-14.1825c-.022.0053-.0415.0177-.0555.0354-.0141.0177-.0218.0396-.0219.0621l-.0033 8.3945c-.0006.0194.0045.0384.0145.055.01.0165.0246.0298.0419.0383.0174.0085.0368.0118.056.0096s.0374-.0099.0523-.0221l9.538-7.5369c.0166-.0141.0282-.0332.033-.0544.0049-.0212.0027-.0434-.0061-.0633l-1.241-2.7848c-.0095-.0212-.0261-.0385-.047-.049-.0208-.0104-.0446-.0133-.0673-.0081zm-1.1973 8.5761c.0167.0131.0367.0214.0578.0237.0211.0024.0425-.0011.0617-.0102s.0355-.0234.0471-.0412c.0115-.0178.0179-.0385.0183-.0597v-8.3004c0-.0256-.0086-.0504-.0245-.0706-.0158-.0201-.038-.0343-.0629-.0403l-8.3272-1.9877c-.0259-.0063-.0532-.0033-.0771.0083-.024.0117-.0431.0314-.0541.0556l-1.1905 2.7713c-.0099.023-.012.0486-.0059.0729.006.0243.0199.046.0395.0616z" fill="#000"/></svg>