<svg fill="none" height="222" viewBox="0 0 846 222" width="846" xmlns="http://www.w3.org/2000/svg"><g fill="#fff"><path d="m330.167 221.428c-.192 0-.403 0-.633 0-5.755-1.726-11.549-3.357-17.38-4.892-22.503-6.042-29.524-22.444-29.696-45.465-.461-68.715-.423-112.3577.115-130.9273 1.381-50.1842 86.556-55.4213 94.843-3.7408 3.069 19.4137 3.587 38.9426 1.554 58.5865-.115.9976-.691 1.4963-1.727 1.4963l-37.235-.0575c-.729 0-1.093-.3837-1.093-1.151l-.288-47.134c-.013-1.4894-.561-2.9246-1.543-4.0442-.982-1.1197-2.334-1.8493-3.809-2.0562l-2.532-.3453c-1.054-.1484-2.127-.0687-3.147.2336-1.019.3024-1.962.8204-2.765 1.5189-.802.6985-1.445 1.5613-1.884 2.5299-.44.9686-.667 2.0204-.664 3.0841v122.007c-.001.869.173 1.729.511 2.53.337.8.832 1.525 1.454 2.131s1.36 1.081 2.169 1.398c.809.316 1.673.468 2.541.445l2.187-.116c2.051-.059 3.998-.917 5.427-2.389s2.228-3.443 2.228-5.495v-44.774c0-.227.044-.452.131-.661.087-.21.214-.4.374-.56.161-.161.351-.288.56-.374.21-.087.434-.132.661-.132l36.545-.23c1.074 0 1.669.537 1.784 1.611 2.302 20.181 1.726 40.19-1.727 60.026-4.949 28.832-23.02 31.019-46.961 36.947z"/><path d="m35.5087 82.3898c-4.4314 45.9832 5.9277 86.2112 4.8343 130.2942-.0384 1.919-1.0359 2.878-2.9927 2.878h-34.53032c-1.879986 0-2.81998-.94-2.81998-2.82v-207.3549c0-1.15102.556322-1.72652 1.66897-1.72652l44.25643.17265c.4123-.00369.813.14514 1.1297.41958.3166.27444.5283.65638.5968 1.07674l19.6823 132.76945c.0858.617.4124 1.175.9084 1.553.496.377 1.1211.543 1.7389.461l1.4388-.115c.3453-.038.518-.249.518-.633l-8.6326-133.9779c-.0768-1.18938.4796-1.78407 1.6689-1.78407l36.5444.1151c.535 0 1.047.20615 1.425.57311.377.36696.59.86465.59 1.38361v207.12515c0 1.879-.94 2.819-2.82 2.819l-42.8756-.057c-.6488.003-1.2749-.239-1.7545-.675-.4795-.437-.7776-1.038-.8353-1.685-3.4914-31.346-7.731-62.097-12.7187-92.253-1.6114-9.381-1.151-26.2433-4.7767-38.7318-1.1126-3.9135-1.8608-3.8559-2.2445.1726z"/><path d="m160.972 177.46 27.049.172c.488 0 .957.194 1.302.54.345.345.54.813.54 1.302v34.243c0 .488-.195.956-.54 1.302-.345.345-.814.539-1.302.539h-68.313c-.488 0-.957-.194-1.302-.539-.345-.346-.539-.814-.539-1.302v-208.04592c0-.48843.194-.95685.539-1.30223.345-.34537.814-.53939 1.302-.53939l68.198-.1151c.488 0 .957.19402 1.302.53939s.539.8138.539 1.30223l.518 34.93322c.008.2516-.035.5021-.128.7361-.093.2341-.232.4466-.41.6246s-.391.3176-.625.4102-.484.1363-.736.1283l-27.451-.1151c-.489 0-.957.194-1.303.5394-.345.3453-.539.8138-.539 1.3022v44.5442c0 .4884.194.9568.539 1.3022.346.3454.814.5394 1.303.5394l27.048.0575c.489 0 .957.1941 1.303.5394.345.3454.539.8138.539 1.3022v34.8762c0 .488-.194.956-.539 1.302-.346.345-.814.539-1.303.539l-27.048-.057c-.489 0-.957.194-1.303.539-.345.345-.539.814-.539 1.302l.057 44.717c0 .488.195.957.54 1.302.345.346.814.54 1.302.54z"/><path d="m211.784 42.2747-15.884.1726c-.345.0077-.688-.0536-1.009-.1803-.321-.1268-.613-.3163-.86-.5576-.246-.2412-.442-.5293-.576-.8473s-.203-.6596-.203-1.0046l-.575-33.55197c-.008-.3449.054-.68787.18-1.00875.127-.32088.317-.6132.558-.85982.241-.24661.529-.44253.847-.57626.318-.13374.66-.20258 1.005-.2025l78.614.34531c.687 0 1.345.27285 1.831.75853.486.48567.759 1.14439.759 1.83124v33.14912c0 .6869-.273 1.3456-.759 1.8313s-1.144.7585-1.831.7585h-15.711c-.687 0-1.346.2729-1.832.7585-.485.4857-.758 1.1444-.758 1.8313v168.105c0 .687-.273 1.346-.759 1.832-.485.485-1.144.758-1.831.758l-36.027-.057c-.34 0-.677-.067-.991-.198-.314-.13-.599-.32-.84-.561-.24-.24-.431-.526-.561-.84-.131-.314-.198-.651-.198-.991v-168.1056c0-.6868-.272-1.3455-.758-1.8312s-1.144-.7585-1.831-.7585z"/><path d="m431.86 130.844-.058 44.889c0 .473.188.927.523 1.262.334.334.788.522 1.261.522h26.474c.473 0 .926.188 1.261.523.335.334.523.788.523 1.261v34.473c0 .473-.188.927-.523 1.262-.335.334-.788.522-1.261.522h-66.932c-.473 0-.927-.188-1.261-.522-.335-.335-.523-.789-.523-1.262v-208.27558c0-.47316.188-.92694.523-1.26152.334-.33458.788-.52254 1.261-.52254l66.011.05755c.473 0 .927.18796 1.261.52254.335.33458.523.78836.523 1.26153l.23 35.04832c0 .4732-.188.9269-.523 1.2615-.334.3346-.788.5226-1.261.5226l-25.725-.1151c-.473 0-.927.1879-1.262.5225-.334.3346-.522.7884-.522 1.2615l-.058 44.6593c0 .4732.188.927.523 1.2615.334.3346.788.5226 1.261.5226h26.474c.473 0 .926.1879 1.261.5225s.523.7884.523 1.2615v35.0483c0 .473-.188.927-.523 1.262-.335.334-.788.522-1.261.522l-26.416-.057c-.473 0-.927.188-1.262.522-.334.335-.522.788-.522 1.262z"/><path d="m486.419 42.3299h-19.107c-.503 0-.986-.2001-1.343-.5562-.356-.3562-.556-.8393-.556-1.343v-34.76053c0-.50369.2-.98676.556-1.34292.357-.35616.84-.55625 1.343-.55625l81.147.1151c.503 0 .986.20009 1.343.55625.356.35617.556.83923.556 1.34292v34.64543c0 .5037-.2.9868-.556 1.343-.357.3561-.84.5562-1.343.5562h-17.093c-.504 0-.987.2001-1.343.5563-.356.3561-.556.8392-.556 1.3429v169.4869c0 .249-.049.496-.145.726-.095.231-.235.44-.411.617-.177.176-.386.316-.616.411-.231.096-.478.145-.727.145l-37.351-.115c-.249 0-.496-.049-.726-.145-.231-.095-.44-.235-.616-.412-.177-.176-.317-.385-.412-.616-.096-.23-.145-.477-.145-.726v-169.3719c0-.5037-.2-.9868-.556-1.3429-.356-.3562-.839-.5563-1.343-.5563z"/><path d="m600.368 90.4998 25.092.0575c.488 0 .957.194 1.302.5394s.54.8138.54 1.3022v34.9331c0 .489-.195.957-.54 1.302-.345.346-.814.54-1.302.54l-25.092-.173c-.489 0-.957.194-1.302.54-.346.345-.54.813-.54 1.302v44.947c0 .488.194.957.54 1.302.345.345.813.539 1.302.539l25.092-.115c.488 0 .957.194 1.302.54.345.345.54.813.54 1.302v34.358c0 .488-.195.956-.54 1.302-.345.345-.814.539-1.302.539h-66.816c-.489 0-.957-.194-1.303-.539-.345-.346-.539-.814-.539-1.302v-208.10338c0-.48843.194-.95685.539-1.30223.346-.34537.814-.53939 1.303-.53939l66.816.05755c.488 0 .957.19402 1.302.5394.345.34537.54.81379.54 1.30222v34.81813c0 .4884-.195.9568-.54 1.3022s-.814.5394-1.302.5394h-25.092c-.489 0-.957.194-1.302.5394-.346.3454-.54.8138-.54 1.3022v44.4867c0 .4884.194.9568.54 1.3022.345.3453.813.5394 1.302.5394z"/><path d="m713.687 120.889c2.647 1.343 5.563 1.707 8.747 1.093 2.187-.422 3.684.403 4.489 2.475 5.468 13.985 1.727 27.452 6.849 40.976 1.573 4.105 2.398 8.422 2.474 12.949.269 11.74 2.456 23.155 6.561 34.243.729 1.995.019 2.992-2.129 2.992l-39.94-.115c-.527.002-1.037-.198-1.43-.559-.393-.362-.642-.859-.7-1.398l-7.481-65.377c-.307-2.839-1.88-4.259-4.719-4.259h-2.935c-2.801-.038-4.202 1.324-4.202 4.086v66.126c0 .998-.498 1.496-1.496 1.496l-37.753-.057c-1.305 0-1.957-.672-1.957-2.015v-206.49115c0-2.03345 1.017-3.06936 3.05-3.10773 36.948-.51795 79.593-9.49585 91.103 27.68188 7.424 23.941 10.532 71.938-18.416 84.714-.44.179-.816.482-1.084.873-.268.39-.417.852-.43 1.33-.012.479.114.954.361 1.369.248.416.608.754 1.038.975zm-19.913-72.1685c.01-.8893-.22-1.7648-.666-2.5345-.445-.7697-1.09-1.4051-1.866-1.8393l-4.547-2.4747c-.753-.4215-1.603-.6387-2.466-.6302-.863.0086-1.708.2426-2.453.6789-.744.4362-1.362 1.0596-1.791 1.8082s-.656 1.5964-.656 2.4594l-.058 54.9037c-.005.871.22 1.728.652 2.485.432.756 1.057 1.385 1.81 1.823s1.609.67 2.48.671c.872.001 1.728-.227 2.482-.663l4.547-2.59c.757-.437 1.384-1.066 1.819-1.825.435-.758.661-1.6173.656-2.4912z"/><path d="m789.364 189.375-.921 23.826c-.029.636-.303 1.236-.764 1.676-.461.439-1.074.684-1.71.683h-37.236c-.34.001-.676-.068-.988-.203-.313-.135-.593-.333-.826-.581-.232-.249-.41-.542-.524-.863-.114-.32-.16-.661-.136-1l14.56-206.72181c.044-.62595.324-1.2119.783-1.63928s1.064-.66427 1.692-.66274h65.953c.627-.00153 1.232.23536 1.691.66274.46.42738.739 1.01333.783 1.63928l14.273 206.72181c.023.339-.023.68-.137 1-.113.321-.292.614-.524.863-.232.248-.513.446-.825.581s-.649.204-.989.203h-37.062c-.637.001-1.25-.244-1.711-.683-.461-.44-.735-1.04-.764-1.676l-1.209-23.884c-.029-.636-.303-1.236-.764-1.676-.461-.439-1.074-.684-1.71-.683l-8.46.057c-.637 0-1.25.244-1.711.684-.461.439-.734 1.04-.764 1.676zm2.014-37.063 8.518.058c.311 0 .61-.119.835-.334.225-.214.358-.507.373-.817l.058-1.266c.099-14.231.056-28.323-.127-41.472-.184-13.1477-.504-25.0934-.942-35.1533-.438-10.0598-.986-18.0364-1.613-23.4733-.626-5.4369-1.318-8.2275-2.037-8.212-1.449.0283-2.917 11.4382-4.083 31.7241-1.165 20.2858-1.932 47.7895-2.133 76.4715l-.057 1.266c0 .32.127.628.354.854.226.227.534.354.854.354z"/></g></svg>