<svg fill="none" height="225" viewBox="0 0 860 225" width="860" xmlns="http://www.w3.org/2000/svg"><g fill="#000"><path d="m335.493 225c-.195 0-.41 0-.644 0-5.847-1.754-11.734-3.411-17.66-4.971-22.866-6.14-30-22.807-30.175-46.198-.468-69.824-.429-114.1706.117-133.0398 1.403-50.9936 87.952-56.3152 96.373-3.8011 3.119 19.7269 3.645 39.5708 1.579 59.5316-.117 1.0136-.702 1.5205-1.755 1.5205l-37.835-.0585c-.741 0-1.112-.3899-1.112-1.1696l-.292-47.8943c-.013-1.5134-.57-2.9718-1.568-4.1095s-2.372-1.8791-3.87-2.0893l-2.574-.3508c-1.07-.1509-2.16-.0699-3.196.2373-1.037.3072-1.995.8336-2.81 1.5434s-1.468 1.5865-1.915 2.5707-.677 2.053-.675 3.1339v123.9755c0 .883.176 1.757.519 2.57s.846 1.55 1.478 2.166 1.382 1.099 2.204 1.42c.822.322 1.7.475 2.583.452l2.222-.117c2.084-.061 4.062-.932 5.514-2.428 1.453-1.496 2.264-3.499 2.264-5.584v-45.496c0-.231.045-.459.133-.672.088-.212.217-.406.38-.569s.357-.292.57-.38c.212-.088.441-.134.671-.134l37.134-.233c1.092 0 1.696.545 1.813 1.637 2.339 20.507 1.754 40.838-1.754 60.994-5.03 29.297-23.392 31.52-47.719 37.543z"/><path d="m36.0815 83.7184c-4.5029 46.7246 6.0234 87.6016 4.9123 132.3966-.039 1.949-1.0527 2.924-3.0409 2.924h-35.08743c-1.910313 0-2.86547-.955-2.86547-2.866v-210.69951c0-1.16958.565297-1.75437 1.69589-1.75437l44.97031.17544c.419-.00375.8262.14748 1.1479.42635.3218.27887.5369.66696.6065 1.0941l19.9998 134.91099c.0872.627.419 1.195.923 1.578.504.384 1.1392.552 1.767.469l1.462-.117c.3509-.039.5263-.254.5263-.643l-8.7718-136.13951c-.078-1.20856.4873-1.81285 1.6959-1.81285l37.1342.11696c.543 0 1.063.20948 1.447.58236.384.37287.6.8786.6 1.40593v210.46611c0 1.91-.955 2.865-2.866 2.865l-43.5666-.058c-.6593.002-1.2955-.243-1.7828-.687s-.7902-1.054-.8488-1.711c-3.5477-31.851-7.8557-63.099-12.9238-93.742-1.6374-9.532-1.1696-26.6661-4.8538-39.3561-1.1306-3.9765-1.8908-3.9181-2.2807.1755z"/><path d="m163.568 180.323 27.486.175c.496 0 .972.198 1.323.548.351.351.548.827.548 1.324v34.795c0 .496-.197.972-.548 1.323s-.827.548-1.323.548h-69.415c-.496 0-.972-.197-1.323-.548s-.548-.827-.548-1.323v-211.40181c0-.49631.197-.97229.548-1.32323s.827-.5481 1.323-.5481l69.298-.11696c.496 0 .972.19716 1.323.5481s.548.82692.548 1.32323l.526 35.49677c.008.2556-.036.5102-.13.748s-.236.4538-.417.6346c-.181.1809-.397.3227-.635.4168-.237.0941-.492.1385-.748.1304l-27.894-.117c-.496 0-.972.1972-1.323.5481-.351.351-.548.8269-.548 1.3232v45.2628c0 .4963.197.9723.548 1.3232s.827.5481 1.323.5481l27.485.0585c.496 0 .972.1971 1.323.5481.351.3509.548.8269.548 1.3232v35.438c0 .497-.197.973-.548 1.323-.351.351-.827.549-1.323.549l-27.485-.059c-.496 0-.972.197-1.323.548s-.548.827-.548 1.323l.058 45.439c0 .496.197.972.548 1.323s.827.548 1.323.548z"/><path d="m215.2 42.9572-16.14.1754c-.35.0078-.699-.0545-1.025-.1833-.326-.1287-.623-.3213-.874-.5665-.25-.2451-.449-.5379-.585-.861-.136-.3232-.206-.6702-.206-1.0208l-.585-34.09319c-.008-.35047.055-.69897.184-1.02502.128-.32606.321-.6231.566-.87369s.538-.44968.861-.58557.67-.20584 1.021-.20576l79.882.35088c.698 0 1.367.27725 1.861.77076.493.49351.771 1.16286.771 1.86079v33.6839c0 .6979-.278 1.3673-.771 1.8608-.494.4935-1.163.7707-1.861.7707h-15.965c-.698 0-1.367.2773-1.86.7708-.494.4935-.771 1.1629-.771 1.8608v170.8168c0 .698-.277 1.368-.771 1.861-.493.494-1.163.771-1.861.771l-36.608-.059c-.345 0-.687-.068-1.007-.2-.319-.132-.609-.326-.853-.57-.245-.245-.439-.535-.571-.854s-.2-.662-.2-1.007v-170.8173c0-.6979-.277-1.3673-.771-1.8608-.493-.4935-1.163-.7707-1.861-.7707z"/><path d="m438.826 132.955-.058 45.614c0 .48.191.941.531 1.281s.801.531 1.282.531h26.9c.481 0 .942.191 1.282.531s.531.801.531 1.282v35.029c0 .481-.191.942-.531 1.282s-.801.531-1.282.531h-68.011c-.481 0-.942-.191-1.282-.531s-.531-.801-.531-1.282v-211.63525c0-.4808.191-.9419.531-1.28188.34-.33997.801-.53097 1.282-.53097l67.075.05848c.481 0 .942.191 1.282.53097.34.33998.531.80108.531 1.28188l.234 35.61367c0 .4808-.191.9419-.531 1.2819s-.801.531-1.282.531l-26.14-.117c-.481 0-.942.191-1.282.531s-.531.8011-.531 1.2819l-.058 45.3796c0 .4808.191.9419.531 1.2819s.801.531 1.282.531h26.9c.481 0 .942.191 1.282.531.34.3399.531.801.531 1.2818v35.614c0 .481-.191.942-.531 1.282s-.801.531-1.282.531l-26.842-.059c-.481 0-.942.191-1.282.531s-.531.801-.531 1.282z"/><path d="m494.265 43.0129h-19.415c-.512 0-1.003-.2033-1.365-.5652s-.565-.8527-.565-1.3646v-35.32126c0-.51182.203-1.00267.565-1.36458s.853-.56523 1.365-.56523l82.455.11696c.512 0 1.003.20332 1.365.56523s.565.85276.565 1.36458v35.2043c0 .5119-.203 1.0027-.565 1.3646s-.853.5652-1.365.5652h-17.368c-.512 0-1.003.2034-1.365.5653-.361.3619-.565.8527-.565 1.3646v172.2202c0 .254-.05.505-.147.739s-.239.447-.418.626-.392.321-.626.418-.485.147-.739.147l-37.952-.117c-.254 0-.505-.05-.739-.147s-.447-.239-.626-.418-.321-.392-.418-.626-.147-.485-.147-.739v-172.1032c0-.5119-.204-1.0027-.565-1.3646-.362-.3619-.853-.5653-1.365-.5653z"/><path d="m610.053 91.9598 25.496.0585c.497 0 .973.1972 1.324.5481.351.351.548.8269.548 1.3232v35.4964c0 .497-.197.973-.548 1.324s-.827.548-1.324.548l-25.496-.176c-.497 0-.973.197-1.324.548s-.548.827-.548 1.324v45.672c0 .496.197.972.548 1.323s.827.548 1.324.548l25.496-.117c.497 0 .973.197 1.324.548s.548.827.548 1.323v34.912c0 .497-.197.973-.548 1.324-.351.35-.827.548-1.324.548h-67.894c-.496 0-.972-.198-1.323-.548-.351-.351-.548-.827-.548-1.324v-211.45964c0-.49631.197-.97229.548-1.32323s.827-.5481 1.323-.5481l67.894.05848c.497 0 .973.19716 1.324.5481s.548.82692.548 1.32323v35.37976c0 .4963-.197.9723-.548 1.3232-.351.351-.827.5481-1.324.5481h-25.496c-.497 0-.973.1972-1.324.5481-.351.351-.548.827-.548 1.3233v45.2042c0 .4963.197.9723.548 1.3232.351.351.827.5481 1.324.5481z"/><path d="m725.198 122.839c2.69 1.365 5.653 1.735 8.889 1.111 2.222-.429 3.743.41 4.562 2.515 5.555 14.21 1.754 27.894 6.959 41.637 1.598 4.171 2.436 8.557 2.514 13.158.273 11.929 2.495 23.528 6.667 34.795.741 2.027.019 3.04-2.164 3.04l-40.584-.116c-.536.001-1.053-.202-1.453-.569s-.653-.873-.711-1.42l-7.602-66.432c-.312-2.885-1.911-4.327-4.796-4.327h-2.982c-2.846-.039-4.269 1.345-4.269 4.152v67.192c0 1.014-.507 1.52-1.52 1.52l-38.363-.058c-1.325 0-1.988-.682-1.988-2.047v-209.82231c0-2.06626 1.033-3.11888 3.099-3.15786 37.544-.52631 80.877-9.64903 92.573 28.12837 7.543 24.3273 10.701 73.0988-18.714 86.0808-.446.182-.829.49-1.101.886-.273.397-.424.866-.436 1.353-.013.486.115.969.366 1.391.252.422.618.766 1.054.99zm-20.233-73.3325c.01-.9037-.224-1.7933-.677-2.5754s-1.108-1.4278-1.896-1.869l-4.62-2.5146c-.765-.4283-1.629-.649-2.506-.6403-.877.0086-1.736.2464-2.493.6897-.756.4433-1.384 1.0767-1.82 1.8374s-.666 1.6222-.667 2.4991l-.058 55.7886c-.005.886.223 1.757.662 2.526.439.768 1.074 1.408 1.839 1.853.766.445 1.635.68 2.521.681.885.001 1.755-.231 2.522-.674l4.62-2.631c.769-.444 1.406-1.084 1.848-1.854.442-.771.672-1.644.666-2.532z"/><path d="m802.098 192.429-.936 24.211c-.03.646-.308 1.256-.777 1.703-.468.446-1.091.695-1.738.694h-37.836c-.345.001-.687-.069-1.004-.206-.317-.138-.603-.339-.839-.591s-.417-.551-.533-.876c-.115-.326-.162-.672-.138-1.017l14.795-210.05617c.044-.63605.329-1.23145.796-1.66573.467-.43427 1.081-.67499 1.719-.67343h67.016c.638-.00156 1.252.23916 1.719.67343.467.43428.752 1.02968.796 1.66573l14.503 210.05617c.024.345-.023.691-.139 1.017-.115.325-.297.624-.533.876s-.521.453-.838.591c-.317.137-.659.207-1.005.206h-37.66c-.647.001-1.27-.248-1.738-.694-.468-.447-.747-1.057-.777-1.703l-1.228-24.269c-.03-.647-.308-1.256-.776-1.703-.469-.447-1.091-.695-1.738-.695l-8.597.059c-.647-.001-1.269.248-1.738.694-.468.447-.746 1.057-.776 1.703zm2.046-37.66 8.655.058c.316.001.62-.121.849-.338.228-.218.364-.516.379-.831l.059-1.287c.101-14.46.057-28.78-.129-42.14-.187-13.3601-.512-25.4985-.957-35.7206-.446-10.2222-1.003-18.3274-1.639-23.852-.636-5.5247-1.34-8.3602-2.071-8.3445-1.472.0288-2.964 11.6227-4.148 32.2358s-1.964 48.5603-2.167 77.7043l-.059 1.287c0 .326.13.638.36.868.23.231.543.36.868.36z"/></g></svg>