<svg fill="none" height="85" viewBox="0 0 871 85" width="871" xmlns="http://www.w3.org/2000/svg"><path d="m0 84.0955v-83.331866h71.4273v11.904566h11.9045v23.8091h-11.9045v11.9045h11.9045v23.8091h-11.9045v11.9046zm23.8091-47.6182h35.7136v-23.8091h-35.7136zm0 35.7136h35.7136v-23.8091h-35.7136zm75.5718 11.9046v-11.9046h23.8091v-59.5227h-11.905v-11.904566h35.714v71.427266h23.809v11.9046zm87.4761 0v-11.9046h-11.904v-11.9045h11.904v-11.9046h47.618v-11.9045h-47.618v-11.9046h59.523v11.9046h11.905v47.6182zm11.905-11.9046h35.713v-11.9045h-35.713zm75.572 11.9046v-11.9046h-11.905v-35.7136h11.905v-11.9046h71.427v11.9046h-59.523v35.7136h59.523v11.9046zm75.571 0v-83.331866h23.81v47.618166h23.809v-11.9045h11.904v-11.9046h23.809v11.9046h-11.904v11.9045h-11.905v11.9046h11.905v11.9045h11.904v11.9046h-23.809v-11.9046h-11.904v-11.9045h-23.809v23.8091zm99.381 0v-11.9046h-11.904v-71.427266h23.809v23.809066h47.618v11.9046h11.905v35.7136h-11.905v11.9046zm11.905-11.9046h35.714v-35.7136h-35.714zm75.572 11.9046v-11.9046h-11.905v-35.7136h11.905v-11.9046h59.522v11.9046h11.905v23.8091h-59.523v11.9045h47.618v11.9046zm11.904-35.7137h35.714v-11.9045h-35.714zm75.572 35.7137v-11.9046h-11.904v-11.9045h11.904v-11.9046h47.618v-11.9045h-47.618v-11.9046h59.523v11.9046h11.904v47.6182zm11.905-11.9046h35.713v-11.9045h-35.713zm99.381-35.7136h11.904v11.9045h-11.904v35.7137h-23.81v-59.5228h23.81zm47.618-11.9046v11.9046h-35.714v-11.9046zm16.049 59.5228v-11.9046h-11.905v-35.7136h11.905v-11.9046h47.618v-23.809066h23.809v83.331866zm11.904-11.9046h35.714v-35.7136h-35.714z" fill="#000"/></svg>