<svg fill="none" height="66" viewBox="0 0 319 66" width="319" xmlns="http://www.w3.org/2000/svg"><g fill="#fff"><g fill-opacity=".957"><path d="m14.8301 49.6702-.03-34.23c-.0003-.0408.0076-.0812.023-.1189.0155-.0378.0382-.0721.067-.1011l14.8-14.779966c.0433-.043678.0987-.073461.159-.085556.0604-.012095.123-.005954.1798.017641s.1054.063577.1394.114851c.0341.051274.0521.111519.0518.173063l-.03 63.749967c.0003.0616-.0177.1218-.0518.1731-.034.0513-.0826.0913-.1394.1149-.0568.0235-.1194.0297-.1798.0176-.0603-.0121-.1157-.0419-.159-.0856l-14.74-14.74c-.0288-.0289-.0515-.0632-.067-.101-.0154-.0378-.0233-.0782-.023-.119z"/><path d="m65.3799 31.05-9.47 10.41c-.052.0575-.0805.1325-.08.21l.06 23.18c0 .0822-.0326.1611-.0908.2192-.0581.0581-.137.0908-.2192.0908l-14.86-.02c-.0822 0-.1611-.0327-.2192-.0908s-.0908-.137-.0908-.2192v-64.519999c0-.082217.0327-.161067.0908-.2192036.0581-.0581363.137-.0907974.2192-.0907974h14.86c.0822 0 .1611.0326611.2192.0907974.0582.0581366.0908.1369866.0908.2192036l-.07 27.689999c0 .0407.008.081.0236.1186s.0384.0718.0672.1006.063.0516.1006.0672.0779.0236.1186.0236h9.47c.0822 0 .1611-.0327.2192-.0908.0582-.0581.0908-.137.0908-.2192l.04-27.689999c0-.082217.0327-.161067.0908-.2192036.0581-.0581363.137-.0907974.2192-.0907974l14.81.0100002c.0407 0 .081.0080188.1186.0235977.0377.015579.0718.0384136.1006.0672001.0288.028786.0516.062959.0672.10057s.0236.077922.0236.118632l.03 64.52c0 .0822-.0326.1611-.0908.2192-.0581.0581-.137.0908-.2192.0908h-14.84c-.0822 0-.1611-.0327-.2192-.0908s-.0908-.137-.0908-.2192l-.03-33.58c.0005-.0628-.0182-.1243-.0535-.1763s-.0856-.092-.1441-.1148c-.0586-.0228-.1227-.0272-.1838-.0127-.0612.0145-.1165.0472-.1586.0938z"/><path d="m91.49 64.7699.1-64.069975c0-.446667.1567-.513334.47-.200001l14.55 14.549976c.224.2245.35.5266.35.84v33.38c0 .3467-.123.6434-.37.89l-14.75 14.75c-.2333.2334-.35.1867-.35-.14z"/></g><path d="m215.36 4.24023h-3.04c-2.795 0-5.06 2.26544-5.06 5.06001v2.27996c0 2.7946 2.265 5.06 5.06 5.06h3.04c2.795 0 5.06-2.2654 5.06-5.06v-2.27996c0-2.79457-2.265-5.06001-5.06-5.06001z"/><path d="m114.65 6.30013c0-.4.12-.44.36-.12l8.76 11.79997c.227.3051.35.6734.35 1.05l.01 27.44c0 .3267-.097.6234-.29.89l-8.91 11.95c-.2.2734-.3.24-.3-.1z" fill-opacity=".957"/><path d="m9.63002 7.83031-.07 52.27999c.00074.068-.02023.1345-.05985.1899-.03963.0553-.09586.0965-.16051.1177-.06466.0212-.13439.0212-.19906 0-.06467-.0211-.12092-.0623-.16058-.1176l-8.9200016-12.02c-.0397101-.0553-.06072941-.1219-.06000004-.19l.01000004-28.17c-.00072942-.0681.0202898-.1347.06-.19l8.9800016-12.08998c.03966-.05529.09591-.0965.16058-.11764.06467-.02115.1344-.02112.19906.00006.06465.02118.12088.06242.16051.11773.03962.05531.06059.12181.05985.18984z" fill-opacity=".957"/><path d="m160.49 38.5499v20.93c0 .0433-.009.0862-.025.1263-.017.04-.041.0764-.072.107-.03.0307-.067.055-.107.0716-.04.0165-.083.0251-.126.0251h-10.45c-.088 0-.172-.0348-.233-.0967-.062-.0619-.097-.1458-.097-.2333l.02-51.02002c0-.08752.035-.17146.097-.23334.061-.06189.145-.09666.233-.09666l10.43.01c.087 0 .171.03477.233.09666.062.06188.097.14582.097.23334v20.34002c0 .0875.035.1714.097.2333.061.0619.145.0967.233.0967l12.48.01c.087 0 .171-.0348.233-.0967s.097-.1458.097-.2333l.02-20.36002c0-.08752.035-.17146.097-.23334.061-.06189.145-.09666.233-.09666l10.4.01c.087 0 .171.03477.233.09666.062.06188.097.14582.097.23334v51.01002c0 .0433-.009.0862-.025.1263-.017.04-.041.0764-.072.107-.03.0307-.067.055-.107.0716-.04.0165-.083.0251-.126.0251h-10.41c-.043 0-.086-.0086-.126-.0251-.04-.0166-.077-.0409-.107-.0716-.031-.0306-.055-.067-.072-.107-.017-.0401-.025-.083-.025-.1263v-20.92c0-.0875-.035-.1715-.097-.2334-.062-.0618-.146-.0966-.233-.0966l-12.49-.01c-.088 0-.172.0347-.233.0966-.062.0619-.097.1459-.097.2334z"/><path d="m292.64 44.2002c.293 5.0066 2.93 7.71 7.91 8.11 4.42.3533 8.12-1.1567 11.1-4.53.093-.1067.19-.11.29-.01l5.53 6.01c.055.0576.086.1335.088.213s-.026.1569-.078.217c-3.313 3.78-7.703 5.9266-13.17 6.44-8.97.84-17.38-1.82-20.85-10.6-2.63-6.69-2.18-16.32 2.04-22.24 3.58-5.02 8.927-7.3634 16.04-7.03 12.83.6 17.84 10.52 17.27 22.08-.013.3533-.2.53-.56.53l-24.85.01c-.533 0-.787.2666-.76.8zm.45-6.93h14.66c.055 0 .11-.0109.161-.032s.097-.0521.136-.0911.07-.0853.091-.1362c.021-.051.032-.1056.032-.1607v-.73c0-.9968-.19-1.9837-.56-2.9046s-.912-1.7576-1.596-2.4624c-.683-.7048-1.494-1.2639-2.387-1.6453s-1.85-.5777-2.817-.5777h-.78c-.966 0-1.924.1963-2.816.5777-.893.3814-1.705.9405-2.388 1.6453-.684.7048-1.226 1.5415-1.596 2.4624s-.56 1.9078-.56 2.9046v.73c0 .0551.011.1097.032.1607.021.0509.052.0972.091.1362s.085.07.136.0911.106.032.161.032z"/><path d="m208.43 51.0399v-20.64c0-.0929-.037-.1819-.103-.2475-.065-.0657-.154-.1025-.247-.1025l-11.5-.01c-.093 0-.182-.0369-.248-.1025-.065-.0657-.102-.1547-.102-.2475l.02-7.73c0-.0929.037-.1819.102-.2475.066-.0657.155-.1025.248-.1025h22.29c.093 0 .182.0368.247.1025.066.0656.103.1546.103.2475v29.09c0 .0928.037.1818.102.2475.066.0656.155.1025.248.1025l10.64-.01c.093 0 .182.0368.247.1025.066.0656.103.1546.103.2475v7.72c0 .0459-.009.0914-.027.1339-.017.0425-.043.081-.076.1135-.032.0325-.071.0583-.113.0759-.043.0176-.088.0267-.134.0267l-33.65.01c-.093 0-.182-.0369-.248-.1025-.065-.0657-.102-.1547-.102-.2475l.02-7.73c0-.0929.037-.1819.102-.2475.066-.0657.155-.1025.248-.1025h11.48c.093 0 .182-.0369.247-.1026.066-.0656.103-.1546.103-.2474z"/><path d="m256.46 50.4601 8.44-28.6c.021-.0714.065-.1341.124-.179.059-.045.131-.0698.206-.071h10.35c.056-.0002.112.0132.162.0392.05.0259.093.0635.126.1097.032.0461.053.0994.06.1553.007.056.001.1128-.018.1658l-13.42 37.5c-.025.0676-.07.126-.129.1671-.059.0412-.129.0632-.201.0629h-12.53c-.072.0003-.142-.0217-.201-.0629-.06-.0411-.104-.0995-.129-.1671l-13.42-37.51c-.019-.053-.026-.1098-.018-.1658.007-.0559.028-.1092.06-.1553.033-.0462.076-.0838.126-.1097.05-.026.105-.0394.162-.0392l10.8.02c.074.0011.146.026.206.071.059.0449.103.1076.124.179l8.44 28.59c.018.0761.062.1438.124.1922.061.0484.137.0747.216.0747.078 0 .154-.0263.216-.0747s.105-.1161.124-.1922z"/></g></svg>