<svg fill="none" height="71" viewBox="0 0 730 71" width="730" xmlns="http://www.w3.org/2000/svg"><g fill="#fff"><path d="m107.312 71.0001h-16.4316l-12.8814-21.3002h-48.6859l-12.8818 21.3002h-16.4313l38.4417-64.10285c2.4342-4.05709 6.9985-6.89686711 12.1712-6.89686711h6.0855c5.1727 0 9.737 2.83977711 12.1716 6.89686711zm-37.8331-35.4999-12.7801-21.3002h-6.0855l-12.7801 21.3002z"/><path d="m201.137 48.6859 14.808 22.3142h-17.04l-14.2-21.3002h-53.554v21.3002h-14.2v-70.99971711h78.1c11.766 0 21.199 9.53406711 21.199 21.29981711v7.0998c0 9.6358-6.289 17.7499-15.113 20.2859zm1.014-27.3861c0-3.8541-3.246-7.0998-7.1-7.0998h-63.9v21.3002h63.9c3.854 0 7.1-3.1444 7.1-7.1002z"/><path d="m331.882 71.0001h-23.735l-38.847-29.1102-24.241 17.0402v12.07h-14.099v-70.99971711h14.099v41.58571711l59.335-41.58571711h24.647l-47.57 33.36981711z"/><path d="m346.59.00038289h14.2v71.00001711h-14.2z"/><path d="m408.97 64.1028-38.543-64.1028h16.634l34.08 56.6984h6.086l34.08-56.6984h16.533l-38.442 64.1028c-2.434 4.0575-6.998 6.8973-12.171 6.8973h-6.086c-5.172 0-9.736-2.8398-12.171-6.8973z"/><path d="m487.481.00038289h14.2v71.00001711h-14.2z"/><path d="m530.587 21.3002c0 3.9558 3.246 7.0998 7.1 7.0998h56.8c11.766 0 21.3 9.5345 21.3 21.3002 0 11.6641-9.534 21.3002-21.3 21.3002h-78.1v-14.3013h78.1c3.855 0 7.1-3.144 7.1-6.9985 0-3.9554-3.245-7.0998-7.1-7.0998h-56.8c-11.664 0-21.3-9.5341-21.3-21.3002 0-11.76615 9.636-21.29983251 21.3-21.29983251h78.1v14.20003251h-78.1c-3.854 0-7.1 3.2453-7.1 7.0994z"/><path d="m673.097 71.0001v-56.8001h-42.6v-14.2h99.4v14.2h-42.6v56.8001z"/></g></svg>