<svg fill="none" height="70" viewBox="0 0 301 70" width="301" xmlns="http://www.w3.org/2000/svg"><g fill="#fff"><path d="m61.6579 0-20.8703 17.5771v-17.5771h-9.9686l-20.85047 17.5771v-17.5771h-9.96853v17.6157h9.92881l-9.92881 8.3737v17.6157l30.819-25.9894h9.9288l-40.7478 34.3438v17.6349h9.96853v-8.4123l51.68937-43.5664h9.9685v-17.6157z"/><path d="m71.6262 51.959h-9.9685v17.6157h9.9685z"/><path d="m30.8193 69.5945h9.9686v-8.393l30.8389-25.9701v-17.6157l-40.8075 34.3438z"/><path d="m175.84 46.827h-14.576v-28.5941h-6.592v21.4359c0 1.7172.218 3.1643.675 4.4377 1.946 5.4603 7.268 9.1262 13.205 9.1262 2.006 0 3.952-.4245 5.799-1.2348l1.489-.656v8.9718h-21.168v6.4057h13.9c7.665 0 13.88-6.0391 13.88-13.4867v-34.9998h-6.592v28.5748z"/><path d="m140.255 18.7536c-1.827-.8103-3.773-1.2348-5.798-1.2348-2.026 0-3.992.4245-5.819 1.2348-1.37.5982-2.621 1.4085-3.733 2.4311l-1.052 1.0226-.755-.7139c-1.191-1.1576-2.562-2.0838-4.051-2.7591-1.827-.8103-3.773-1.2348-5.798-1.2348-2.026 0-3.972.4052-5.799 1.2348-3.018 1.3506-5.441 3.7045-6.811 6.6373-.834 1.7558-1.2708 3.6466-1.2708 5.6339v21.5517h6.5928v-28.6134h14.575v28.652h6.593v-28.652h14.576v28.652h6.592v-21.5517c0-1.968-.437-3.8782-1.271-5.6339-1.39-2.9328-3.812-5.2867-6.811-6.6373z"/><path d="m286.864 17.5381c-7.665 0-13.881 6.0391-13.881 13.4867v21.571h6.593v-28.652h14.576v28.652h6.592v-21.571c0-7.4476-6.215-13.4867-13.88-13.4867z"/><path d="m264.425 18.2515h-6.593v34.3438h6.593z"/><path d="m264.425 5.4209h-6.593v6.4057h6.593z"/><path d="m244.309 33.9189-6.513-3.2028c-1.231-.7139-2.006-2.0066-2.006-3.3958v-3.9554h8.142v3.9554h5.957c0-5.3831-4.507-9.7436-10.028-9.7436-5.52 0-10.028 4.3798-10.028 9.7436 0 3.4922 1.926 6.7337 5.044 8.4702l6.831 3.3765c1.608.7138 2.641 2.2767 2.641 3.9746v4.3798h-8.995v-4.3798h-5.958c0 5.5953 4.687 10.1681 10.465 10.1681 5.779 0 10.465-4.5535 10.465-10.1681 0-3.9746-2.403-7.602-6.017-9.2034z"/><path d="m210.848 17.5381h-7.863c-7.665 0-13.881 6.0391-13.881 13.4867v7.9299c0 7.4476 6.216 13.4867 13.881 13.4867h7.863c7.665 0 13.881-6.0391 13.881-13.4867v-7.9299c0-7.4476-6.216-13.4867-13.881-13.4867zm7.288 28.4976h-22.439v-22.0919h22.439v22.0726z"/></g></svg>